<?xml version="1.0" encoding="UTF-8"?>
<!-- Created with Inkscape (http://www.inkscape.org/) -->
<svg width="30mm" height="38.337mm" version="1.1" viewBox="0 0 30 38.337" xmlns="http://www.w3.org/2000/svg">
 <g transform="translate(585.09 -67.666)">
  <g transform="matrix(.26972 0 0 .26458 -1078.8 -207.15)" clip-rule="evenodd" fill-rule="evenodd" stroke-linecap="round" stroke-linejoin="round" stroke-miterlimit="1.5">
   <path d="m1866.7 1113.7v67.332l19.435-17.603 19.435 17.603v-67.332z" fill="#fff"/>
   <path d="m1866.7 1111.1c-1.416 0-2.564 1.148-2.564 2.564v67.332c0 1.014 0.598 1.933 1.525 2.344s2.009 0.237 2.76-0.444l17.714-16.044 17.714 16.044c0.752 0.681 1.834 0.855 2.761 0.444 0.926-0.411 1.524-1.33 1.524-2.344v-67.332c0-1.416-1.148-2.564-2.564-2.564zm2.564 5.128h33.742v58.986l-15.15-13.722c-0.977-0.885-2.465-0.885-3.442 0l-15.15 13.722z"/>
   <path d="m1886.1 1041.2c-3.136 4.092-7.026 7.256-11.67 9.494-5.141 0.384-10.092-0.411-14.854-2.386-0.671 5.111-2.457 9.797-5.36 14.057-4.26 2.903-8.946 4.689-14.057 5.36 1.975 4.762 2.77 9.713 2.386 14.854-2.238 4.644-5.402 8.534-9.494 11.67 4.092 3.136 7.256 7.027 9.494 11.671 0.384 5.14-0.411 10.092-2.386 14.853 5.111 0.671 9.797 2.458 14.057 5.36 2.903 4.261 4.689 8.946 5.36 14.058 4.762-1.975 9.713-2.771 14.854-2.387 4.644 2.238 8.534 5.402 11.67 9.494 3.136-4.092 7.027-7.256 11.671-9.494 5.14-0.384 10.092 0.412 14.853 2.387 0.671-5.112 2.458-9.797 5.361-14.058 4.26-2.902 8.945-4.689 14.057-5.36-1.975-4.761-2.771-9.713-2.387-14.853 2.238-4.644 5.402-8.535 9.494-11.671-4.092-3.136-7.256-7.026-9.494-11.67-0.384-5.141 0.412-10.092 2.387-14.854-5.112-0.671-9.797-2.457-14.057-5.36-2.903-4.26-4.69-8.946-5.361-14.057-4.761 1.975-9.713 2.77-14.853 2.386-4.644-2.238-8.535-5.402-11.671-9.494zm0 42.439c5.856 0 10.61 4.754 10.61 10.61s-4.754 10.61-10.61 10.61-10.61-4.754-10.61-10.61 4.754-10.61 10.61-10.61z" fill="#ef0707"/>
   <path d="m1888.2 1039.7c-0.485-0.633-1.237-1.004-2.035-1.004-0.797 0-1.549 0.371-2.035 1.004-2.788 3.636-6.222 6.478-10.303 8.525-4.573 0.273-8.97-0.47-13.204-2.227-0.737-0.305-1.573-0.251-2.264 0.148s-1.157 1.096-1.26 1.887c-0.596 4.544-2.15 8.722-4.661 12.535-3.824 2.523-8.003 4.078-12.548 4.674-0.791 0.103-1.488 0.569-1.887 1.26-0.398 0.691-0.453 1.527-0.148 2.264 1.756 4.233 2.5 8.628 2.232 13.186-2.05 4.097-4.892 7.533-8.53 10.321-0.633 0.485-1.004 1.238-1.004 2.035 0 0.798 0.371 1.55 1.004 2.035 3.636 2.788 6.478 6.222 8.525 10.304 0.273 4.573-0.47 8.969-2.227 13.203-0.305 0.737-0.25 1.574 0.148 2.264 0.399 0.691 1.096 1.157 1.887 1.261 4.544 0.595 8.722 2.149 12.535 4.66 2.523 3.824 4.078 8.003 4.674 12.548 0.103 0.791 0.569 1.488 1.26 1.887s1.527 0.453 2.264 0.148c4.233-1.756 8.628-2.5 13.186-2.231 4.097 2.049 7.533 4.892 10.321 8.53 0.486 0.632 1.238 1.004 2.035 1.004 0.798 0 1.55-0.372 2.035-1.004 2.788-3.637 6.222-6.479 10.304-8.526 4.573-0.273 8.969 0.471 13.203 2.227 0.737 0.305 1.574 0.251 2.264-0.148 0.691-0.399 1.157-1.096 1.261-1.887 0.595-4.543 2.149-8.722 4.66-12.535 3.824-2.523 8.003-4.077 12.548-4.673 0.791-0.104 1.488-0.57 1.887-1.261 0.399-0.69 0.453-1.527 0.148-2.264-1.756-4.233-2.499-8.628-2.231-13.186 2.049-4.097 4.892-7.532 8.53-10.321 0.633-0.485 1.004-1.237 1.004-2.035 0-0.797-0.371-1.55-1.004-2.035-3.637-2.788-6.479-6.222-8.526-10.304-0.273-4.572 0.471-8.969 2.227-13.203 0.305-0.737 0.251-1.573-0.148-2.264s-1.096-1.157-1.887-1.26c-4.543-0.596-8.722-2.15-12.535-4.661-2.523-3.824-4.077-8.003-4.673-12.548-0.104-0.791-0.57-1.488-1.261-1.887-0.69-0.399-1.527-0.453-2.264-0.148-4.233 1.756-8.628 2.5-13.186 2.231-4.097-2.049-7.532-4.892-10.321-8.529zm-2.035 5.547c2.988 3.259 6.507 5.864 10.558 7.816 0.289 0.139 0.602 0.223 0.922 0.247 4.484 0.335 8.834-0.162 13.051-1.49 0.958 4.316 2.703 8.332 5.235 12.047 0.181 0.266 0.409 0.495 0.675 0.675 3.716 2.533 7.732 4.278 12.048 5.235-1.329 4.217-1.826 8.568-1.491 13.052 0.024 0.32 0.108 0.632 0.247 0.922 1.952 4.05 4.558 7.57 7.817 10.557-3.259 2.988-5.865 6.507-7.817 10.558-0.139 0.289-0.223 0.602-0.247 0.922-0.335 4.484 0.162 8.834 1.491 13.051-4.317 0.958-8.332 2.703-12.048 5.235-0.266 0.181-0.494 0.409-0.675 0.675-2.532 3.716-4.277 7.731-5.235 12.048-4.217-1.329-8.567-1.826-13.051-1.491-0.32 0.024-0.633 0.108-0.922 0.247-4.051 1.952-7.57 4.558-10.558 7.817-2.987-3.259-6.507-5.865-10.557-7.817-0.29-0.139-0.602-0.223-0.922-0.247-4.484-0.335-8.835 0.162-13.052 1.491-0.957-4.317-2.702-8.332-5.235-12.048-0.18-0.266-0.409-0.494-0.674-0.675-3.716-2.532-7.732-4.277-12.048-5.235 1.328-4.217 1.825-8.567 1.49-13.051-0.024-0.32-0.108-0.633-0.247-0.922-1.952-4.051-4.557-7.57-7.816-10.558 3.259-2.988 5.864-6.507 7.816-10.557 0.139-0.29 0.223-0.602 0.247-0.922 0.335-4.484-0.162-8.835-1.49-13.052 4.316-0.958 8.332-2.703 12.048-5.235 0.265-0.18 0.494-0.409 0.674-0.675 2.533-3.715 4.278-7.731 5.235-12.047 4.217 1.328 8.568 1.825 13.052 1.49 0.32-0.024 0.632-0.108 0.922-0.247 4.05-1.952 7.57-4.557 10.557-7.816zm0 35.887c-7.271 0-13.173 5.903-13.173 13.174s5.902 13.174 13.173 13.174 13.174-5.903 13.174-13.174-5.903-13.174-13.174-13.174zm0 5.128c4.441 0 8.046 3.605 8.046 8.046s-3.605 8.046-8.046 8.046-8.046-3.605-8.046-8.046 3.605-8.046 8.046-8.046z"/>
   <circle cx="1886.1" cy="1094.3" r="36.683" fill="#ef0707"/>
   <path d="m1861.4 1099.7 12.875 12.874c2.003 2.003 5.249 2.003 7.252 0l29.301-29.3c2.001-2.002 2.001-5.251 0-7.252s-5.251-2.001-7.252 0l-25.675 25.675-9.249-9.249c-2.001-2.001-5.25-2.001-7.252 0-2.001 2.001-2.001 5.25 0 7.252z" fill="#fff"/>
  </g>
 </g>
</svg>
