<?xml version="1.0" encoding="UTF-8" standalone="no"?><!DOCTYPE svg PUBLIC "-//W3C//DTD SVG 1.1//EN" "http://www.w3.org/Graphics/SVG/1.1/DTD/svg11.dtd"><svg width="100%" height="100%" viewBox="0 0 4266 2089" version="1.1" xmlns="http://www.w3.org/2000/svg" xmlns:xlink="http://www.w3.org/1999/xlink" xml:space="preserve" xmlns:serif="http://www.serif.com/" style="fill-rule:evenodd;clip-rule:evenodd;stroke-linecap:round;stroke-linejoin:round;stroke-miterlimit:1.5;"><g><path d="M812.703,1847.2l888.397,-0l0,-353.108" style="fill:none;stroke:#ef0707;stroke-width:6.73px;"/><path d="M1661.85,1529.62l39.254,-39.254l39.254,39.254" style="fill:none;stroke:#ef0707;stroke-width:6.73px;"/></g><g><path d="M812.703,301.888l1421.87,0l-0,325.746" style="fill:none;stroke:#ef0707;stroke-width:6.73px;"/><path d="M2195.32,592.11l39.254,39.254l39.254,-39.254" style="fill:none;stroke:#ef0707;stroke-width:6.73px;"/></g><path d="M3.366,588.969l740.893,0" style="fill:none;stroke:#000;stroke-width:6.73px;"/><path d="M3.366,2079.64l740.893,-0" style="fill:none;stroke:#000;stroke-width:6.73px;"/><g><g><rect x="3579.53" y="1933.28" width="49.639" height="139.917" style="stroke:#000;stroke-width:7.02px;"/><path d="M3920.28,1616.08c0,-9.808 -7.963,-17.771 -17.771,-17.771l-596.324,-0c-9.808,-0 -17.771,7.963 -17.771,17.771l-0,319.882c-0,9.808 7.963,17.771 17.771,17.771l596.324,0c9.808,0 17.771,-7.963 17.771,-17.771l0,-319.882Z" style="fill:#fff;"/><path d="M3923.65,1616.08c-0,-11.666 -9.472,-21.138 -21.138,-21.138l-596.324,0c-11.666,0 -21.138,9.472 -21.138,21.138c0,-0 0,319.882 0,319.882c0,11.666 9.472,21.138 21.138,21.138c0,-0 596.324,-0 596.324,-0c11.666,-0 21.138,-9.472 21.138,-21.138c-0,0 -0,-319.882 -0,-319.882Zm-6.733,-0l-0,319.882c-0,7.95 -6.455,14.405 -14.405,14.405l-596.324,0c-7.95,0 -14.405,-6.455 -14.405,-14.405l0,-319.882c0,-7.95 6.455,-14.405 14.405,-14.405c0,0 596.324,0 596.324,0c7.95,0 14.405,6.455 14.405,14.405Z"/><g><path d="M3698.98,1681.3c0.072,-0.073 -55.096,-51.114 -55.199,-51.114l-126.504,0c-4.178,0 -7.571,3.393 -7.571,7.571l0,254.036c0,4.178 3.393,7.57 7.571,7.57l174.132,0c4.178,0 7.571,-3.392 7.571,-7.57l-0,-210.493Z" style="fill:#fff;stroke:#000;stroke-width:4.44px;"/><path d="M3643.41,1630.18l-0,9.631c-0,23.007 18.65,41.658 41.657,41.658c7.389,-0 12.779,-0 12.779,-0" style="fill:none;stroke:#000;stroke-width:4.44px;"/><path d="M3534.33,1756.93c-2.418,-0.968 -4.369,-2.838 -5.436,-5.213c-2.421,-4.816 -1.614,-9.632 0.993,-13.678c2.457,-3.81 6.528,-7.05 11.133,-9.768c5.833,-3.308 11.998,-5.992 18.394,-8.006c4.967,-8.929 9.37,-18.161 13.181,-27.641c-2.279,-5.178 -4.066,-10.56 -5.337,-16.073c-1.067,-4.964 -1.477,-9.88 -0.571,-14.1c0.931,-4.393 3.401,-8.34 8.068,-10.214c2.383,-0.956 4.965,-1.49 7.472,-0.956c2.552,0.543 4.729,2.209 5.92,4.53c1.092,2.036 1.49,4.419 1.577,6.678c0.086,2.333 -0.149,4.915 -0.584,7.621c-1.042,6.33 -3.351,14.074 -6.454,22.266c3.424,7.323 7.495,14.326 12.164,20.926c5.524,-0.436 11.081,-0.228 16.557,0.621c4.518,0.819 9.11,2.42 11.915,5.771c1.49,1.788 2.396,3.972 2.482,6.43c0.087,2.383 -0.583,4.741 -1.712,6.987c-0.979,2.082 -2.496,3.865 -4.394,5.164c-1.876,1.224 -4.093,1.823 -6.33,1.713c-4.108,-0.174 -8.117,-2.433 -11.58,-5.176c-4.211,-3.482 -8.005,-7.438 -11.307,-11.791c-8.394,0.952 -16.688,2.638 -24.787,5.039c-3.708,6.578 -7.942,12.845 -12.66,18.742c-3.624,4.344 -7.558,8.142 -11.505,9.768c-2.267,1.025 -4.841,1.154 -7.199,0.36Zm17.116,-23.595c-2.061,0.943 -3.972,1.936 -5.697,2.954c-4.071,2.408 -6.715,4.754 -8.031,6.789c-1.166,1.8 -1.191,3.103 -0.496,4.481c0.124,0.273 0.248,0.447 0.323,0.546c0.148,-0.04 0.293,-0.089 0.434,-0.149c1.7,-0.695 4.406,-2.917 7.881,-7.1c1.977,-2.419 3.841,-4.929 5.586,-7.521Zm20.355,-16.508c4.145,-0.967 8.327,-1.766 12.536,-2.395c-2.26,-3.459 -4.372,-7.012 -6.33,-10.649c-1.947,4.401 -4.016,8.746 -6.206,13.032l0,0.012Zm30.359,5.586c1.862,2.023 3.674,3.723 5.399,5.088c2.979,2.359 5.052,3.141 6.181,3.178c0.303,0.039 0.609,-0.026 0.869,-0.186c0.516,-0.408 0.918,-0.943 1.167,-1.552c0.441,-0.756 0.692,-1.608 0.732,-2.482c-0.007,-0.292 -0.122,-0.57 -0.323,-0.782c-0.645,-0.77 -2.482,-1.887 -6.429,-2.594c-2.511,-0.42 -5.05,-0.64 -7.596,-0.658l0,-0.012Zm-24.699,-43.516c1.044,-3.369 1.873,-6.802 2.482,-10.277c0.385,-2.333 0.534,-4.257 0.472,-5.771c0.003,-0.836 -0.131,-1.666 -0.397,-2.458c-0.621,0.077 -1.228,0.244 -1.8,0.497c-1.08,0.434 -1.961,1.315 -2.433,3.512c-0.496,2.383 -0.372,5.821 0.571,10.203c0.298,1.377 0.67,2.817 1.117,4.294l-0.012,0Z" style="fill:#ef0707;fill-rule:nonzero;"/><g><path d="M3629.96,1863.59l0,58.272l16.82,-15.234l16.82,15.234l-0,-58.272l-33.64,0Z" style="fill:#fff;"/><path d="M3629.96,1861.38c-1.225,0 -2.219,0.994 -2.219,2.219l0,58.272c0,0.878 0.517,1.673 1.319,2.028c0.803,0.356 1.739,0.206 2.39,-0.383l15.33,-13.886c-0,0 15.33,13.886 15.33,13.886c0.65,0.589 1.587,0.739 2.389,0.383c0.802,-0.355 1.32,-1.15 1.32,-2.028l-0,-58.272c-0,-1.225 -0.994,-2.219 -2.219,-2.219l-33.64,0Zm2.219,4.438l29.202,0c-0,0 -0,51.05 -0,51.05c-0,-0 -13.112,-11.876 -13.112,-11.876c-0.845,-0.766 -2.133,-0.766 -2.979,-0l-13.111,11.876l-0,-51.05Z"/><path d="M3646.78,1800.91c-2.714,3.541 -6.081,6.28 -10.1,8.217c-4.449,0.332 -8.734,-0.356 -12.855,-2.066c-0.581,4.424 -2.127,8.479 -4.639,12.166c-3.687,2.512 -7.742,4.058 -12.166,4.639c1.71,4.121 2.398,8.406 2.066,12.855c-1.937,4.019 -4.676,7.386 -8.217,10.1c3.541,2.714 6.28,6.081 8.217,10.1c0.332,4.449 -0.356,8.734 -2.066,12.855c4.424,0.58 8.479,2.126 12.166,4.639c2.512,3.687 4.058,7.742 4.639,12.165c4.121,-1.709 8.406,-2.397 12.855,-2.065c4.019,1.937 7.386,4.675 10.1,8.216c2.714,-3.541 6.081,-6.279 10.1,-8.216c4.449,-0.332 8.734,0.356 12.855,2.065c0.58,-4.423 2.126,-8.478 4.639,-12.165c3.687,-2.513 7.742,-4.059 12.165,-4.639c-1.709,-4.121 -2.397,-8.406 -2.065,-12.855c1.937,-4.019 4.675,-7.386 8.216,-10.1c-3.541,-2.714 -6.279,-6.081 -8.216,-10.1c-0.332,-4.449 0.356,-8.734 2.065,-12.855c-4.423,-0.581 -8.478,-2.127 -12.165,-4.639c-2.513,-3.687 -4.059,-7.742 -4.639,-12.166c-4.121,1.71 -8.406,2.398 -12.855,2.066c-4.019,-1.937 -7.386,-4.676 -10.1,-8.217Zm-0,36.729c5.068,-0 9.182,4.114 9.182,9.182c-0,5.068 -4.114,9.182 -9.182,9.182c-5.068,-0 -9.182,-4.114 -9.182,-9.182c-0,-5.068 4.114,-9.182 9.182,-9.182Z" style="fill:#ef0707;"/><path d="M3648.54,1799.56c-0.42,-0.548 -1.071,-0.869 -1.761,-0.869c-0.69,-0 -1.341,0.321 -1.761,0.869c-2.413,3.147 -5.385,5.606 -8.917,7.378c-3.958,0.236 -7.763,-0.407 -11.427,-1.927c-0.638,-0.265 -1.362,-0.217 -1.96,0.128c-0.598,0.345 -1.001,0.948 -1.09,1.633c-0.516,3.932 -1.861,7.548 -4.034,10.848c-3.309,2.183 -6.926,3.529 -10.859,4.045c-0.685,0.089 -1.288,0.492 -1.633,1.09c-0.345,0.598 -0.393,1.322 -0.128,1.96c1.519,3.663 2.163,7.467 1.931,11.411c-1.774,3.546 -4.234,6.519 -7.382,8.933c-0.548,0.42 -0.869,1.071 -0.869,1.761c-0,0.69 0.321,1.341 0.869,1.761c3.147,2.412 5.606,5.385 7.378,8.917c0.236,3.958 -0.407,7.763 -1.927,11.427c-0.265,0.637 -0.217,1.362 0.128,1.959c0.345,0.598 0.948,1.001 1.633,1.091c3.932,0.516 7.548,1.86 10.848,4.034c2.184,3.309 3.529,6.926 4.045,10.859c0.089,0.684 0.492,1.288 1.09,1.633c0.598,0.345 1.322,0.392 1.96,0.128c3.663,-1.519 7.467,-2.163 11.411,-1.931c3.546,1.774 6.519,4.234 8.933,7.382c0.42,0.548 1.071,0.869 1.761,0.869c0.69,0 1.341,-0.321 1.761,-0.869c2.413,-3.147 5.385,-5.607 8.917,-7.378c3.958,-0.237 7.763,0.407 11.427,1.927c0.637,0.264 1.362,0.217 1.959,-0.128c0.598,-0.345 1.001,-0.949 1.091,-1.633c0.516,-3.932 1.86,-7.548 4.034,-10.848c3.309,-2.184 6.926,-3.529 10.859,-4.045c0.684,-0.09 1.288,-0.493 1.633,-1.091c0.345,-0.597 0.392,-1.322 0.128,-1.959c-1.519,-3.663 -2.163,-7.467 -1.931,-11.412c1.774,-3.545 4.234,-6.519 7.382,-8.932c0.548,-0.42 0.869,-1.071 0.869,-1.761c0,-0.69 -0.321,-1.341 -0.869,-1.761c-3.147,-2.413 -5.607,-5.385 -7.378,-8.918c-0.236,-3.957 0.407,-7.762 1.927,-11.426c0.264,-0.638 0.217,-1.362 -0.128,-1.96c-0.345,-0.598 -0.949,-1.001 -1.633,-1.09c-3.932,-0.516 -7.548,-1.861 -10.848,-4.034c-2.184,-3.309 -3.529,-6.926 -4.045,-10.859c-0.09,-0.685 -0.493,-1.288 -1.091,-1.633c-0.597,-0.345 -1.322,-0.393 -1.959,-0.128c-3.663,1.519 -7.467,2.163 -11.412,1.931c-3.545,-1.774 -6.519,-4.234 -8.932,-7.382Zm-1.761,4.8c2.585,2.821 5.631,5.075 9.137,6.765c0.25,0.12 0.521,0.193 0.798,0.213c3.88,0.29 7.645,-0.14 11.294,-1.289c0.83,3.735 2.34,7.211 4.531,10.426c0.157,0.23 0.355,0.428 0.584,0.584c3.216,2.192 6.692,3.702 10.427,4.531c-1.15,3.649 -1.58,7.414 -1.29,11.295c0.021,0.277 0.093,0.548 0.214,0.798c1.689,3.506 3.944,6.551 6.764,9.137c-2.82,2.585 -5.075,5.631 -6.764,9.137c-0.121,0.25 -0.193,0.521 -0.214,0.798c-0.29,3.88 0.14,7.645 1.29,11.294c-3.735,0.83 -7.211,2.34 -10.427,4.531c-0.229,0.157 -0.427,0.355 -0.584,0.584c-2.191,3.216 -3.701,6.692 -4.53,10.427c-3.65,-1.15 -7.415,-1.58 -11.295,-1.29c-0.277,0.021 -0.548,0.093 -0.798,0.214c-3.506,1.689 -6.552,3.944 -9.137,6.764c-2.586,-2.82 -5.631,-5.075 -9.137,-6.764c-0.25,-0.121 -0.521,-0.193 -0.798,-0.214c-3.881,-0.29 -7.646,0.14 -11.295,1.29c-0.829,-3.735 -2.339,-7.211 -4.531,-10.427c-0.156,-0.229 -0.354,-0.427 -0.584,-0.584c-3.215,-2.191 -6.691,-3.701 -10.426,-4.53c1.149,-3.65 1.579,-7.415 1.289,-11.295c-0.02,-0.277 -0.093,-0.548 -0.213,-0.798c-1.69,-3.506 -3.944,-6.552 -6.765,-9.137c2.821,-2.586 5.075,-5.631 6.765,-9.137c0.12,-0.25 0.193,-0.521 0.213,-0.798c0.29,-3.881 -0.14,-7.646 -1.289,-11.295c3.735,-0.829 7.211,-2.339 10.426,-4.531c0.23,-0.156 0.428,-0.354 0.584,-0.584c2.192,-3.215 3.702,-6.691 4.531,-10.426c3.649,1.149 7.414,1.579 11.295,1.289c0.277,-0.02 0.548,-0.093 0.798,-0.213c3.506,-1.69 6.551,-3.944 9.137,-6.765l-0,0Zm-0,31.059c-6.293,-0 -11.401,5.108 -11.401,11.401c-0,6.292 5.108,11.401 11.401,11.401c6.292,-0 11.401,-5.109 11.401,-11.401c-0,-6.293 -5.109,-11.401 -11.401,-11.401Zm-0,4.438c3.843,-0 6.963,3.12 6.963,6.963c0,3.843 -3.12,6.963 -6.963,6.963c-3.843,-0 -6.963,-3.12 -6.963,-6.963c-0,-3.843 3.12,-6.963 6.963,-6.963Z"/><circle cx="3646.78" cy="1846.82" r="31.747" style="fill:#ef0707;"/><path d="M3625.39,1851.49l11.142,11.143c1.733,1.733 4.543,1.733 6.276,-0l25.358,-25.358c1.732,-1.732 1.732,-4.544 0,-6.276c-1.732,-1.732 -4.544,-1.732 -6.276,-0l-22.22,22.22c0,-0 -8.004,-8.005 -8.004,-8.005c-1.732,-1.731 -4.544,-1.731 -6.276,0c-1.732,1.732 -1.732,4.545 -0,6.276Z" style="fill:#fff;"/></g></g><path d="M3493.3,2073.2l222.086,-0" style="fill:none;stroke:#000;stroke-width:6.73px;"/></g><g><path d="M3443.71,1820.99c-0,-6.685 -5.428,-12.113 -12.113,-12.113l-406.446,0c-6.685,0 -12.112,5.428 -12.112,12.113l-0,218.027c-0,6.685 5.427,12.113 12.112,12.113l406.446,-0c6.685,-0 12.113,-5.428 12.113,-12.113l-0,-218.027Z" style="fill:#fff;"/><path d="M3447.07,1820.99c0,-8.543 -6.936,-15.479 -15.479,-15.479l-406.446,-0c-8.543,-0 -15.479,6.936 -15.479,15.479l0,218.027c0,8.543 6.936,15.479 15.479,15.479c0,0 406.446,0 406.446,0c8.543,0 15.479,-6.936 15.479,-15.479l0,-218.027Zm-6.733,-0l0,218.027c0,4.827 -3.919,8.746 -8.746,8.746l-406.446,0c-4.827,0 -8.746,-3.919 -8.746,-8.746c0,0 0,-218.027 0,-218.027c0,-4.827 3.919,-8.746 8.746,-8.746c0,-0 406.446,-0 406.446,-0c4.827,-0 8.746,3.919 8.746,8.746Z"/><g><path d="M3287.96,1870.36c0.046,-0.046 -34.69,-32.183 -34.755,-32.183l-79.651,-0c-2.631,-0 -4.767,2.136 -4.767,4.767l-0,159.949c-0,2.631 2.136,4.767 4.767,4.767l109.639,-0c2.631,-0 4.767,-2.136 4.767,-4.767l-0,-132.533Z" style="fill:#fff;stroke:#000;stroke-width:2.79px;"/><path d="M3252.96,1838.18l0,0.001c0,8.564 3.402,16.778 9.458,22.834c6.056,6.055 14.27,9.458 22.834,9.458c1.251,-0 1.983,-0 1.983,-0" style="fill:none;stroke:#000;stroke-width:2.79px;"/><path d="M3184.28,1917.98c-1.523,-0.609 -2.75,-1.787 -3.423,-3.282c-1.524,-3.033 -1.016,-6.065 0.625,-8.612c1.548,-2.4 4.111,-4.439 7.01,-6.151c3.673,-2.083 7.555,-3.772 11.582,-5.04c3.127,-5.622 5.899,-11.435 8.299,-17.404c-1.435,-3.261 -2.56,-6.649 -3.36,-10.12c-0.672,-3.126 -0.93,-6.221 -0.36,-8.878c0.587,-2.766 2.142,-5.251 5.08,-6.432c1.501,-0.601 3.126,-0.937 4.705,-0.601c1.607,0.342 2.977,1.39 3.727,2.852c0.688,1.282 0.938,2.782 0.993,4.205c0.054,1.469 -0.094,3.094 -0.368,4.798c-0.656,3.985 -2.11,8.862 -4.063,14.02c2.156,4.611 4.719,9.02 7.658,13.176c3.479,-0.275 6.977,-0.144 10.425,0.39c2.845,0.516 5.736,1.524 7.503,3.634c0.937,1.126 1.508,2.501 1.563,4.048c0.054,1.501 -0.368,2.986 -1.079,4.4c-0.616,1.311 -1.571,2.433 -2.766,3.251c-1.182,0.771 -2.577,1.148 -3.986,1.078c-2.587,-0.109 -5.111,-1.531 -7.291,-3.258c-2.651,-2.192 -5.04,-4.684 -7.119,-7.424c-5.285,0.599 -10.507,1.661 -15.607,3.172c-2.335,4.142 -5.001,8.088 -7.971,11.801c-2.282,2.735 -4.759,5.126 -7.244,6.15c-1.428,0.646 -3.048,0.727 -4.533,0.227Zm10.777,-14.856c-1.297,0.594 -2.501,1.219 -3.587,1.86c-2.563,1.516 -4.228,2.993 -5.056,4.274c-0.735,1.134 -0.751,1.954 -0.313,2.822c0.078,0.171 0.156,0.281 0.203,0.343c0.093,-0.024 0.185,-0.056 0.274,-0.093c1.07,-0.438 2.774,-1.837 4.962,-4.47c1.245,-1.524 2.418,-3.104 3.517,-4.736Zm12.816,-10.394c2.61,-0.609 5.243,-1.112 7.893,-1.508c-1.423,-2.178 -2.753,-4.415 -3.985,-6.705c-1.226,2.771 -2.529,5.507 -3.908,8.205l0,0.008Zm19.115,3.517c1.173,1.273 2.313,2.344 3.4,3.204c1.875,1.485 3.18,1.977 3.892,2c0.19,0.025 0.383,-0.016 0.547,-0.117c0.325,-0.257 0.578,-0.593 0.734,-0.977c0.278,-0.476 0.436,-1.012 0.461,-1.563c-0.004,-0.183 -0.077,-0.359 -0.203,-0.492c-0.406,-0.485 -1.563,-1.188 -4.048,-1.633c-1.581,-0.265 -3.18,-0.403 -4.783,-0.415l0,-0.007Zm-15.551,-27.399c0.657,-2.122 1.179,-4.283 1.563,-6.471c0.242,-1.469 0.336,-2.68 0.297,-3.634c0.002,-0.526 -0.083,-1.049 -0.25,-1.547c-0.391,0.048 -0.773,0.154 -1.134,0.312c-0.679,0.274 -1.234,0.829 -1.531,2.212c-0.313,1.5 -0.235,3.665 0.359,6.424c0.188,0.867 0.422,1.774 0.704,2.704l-0.008,-0Z" style="fill:#ef0707;fill-rule:nonzero;"/><g><path d="M3244.5,1985.14l0,36.69l10.59,-9.592l10.591,9.592l-0,-36.69l-21.181,-0Z" style="fill:#fff;"/><path d="M3244.5,1983.75c-0.772,-0 -1.397,0.625 -1.397,1.397l-0,36.69c-0,0.552 0.326,1.053 0.831,1.277c0.505,0.224 1.094,0.129 1.504,-0.242l9.652,-8.742c0,-0 9.653,8.742 9.653,8.742c0.409,0.371 0.999,0.466 1.504,0.242c0.505,-0.224 0.831,-0.725 0.831,-1.277l-0,-36.69c-0,-0.772 -0.626,-1.397 -1.397,-1.397l-21.181,-0Zm1.397,2.794l18.387,-0c-0,-0 -0,32.142 -0,32.142c-0,0 -8.256,-7.477 -8.256,-7.477c-0.532,-0.482 -1.343,-0.482 -1.875,0l-8.256,7.477c0,0 0,-32.142 0,-32.142Z"/><path d="M3255.09,1945.67c-1.709,2.23 -3.828,3.954 -6.359,5.174c-2.801,0.209 -5.499,-0.225 -8.094,-1.301c-0.365,2.785 -1.339,5.339 -2.921,7.66c-2.321,1.582 -4.874,2.555 -7.66,2.921c1.077,2.594 1.51,5.292 1.301,8.094c-1.219,2.53 -2.944,4.65 -5.173,6.359c2.229,1.709 3.954,3.829 5.173,6.359c0.209,2.802 -0.224,5.5 -1.301,8.094c2.786,0.366 5.339,1.339 7.66,2.921c1.582,2.321 2.556,4.875 2.921,7.66c2.595,-1.076 5.293,-1.51 8.094,-1.3c2.531,1.219 4.65,2.943 6.359,5.173c1.709,-2.23 3.829,-3.954 6.36,-5.173c2.801,-0.21 5.499,0.224 8.094,1.3c0.365,-2.785 1.339,-5.339 2.921,-7.66c2.321,-1.582 4.874,-2.555 7.659,-2.921c-1.076,-2.594 -1.509,-5.292 -1.3,-8.094c1.219,-2.53 2.944,-4.65 5.173,-6.359c-2.229,-1.709 -3.954,-3.829 -5.173,-6.359c-0.209,-2.802 0.224,-5.5 1.3,-8.094c-2.785,-0.366 -5.338,-1.339 -7.659,-2.921c-1.582,-2.321 -2.556,-4.875 -2.921,-7.66c-2.595,1.076 -5.293,1.51 -8.094,1.301c-2.531,-1.22 -4.651,-2.944 -6.36,-5.174Zm0,23.126c3.191,-0 5.782,2.59 5.782,5.781c-0,3.191 -2.591,5.781 -5.782,5.781c-3.19,0 -5.781,-2.59 -5.781,-5.781c0,-3.191 2.591,-5.781 5.781,-5.781Z" style="fill:#ef0707;"/><path d="M3256.2,1944.82c-0.264,-0.345 -0.674,-0.547 -1.109,-0.547c-0.434,0 -0.844,0.202 -1.108,0.547c-1.519,1.982 -3.391,3.531 -5.615,4.646c-2.492,0.149 -4.888,-0.256 -7.195,-1.213c-0.401,-0.167 -0.857,-0.137 -1.233,0.08c-0.377,0.217 -0.631,0.598 -0.687,1.028c-0.325,2.476 -1.171,4.753 -2.54,6.831c-2.083,1.375 -4.361,2.222 -6.837,2.546c-0.431,0.057 -0.811,0.311 -1.028,0.687c-0.218,0.376 -0.248,0.833 -0.081,1.234c0.957,2.306 1.362,4.701 1.216,7.185c-1.117,2.232 -2.666,4.105 -4.648,5.624c-0.345,0.265 -0.547,0.674 -0.547,1.109c-0,0.435 0.202,0.844 0.547,1.109c1.981,1.519 3.53,3.391 4.645,5.615c0.149,2.491 -0.256,4.887 -1.213,7.194c-0.167,0.402 -0.137,0.858 0.081,1.234c0.217,0.376 0.597,0.63 1.028,0.687c2.476,0.324 4.752,1.171 6.83,2.539c1.375,2.084 2.222,4.361 2.547,6.838c0.056,0.431 0.31,0.811 0.687,1.028c0.376,0.217 0.832,0.247 1.233,0.08c2.307,-0.956 4.702,-1.361 7.185,-1.215c2.233,1.117 4.105,2.665 5.625,4.648c0.264,0.345 0.674,0.547 1.108,0.547c0.435,-0 0.845,-0.202 1.109,-0.547c1.519,-1.982 3.391,-3.53 5.615,-4.646c2.492,-0.149 4.887,0.257 7.195,1.213c0.401,0.167 0.857,0.137 1.233,-0.08c0.377,-0.217 0.63,-0.597 0.687,-1.028c0.325,-2.476 1.171,-4.753 2.54,-6.831c2.083,-1.375 4.361,-2.222 6.837,-2.546c0.431,-0.057 0.811,-0.311 1.028,-0.687c0.218,-0.376 0.247,-0.832 0.081,-1.234c-0.957,-2.306 -1.362,-4.701 -1.216,-7.185c1.117,-2.232 2.666,-4.105 4.648,-5.624c0.345,-0.265 0.547,-0.674 0.547,-1.109c0,-0.435 -0.202,-0.844 -0.547,-1.109c-1.982,-1.519 -3.53,-3.39 -4.645,-5.614c-0.149,-2.492 0.256,-4.888 1.213,-7.195c0.166,-0.401 0.137,-0.858 -0.081,-1.234c-0.217,-0.376 -0.597,-0.63 -1.028,-0.687c-2.476,-0.324 -4.753,-1.171 -6.83,-2.539c-1.375,-2.084 -2.222,-4.361 -2.547,-6.838c-0.057,-0.43 -0.31,-0.811 -0.687,-1.028c-0.376,-0.217 -0.832,-0.247 -1.233,-0.08c-2.307,0.956 -4.702,1.362 -7.186,1.215c-2.232,-1.116 -4.104,-2.665 -5.624,-4.648Zm-1.108,3.023c1.627,1.776 3.545,3.196 5.752,4.259c0.158,0.076 0.328,0.122 0.503,0.135c2.443,0.182 4.814,-0.088 7.111,-0.812c0.522,2.352 1.473,4.54 2.853,6.565c0.099,0.144 0.223,0.269 0.368,0.367c2.025,1.38 4.213,2.331 6.565,2.853c-0.724,2.298 -0.995,4.668 -0.812,7.112c0.013,0.174 0.058,0.345 0.134,0.502c1.064,2.207 2.484,4.125 4.259,5.753c-1.775,1.628 -3.195,3.546 -4.259,5.753c-0.076,0.158 -0.121,0.328 -0.134,0.502c-0.183,2.444 0.088,4.814 0.812,7.112c-2.352,0.522 -4.54,1.473 -6.565,2.853c-0.145,0.098 -0.269,0.223 -0.368,0.367c-1.38,2.025 -2.331,4.213 -2.853,6.565c-2.297,-0.724 -4.668,-0.994 -7.111,-0.812c-0.175,0.013 -0.345,0.059 -0.503,0.135c-2.207,1.064 -4.125,2.483 -5.753,4.259c-1.628,-1.776 -3.545,-3.195 -5.752,-4.259c-0.158,-0.076 -0.328,-0.122 -0.503,-0.135c-2.443,-0.182 -4.814,0.088 -7.112,0.812c-0.522,-2.352 -1.472,-4.54 -2.852,-6.565c-0.099,-0.144 -0.223,-0.269 -0.368,-0.367c-2.025,-1.38 -4.213,-2.331 -6.565,-2.853c0.724,-2.298 0.995,-4.668 0.812,-7.112c-0.013,-0.174 -0.059,-0.344 -0.134,-0.502c-1.064,-2.207 -2.484,-4.125 -4.26,-5.753c1.776,-1.628 3.196,-3.546 4.26,-5.753c0.075,-0.157 0.121,-0.328 0.134,-0.502c0.183,-2.444 -0.088,-4.814 -0.812,-7.112c2.352,-0.522 4.54,-1.473 6.565,-2.853c0.145,-0.098 0.269,-0.223 0.368,-0.367c1.38,-2.025 2.33,-4.213 2.852,-6.565c2.298,0.724 4.669,0.994 7.112,0.812c0.175,-0.013 0.345,-0.059 0.503,-0.135c2.207,-1.063 4.124,-2.483 5.752,-4.259l0.001,0Zm-0.001,19.556c-3.961,-0 -7.178,3.216 -7.178,7.178c-0,3.962 3.217,7.178 7.178,7.178c3.962,0 7.179,-3.216 7.179,-7.178c-0,-3.962 -3.217,-7.178 -7.179,-7.178Zm0,2.794c2.42,-0 4.385,1.964 4.385,4.384c-0,2.42 -1.965,4.384 -4.385,4.384c-2.419,0 -4.384,-1.964 -4.384,-4.384c0,-2.42 1.965,-4.384 4.384,-4.384Z"/><circle cx="3255.09" cy="1974.58" r="19.989" style="fill:#ef0707;"/><path d="M3241.62,1977.52l7.015,7.016c1.091,1.091 2.861,1.091 3.952,-0l15.966,-15.966c1.091,-1.091 1.091,-2.861 0,-3.952c-1.09,-1.09 -2.861,-1.09 -3.951,0l-13.991,13.991c0,-0 -5.04,-5.04 -5.04,-5.04c-1.09,-1.091 -2.861,-1.091 -3.951,-0c-1.091,1.09 -1.091,2.861 -0,3.951Z" style="fill:#fff;"/></g></g><path d="M3476.35,2058.42c-0,-4.023 -3.295,-7.289 -7.354,-7.289l-481.258,-0c-4.058,-0 -7.353,3.266 -7.353,7.289l0,5.161c0,13.913 28.588,15.586 32.647,15.586l430.671,-0c4.058,-0 32.647,0.394 32.647,-15.586l-0,-5.161Z" style="fill:#fff;"/><path d="M3479.73,2058.42c0,-5.878 -4.799,-10.665 -10.729,-10.665l-481.258,0c-5.929,0 -10.728,4.787 -10.728,10.665l3.375,3.376l-3.375,-3.371l-0,5.156c-0,6.914 5.29,11.738 12.433,14.626c9.112,3.685 21.016,4.335 23.589,4.335c-0,0 430.671,0 430.671,0c2.569,0 14.446,0.098 23.542,-3.424c7.105,-2.75 12.48,-7.638 12.48,-15.537l0,-5.161Zm-495.965,0l0,0c0,-2.168 1.791,-3.914 3.978,-3.914c0,0 481.258,0 481.258,0c2.188,0 3.978,1.746 3.978,3.914l0,5.161c0,4.888 -3.769,7.54 -8.166,9.242c-8.149,3.155 -18.804,2.969 -21.105,2.969l-430.671,-0c-2.297,-0 -12.925,-0.555 -21.059,-3.844c-4.362,-1.764 -8.213,-4.144 -8.213,-8.367l0,-5.156l0,-0.005Z"/><path d="M3196.65,2065.24l63.445,-0" style="fill:none;stroke:#000;stroke-width:4.49px;"/></g><g><path d="M3953.3,2063.38c4.105,-0 7.437,-3.333 7.437,-7.437l-0,-280.505c-0,-4.104 -3.332,-7.436 -7.437,-7.436l-133.862,-0c-4.104,-0 -7.437,3.332 -7.437,7.436l0,280.505c0,4.104 3.333,7.437 7.437,7.437l133.862,-0Z" style="fill:#fff;"/><path d="M3953.3,2066.75c5.963,0 10.803,-4.841 10.803,-10.803c0,0 0,-280.505 0,-280.505c0,-5.962 -4.84,-10.803 -10.803,-10.803c0,0 -133.862,0 -133.862,0c-5.962,0 -10.803,4.841 -10.803,10.803c-0,0 -0,280.505 -0,280.505c-0,5.962 4.841,10.803 10.803,10.803l133.862,0Zm0,-6.733l-133.862,0c-2.246,0 -4.07,-1.824 -4.07,-4.07l-0,-280.505c-0,-2.246 1.824,-4.07 4.07,-4.07l133.862,0c2.247,0 4.07,1.824 4.07,4.07l0,280.505c0,2.246 -1.823,4.07 -4.07,4.07Z"/><g><path d="M3935.68,1866.34c0.038,-0.038 -28.707,-26.632 -28.76,-26.632l-65.913,-0c-2.177,-0 -3.945,1.767 -3.945,3.945l-0,132.361c-0,2.177 1.768,3.945 3.945,3.945l90.728,-0c2.178,-0 3.945,-1.768 3.945,-3.945l0,-109.674Z" style="fill:#fff;stroke:#000;stroke-width:2.31px;"/><path d="M3906.72,1839.7l-0,0.006c-0,7.086 2.815,13.881 7.825,18.892c5.01,5.01 11.806,7.825 18.892,7.825c1.038,0 1.646,0 1.646,0" style="fill:none;stroke:#000;stroke-width:2.31px;"/><path d="M3849.88,1905.74c-1.26,-0.504 -2.276,-1.478 -2.832,-2.716c-1.261,-2.509 -0.841,-5.018 0.517,-7.126c1.28,-1.986 3.402,-3.674 5.801,-5.09c3.039,-1.723 6.251,-3.122 9.584,-4.171c2.588,-4.652 4.882,-9.462 6.868,-14.402c-1.188,-2.698 -2.119,-5.502 -2.781,-8.375c-0.556,-2.586 -0.77,-5.147 -0.298,-7.346c0.485,-2.289 1.772,-4.346 4.204,-5.322c1.242,-0.498 2.587,-0.776 3.893,-0.498c1.33,0.283 2.464,1.15 3.085,2.36c0.569,1.061 0.776,2.302 0.821,3.479c0.045,1.216 -0.077,2.561 -0.304,3.971c-0.543,3.298 -1.746,7.334 -3.363,11.602c1.785,3.815 3.905,7.464 6.338,10.903c2.878,-0.227 5.774,-0.119 8.627,0.323c2.354,0.427 4.747,1.261 6.208,3.007c0.776,0.932 1.248,2.07 1.294,3.35c0.045,1.242 -0.304,2.471 -0.893,3.641c-0.51,1.085 -1.3,2.014 -2.289,2.691c-0.978,0.637 -2.133,0.95 -3.298,0.892c-2.141,-0.091 -4.23,-1.268 -6.034,-2.697c-2.194,-1.814 -4.171,-3.875 -5.891,-6.143c-4.374,0.496 -8.695,1.375 -12.915,2.625c-1.932,3.427 -4.138,6.693 -6.596,9.765c-1.889,2.264 -3.939,4.243 -5.995,5.09c-1.181,0.534 -2.522,0.601 -3.751,0.187Zm8.918,-12.293c-1.073,0.491 -2.069,1.009 -2.968,1.539c-2.121,1.254 -3.499,2.477 -4.184,3.537c-0.608,0.938 -0.621,1.617 -0.259,2.335c0.065,0.142 0.129,0.233 0.168,0.284c0.077,-0.02 0.153,-0.046 0.226,-0.077c0.886,-0.362 2.296,-1.52 4.107,-3.699c1.03,-1.261 2.001,-2.569 2.91,-3.919Zm10.606,-8.601c2.159,-0.504 4.338,-0.921 6.531,-1.248c-1.177,-1.802 -2.277,-3.654 -3.298,-5.549c-1.014,2.293 -2.092,4.557 -3.233,6.79l-0,0.007Zm15.818,2.91c0.97,1.054 1.914,1.94 2.813,2.651c1.552,1.229 2.632,1.636 3.221,1.656c0.157,0.02 0.317,-0.014 0.452,-0.097c0.269,-0.213 0.479,-0.491 0.608,-0.809c0.23,-0.394 0.361,-0.837 0.382,-1.293c-0.004,-0.152 -0.064,-0.297 -0.168,-0.407c-0.337,-0.401 -1.294,-0.983 -3.35,-1.352c-1.308,-0.219 -2.632,-0.333 -3.958,-0.343l0,-0.006Zm-12.869,-22.673c0.544,-1.756 0.976,-3.545 1.293,-5.355c0.201,-1.216 0.278,-2.218 0.246,-3.007c0.002,-0.435 -0.068,-0.868 -0.207,-1.281c-0.324,0.04 -0.639,0.128 -0.938,0.259c-0.562,0.226 -1.022,0.686 -1.267,1.83c-0.259,1.242 -0.194,3.033 0.297,5.316c0.155,0.718 0.349,1.468 0.582,2.238l-0.006,-0Z" style="fill:#ef0707;fill-rule:nonzero;"/><g><path d="M3899.72,1961.32l-0,30.362l8.764,-7.938l8.763,7.938l0,-30.362l-17.527,-0Z" style="fill:#fff;"/><path d="M3899.72,1960.16c-0.639,-0 -1.156,0.517 -1.156,1.156l-0,30.362c-0,0.457 0.269,0.871 0.687,1.056c0.418,0.186 0.906,0.107 1.245,-0.2l7.988,-7.234c-0,-0 7.987,7.234 7.987,7.234c0.339,0.307 0.827,0.386 1.245,0.2c0.418,-0.185 0.687,-0.599 0.687,-1.056l0,-30.362c0,-0.639 -0.517,-1.156 -1.156,-1.156l-17.527,-0Zm1.156,2.312l15.215,-0c0,-0 0,26.598 0,26.598c0,0.001 -6.831,-6.187 -6.831,-6.187c-0.441,-0.399 -1.112,-0.399 -1.552,-0l-6.832,6.188c0,-0.001 0,-26.599 0,-26.599Z"/><path d="M3908.48,1928.66c-1.415,1.845 -3.169,3.272 -5.263,4.281c-2.318,0.173 -4.551,-0.186 -6.698,-1.076c-0.302,2.304 -1.108,4.417 -2.417,6.338c-1.921,1.309 -4.034,2.115 -6.338,2.417c0.89,2.148 1.249,4.38 1.076,6.698c-1.009,2.094 -2.436,3.849 -4.281,5.263c1.845,1.414 3.272,3.168 4.281,5.262c0.173,2.318 -0.186,4.551 -1.076,6.698c2.304,0.303 4.417,1.108 6.338,2.417c1.309,1.921 2.115,4.034 2.417,6.339c2.147,-0.891 4.38,-1.249 6.698,-1.076c2.094,1.009 3.848,2.436 5.263,4.281c1.414,-1.845 3.168,-3.272 5.262,-4.281c2.318,-0.173 4.551,0.185 6.698,1.076c0.302,-2.305 1.108,-4.418 2.417,-6.339c1.921,-1.309 4.034,-2.114 6.339,-2.417c-0.891,-2.147 -1.25,-4.38 -1.076,-6.698c1.009,-2.094 2.436,-3.848 4.281,-5.262c-1.845,-1.414 -3.272,-3.169 -4.281,-5.263c-0.174,-2.318 0.185,-4.55 1.076,-6.698c-2.305,-0.302 -4.418,-1.108 -6.339,-2.417c-1.309,-1.921 -2.115,-4.034 -2.417,-6.338c-2.147,0.89 -4.38,1.249 -6.698,1.076c-2.094,-1.009 -3.848,-2.436 -5.262,-4.281Zm-0,19.137c2.64,-0 4.784,2.143 4.784,4.784c-0,2.64 -2.144,4.784 -4.784,4.784c-2.641,-0 -4.785,-2.144 -4.785,-4.784c0,-2.641 2.144,-4.784 4.785,-4.784Z" style="fill:#ef0707;"/><path d="M3909.4,1927.95c-0.219,-0.286 -0.558,-0.453 -0.917,-0.453c-0.36,-0 -0.699,0.167 -0.918,0.453c-1.256,1.638 -2.804,2.919 -4.642,3.842c-2.066,0.125 -4.049,-0.21 -5.958,-1.002c-0.332,-0.138 -0.709,-0.113 -1.021,0.066c-0.311,0.18 -0.521,0.495 -0.568,0.851c-0.269,2.048 -0.968,3.931 -2.099,5.649c-1.727,1.141 -3.611,1.842 -5.661,2.111c-0.356,0.047 -0.671,0.257 -0.851,0.568c-0.18,0.312 -0.204,0.689 -0.066,1.021c0.791,1.908 1.126,3.888 1.006,5.942c-0.925,1.851 -2.206,3.401 -3.847,4.658c-0.285,0.219 -0.452,0.558 -0.452,0.918c-0,0.359 0.167,0.699 0.452,0.917c1.639,1.257 2.92,2.804 3.843,4.643c0.125,2.066 -0.21,4.048 -1.002,5.957c-0.138,0.332 -0.114,0.71 0.066,1.021c0.18,0.312 0.495,0.522 0.851,0.569c2.047,0.268 3.93,0.968 5.649,2.099c1.141,1.726 1.842,3.611 2.111,5.66c0.047,0.357 0.257,0.671 0.568,0.851c0.312,0.18 0.689,0.205 1.021,0.067c1.907,-0.791 3.888,-1.127 5.942,-1.007c1.851,0.925 3.401,2.207 4.658,3.847c0.219,0.285 0.558,0.453 0.918,0.453c0.359,-0 0.698,-0.168 0.917,-0.453c1.256,-1.639 2.804,-2.919 4.643,-3.842c2.065,-0.125 4.048,0.21 5.957,1.002c0.332,0.138 0.71,0.113 1.021,-0.067c0.312,-0.18 0.522,-0.494 0.568,-0.851c0.269,-2.047 0.969,-3.93 2.1,-5.648c1.726,-1.142 3.611,-1.843 5.66,-2.111c0.357,-0.047 0.671,-0.257 0.851,-0.569c0.18,-0.311 0.204,-0.689 0.067,-1.021c-0.791,-1.907 -1.127,-3.888 -1.007,-5.941c0.925,-1.852 2.207,-3.401 3.847,-4.659c0.285,-0.218 0.453,-0.558 0.453,-0.917c-0,-0.36 -0.168,-0.699 -0.453,-0.918c-1.639,-1.256 -2.92,-2.803 -3.842,-4.642c-0.126,-2.066 0.21,-4.049 1.002,-5.958c0.137,-0.332 0.113,-0.709 -0.067,-1.021c-0.18,-0.311 -0.494,-0.521 -0.851,-0.568c-2.047,-0.269 -3.93,-0.968 -5.649,-2.099c-1.141,-1.727 -1.842,-3.611 -2.111,-5.661c-0.046,-0.356 -0.256,-0.671 -0.568,-0.851c-0.311,-0.179 -0.689,-0.204 -1.021,-0.066c-1.907,0.791 -3.888,1.126 -5.941,1.006c-1.852,-0.924 -3.401,-2.206 -4.659,-3.846Zm-0.917,2.501c1.347,1.469 2.934,2.644 4.76,3.524c0.131,0.063 0.272,0.101 0.416,0.112c2.022,0.151 3.984,-0.073 5.885,-0.672c0.432,1.946 1.219,3.757 2.361,5.432c0.081,0.12 0.184,0.223 0.304,0.305c1.676,1.141 3.486,1.928 5.433,2.36c-0.599,1.902 -0.823,3.864 -0.672,5.885c0.01,0.145 0.048,0.286 0.111,0.416c0.88,1.827 2.055,3.414 3.525,4.761c-1.47,1.347 -2.645,2.934 -3.525,4.76c-0.063,0.131 -0.101,0.272 -0.111,0.416c-0.151,2.022 0.073,3.984 0.672,5.885c-1.947,0.432 -3.757,1.219 -5.433,2.361c-0.12,0.081 -0.223,0.185 -0.304,0.304c-1.142,1.676 -1.929,3.487 -2.361,5.433c-1.902,-0.599 -3.863,-0.823 -5.885,-0.672c-0.144,0.011 -0.285,0.048 -0.416,0.111c-1.826,0.88 -3.413,2.055 -4.76,3.525c-1.348,-1.47 -2.935,-2.645 -4.761,-3.525c-0.13,-0.063 -0.271,-0.1 -0.416,-0.111c-2.022,-0.151 -3.983,0.073 -5.885,0.672c-0.432,-1.947 -1.219,-3.757 -2.36,-5.433c-0.082,-0.119 -0.185,-0.223 -0.305,-0.304c-1.675,-1.142 -3.486,-1.929 -5.432,-2.361c0.599,-1.901 0.823,-3.863 0.672,-5.885c-0.011,-0.144 -0.049,-0.285 -0.112,-0.416c-0.88,-1.826 -2.055,-3.413 -3.524,-4.76c1.469,-1.348 2.644,-2.934 3.524,-4.761c0.063,-0.13 0.101,-0.271 0.112,-0.416c0.151,-2.022 -0.073,-3.983 -0.672,-5.885c1.946,-0.432 3.757,-1.219 5.432,-2.36c0.12,-0.082 0.223,-0.185 0.305,-0.305c1.141,-1.675 1.928,-3.486 2.36,-5.432c1.902,0.599 3.863,0.823 5.885,0.672c0.145,-0.011 0.286,-0.049 0.416,-0.112c1.827,-0.88 3.413,-2.055 4.761,-3.524l-0,0Zm-0,16.182c-3.279,0 -5.941,2.662 -5.941,5.941c0,3.278 2.662,5.94 5.941,5.94c3.278,0 5.94,-2.662 5.94,-5.94c-0,-3.279 -2.662,-5.941 -5.94,-5.941Zm-0,2.313c2.002,-0 3.628,1.625 3.628,3.628c-0,2.002 -1.626,3.628 -3.628,3.628c-2.003,-0 -3.628,-1.626 -3.628,-3.628c-0,-2.003 1.625,-3.628 3.628,-3.628Z"/><circle cx="3908.48" cy="1952.58" r="16.541" style="fill:#ef0707;"/><path d="M3897.34,1955.01l5.805,5.806c0.903,0.903 2.367,0.903 3.27,-0l13.213,-13.212c0.902,-0.903 0.902,-2.368 -0,-3.27c-0.903,-0.903 -2.368,-0.903 -3.27,-0l-11.578,11.577c0,0 -4.17,-4.171 -4.17,-4.171c-0.903,-0.902 -2.368,-0.902 -3.27,0c-0.903,0.903 -0.903,2.368 -0,3.27Z" style="fill:#fff;"/></g></g><path d="M3875.67,1786.33c0,-1.498 1.216,-2.713 2.714,-2.713l15.965,-0c1.497,-0 2.713,1.215 2.713,2.713c0,1.498 -1.216,2.713 -2.713,2.713l-15.965,0c-1.498,0 -2.714,-1.215 -2.714,-2.713Z" style="stroke:#000;stroke-width:1.65px;"/></g><path d="M2929.47,2079.64l1130.1,-0" style="fill:none;stroke:#000;stroke-width:6.73px;"/></g><g><path d="M2100,1358.34l-0,-114.431l-73.051,0l-0,114.431l-161.578,0c-3.672,0 -6.653,2.981 -6.653,6.653l0,13.306c0,3.671 2.981,6.652 6.653,6.652l396.207,0c3.671,0 6.652,-2.981 6.652,-6.652l0,-13.306c0,-3.672 -2.981,-6.653 -6.652,-6.653l-161.578,0Z"/><path d="M2528.42,777.103c-0,-14.434 -11.719,-26.153 -26.153,-26.153l-877.577,0c-14.435,0 -26.153,11.719 -26.153,26.153l-0,470.754c-0,14.434 11.718,26.153 26.153,26.153l877.577,-0c14.434,-0 26.153,-11.719 26.153,-26.153l-0,-470.754Z" style="fill:#8ebbd7;"/><path d="M2531.78,777.103c0,-16.292 -13.227,-29.519 -29.519,-29.519l-877.577,-0c-16.293,-0 -29.52,13.227 -29.52,29.519c0,0 0,470.754 0,470.754c0,16.292 13.227,29.519 29.52,29.519l877.577,0c16.292,0 29.519,-13.227 29.519,-29.519l0,-470.754Zm-6.732,0l-0,470.754c-0,12.576 -10.211,22.786 -22.787,22.786c-0,0 -877.577,0 -877.577,0c-12.577,0 -22.787,-10.21 -22.787,-22.786l0,-470.754c0,-12.576 10.21,-22.786 22.787,-22.786c-0,-0 877.577,-0 877.577,-0c12.576,-0 22.787,10.21 22.787,22.786Z"/><path d="M2506.91,792.179c0,-13.401 -10.879,-24.28 -24.28,-24.28l-838.314,-0c-13.4,-0 -24.28,10.879 -24.28,24.28l0,437.039c0,13.401 10.88,24.28 24.28,24.28l838.314,0c13.401,0 24.28,-10.879 24.28,-24.28l0,-437.039Z" style="fill:#fff;"/><g><path d="M2382.53,903.701c0.084,-0.083 -63.662,-59.061 -63.781,-59.061l-146.174,0c-4.828,0 -8.748,3.92 -8.748,8.748l0,293.534c0,4.828 3.92,8.748 8.748,8.748l201.207,0c4.828,0 8.748,-3.92 8.748,-8.748l-0,-243.221Z" style="fill:#fff;stroke:#000;stroke-width:5.13px;"/><path d="M2318.31,844.64l0,17.605c0,11.049 4.389,21.645 12.201,29.457c7.813,7.812 18.409,12.201 29.457,12.201c11.674,0 21.243,0 21.243,0" style="fill:none;stroke:#000;stroke-width:5.13px;"/><path d="M2192.26,991.096c-2.794,-1.118 -5.048,-3.278 -6.281,-6.023c-2.797,-5.565 -1.865,-11.13 1.147,-15.805c2.84,-4.403 7.544,-8.146 12.864,-11.287c6.74,-3.822 13.864,-6.923 21.254,-9.25c5.74,-10.317 10.827,-20.985 15.231,-31.939c-2.633,-5.983 -4.698,-12.201 -6.167,-18.572c-1.233,-5.737 -1.706,-11.416 -0.659,-16.292c1.075,-5.077 3.929,-9.637 9.322,-11.803c2.753,-1.104 5.736,-1.721 8.633,-1.104c2.949,0.628 5.464,2.552 6.841,5.234c1.262,2.352 1.721,5.106 1.822,7.716c0.1,2.696 -0.173,5.679 -0.675,8.806c-1.204,7.314 -3.872,16.263 -7.457,25.729c3.957,8.461 8.66,16.553 14.055,24.179c6.383,-0.504 12.803,-0.263 19.131,0.718c5.221,0.946 10.527,2.796 13.768,6.668c1.721,2.066 2.768,4.59 2.868,7.429c0.101,2.754 -0.674,5.479 -1.979,8.075c-1.13,2.405 -2.883,4.465 -5.077,5.966c-2.168,1.414 -4.728,2.107 -7.314,1.979c-4.747,-0.201 -9.379,-2.811 -13.381,-5.981c-4.865,-4.023 -9.249,-8.594 -13.065,-13.624c-9.698,1.101 -19.281,3.049 -28.64,5.823c-4.285,7.6 -9.177,14.842 -14.628,21.655c-4.188,5.02 -8.734,9.408 -13.295,11.287c-2.619,1.185 -5.593,1.334 -8.318,0.416Zm19.777,-27.263c-2.381,1.09 -4.589,2.237 -6.583,3.413c-4.704,2.782 -7.758,5.493 -9.279,7.845c-1.348,2.079 -1.376,3.585 -0.573,5.177c0.143,0.316 0.287,0.516 0.373,0.631c0.171,-0.046 0.338,-0.103 0.502,-0.172c1.964,-0.803 5.091,-3.37 9.106,-8.203c2.284,-2.796 4.438,-5.697 6.454,-8.691Zm23.52,-19.075c4.789,-1.117 9.622,-2.041 14.485,-2.767c-2.611,-3.997 -5.051,-8.102 -7.314,-12.306c-2.249,5.086 -4.641,10.107 -7.171,15.059l0,0.014Zm35.08,6.454c2.151,2.338 4.245,4.303 6.238,5.88c3.442,2.725 5.837,3.629 7.142,3.672c0.35,0.045 0.704,-0.031 1.004,-0.216c0.597,-0.471 1.061,-1.088 1.348,-1.792c0.51,-0.874 0.801,-1.858 0.847,-2.869c-0.009,-0.336 -0.142,-0.658 -0.373,-0.903c-0.746,-0.889 -2.869,-2.18 -7.429,-2.997c-2.901,-0.486 -5.836,-0.74 -8.777,-0.761l-0,-0.014Zm-28.54,-50.281c1.207,-3.894 2.165,-7.86 2.868,-11.875c0.445,-2.696 0.617,-4.919 0.545,-6.669c0.004,-0.965 -0.151,-1.925 -0.459,-2.84c-0.717,0.089 -1.418,0.282 -2.079,0.574c-1.248,0.502 -2.266,1.52 -2.811,4.059c-0.574,2.753 -0.43,6.726 0.66,11.788c0.344,1.592 0.774,3.256 1.29,4.963l-0.014,-0Z" style="fill:#ef0707;fill-rule:nonzero;"/></g><g><path d="M1957.43,903.023c0.084,-0.084 -63.662,-59.061 -63.781,-59.061l-146.173,-0c-4.829,-0 -8.749,3.92 -8.749,8.748l0,293.534c0,4.828 3.92,8.748 8.749,8.748l201.206,-0c4.828,-0 8.748,-3.92 8.748,-8.748l0,-243.221Z" style="fill:#fff;stroke:#000;stroke-width:5.13px;"/><path d="M1893.22,843.962l-0,17.605c-0,11.048 4.388,21.644 12.201,29.457c7.812,7.812 18.408,12.201 29.456,12.201c11.674,-0 21.243,-0 21.243,-0" style="fill:none;stroke:#000;stroke-width:5.13px;"/><path d="M1767.17,990.418c-2.794,-1.118 -5.047,-3.279 -6.281,-6.024c-2.797,-5.564 -1.865,-11.129 1.147,-15.804c2.84,-4.403 7.544,-8.146 12.865,-11.287c6.739,-3.822 13.863,-6.923 21.254,-9.25c5.739,-10.318 10.826,-20.985 15.23,-31.939c-2.633,-5.984 -4.698,-12.202 -6.166,-18.572c-1.234,-5.737 -1.707,-11.416 -0.66,-16.292c1.076,-5.077 3.929,-9.638 9.322,-11.803c2.754,-1.105 5.737,-1.721 8.634,-1.105c2.949,0.628 5.464,2.552 6.84,5.235c1.263,2.352 1.721,5.106 1.822,7.716c0.1,2.696 -0.172,5.679 -0.674,8.805c-1.205,7.315 -3.872,16.264 -7.458,25.729c3.957,8.462 8.66,16.554 14.055,24.18c6.383,-0.504 12.804,-0.263 19.132,0.717c5.22,0.947 10.526,2.797 13.767,6.669c1.721,2.065 2.768,4.589 2.869,7.429c0.1,2.753 -0.674,5.478 -1.979,8.074c-1.131,2.406 -2.884,4.466 -5.077,5.966c-2.168,1.414 -4.729,2.107 -7.315,1.979c-4.747,-0.2 -9.379,-2.811 -13.38,-5.98c-4.866,-4.023 -9.25,-8.595 -13.065,-13.624c-9.699,1.1 -19.282,3.049 -28.64,5.822c-4.286,7.601 -9.178,14.843 -14.629,21.656c-4.188,5.019 -8.734,9.408 -13.294,11.287c-2.62,1.185 -5.594,1.333 -8.319,0.416Zm19.777,-27.264c-2.38,1.09 -4.589,2.238 -6.582,3.414c-4.704,2.782 -7.759,5.492 -9.279,7.844c-1.348,2.08 -1.377,3.586 -0.574,5.178c0.143,0.315 0.287,0.516 0.373,0.631c0.171,-0.046 0.339,-0.103 0.502,-0.172c1.965,-0.803 5.091,-3.371 9.107,-8.204c2.284,-2.796 4.437,-5.696 6.453,-8.691Zm23.521,-19.074c4.789,-1.118 9.621,-2.041 14.485,-2.768c-2.612,-3.996 -5.052,-8.101 -7.315,-12.305c-2.249,5.085 -4.64,10.107 -7.17,15.059l-0,0.014Zm35.079,6.454c2.151,2.337 4.245,4.302 6.239,5.88c3.442,2.725 5.837,3.628 7.142,3.671c0.349,0.046 0.704,-0.03 1.004,-0.215c0.596,-0.471 1.061,-1.089 1.348,-1.793c0.51,-0.873 0.8,-1.857 0.846,-2.868c-0.008,-0.337 -0.141,-0.659 -0.373,-0.903c-0.746,-0.89 -2.868,-2.18 -7.429,-2.998c-2.901,-0.485 -5.836,-0.739 -8.777,-0.76l0,-0.014Zm-28.54,-50.282c1.207,-3.893 2.165,-7.859 2.869,-11.875c0.444,-2.696 0.616,-4.919 0.545,-6.668c0.004,-0.966 -0.151,-1.925 -0.459,-2.84c-0.718,0.089 -1.418,0.282 -2.08,0.574c-1.247,0.502 -2.266,1.52 -2.811,4.058c-0.573,2.754 -0.43,6.727 0.66,11.789c0.344,1.592 0.774,3.256 1.291,4.962l-0.015,0Z" style="fill:#ef0707;fill-rule:nonzero;"/><g><path d="M1866.68,1113.67l0,67.332l19.435,-17.603l19.435,17.603l0,-67.332l-38.87,-0Z" style="fill:#fff;"/><path d="M1866.68,1111.1c-1.416,-0 -2.564,1.148 -2.564,2.564l0,67.332c0,1.014 0.598,1.933 1.525,2.344c0.927,0.411 2.009,0.237 2.76,-0.444l17.714,-16.044c0,-0 17.714,16.044 17.714,16.044c0.752,0.681 1.834,0.855 2.761,0.444c0.926,-0.411 1.524,-1.33 1.524,-2.344l0,-67.332c0,-1.416 -1.148,-2.564 -2.564,-2.564l-38.87,-0Zm2.564,5.128l33.742,-0c0,-0 0,58.986 0,58.986c0,0 -15.15,-13.722 -15.15,-13.722c-0.977,-0.885 -2.465,-0.885 -3.442,0l-15.15,13.722l-0,-58.986Z"/><path d="M1886.11,1041.23c-3.136,4.092 -7.026,7.256 -11.67,9.494c-5.141,0.384 -10.092,-0.411 -14.854,-2.386c-0.671,5.111 -2.457,9.797 -5.36,14.057c-4.26,2.903 -8.946,4.689 -14.057,5.36c1.975,4.762 2.77,9.713 2.386,14.854c-2.238,4.644 -5.402,8.534 -9.494,11.67c4.092,3.136 7.256,7.027 9.494,11.671c0.384,5.14 -0.411,10.092 -2.386,14.853c5.111,0.671 9.797,2.458 14.057,5.36c2.903,4.261 4.689,8.946 5.36,14.058c4.762,-1.975 9.713,-2.771 14.854,-2.387c4.644,2.238 8.534,5.402 11.67,9.494c3.136,-4.092 7.027,-7.256 11.671,-9.494c5.14,-0.384 10.092,0.412 14.853,2.387c0.671,-5.112 2.458,-9.797 5.361,-14.058c4.26,-2.902 8.945,-4.689 14.057,-5.36c-1.975,-4.761 -2.771,-9.713 -2.387,-14.853c2.238,-4.644 5.402,-8.535 9.494,-11.671c-4.092,-3.136 -7.256,-7.026 -9.494,-11.67c-0.384,-5.141 0.412,-10.092 2.387,-14.854c-5.112,-0.671 -9.797,-2.457 -14.057,-5.36c-2.903,-4.26 -4.69,-8.946 -5.361,-14.057c-4.761,1.975 -9.713,2.77 -14.853,2.386c-4.644,-2.238 -8.535,-5.402 -11.671,-9.494Zm0,42.439c5.856,0 10.61,4.754 10.61,10.61c-0,5.856 -4.754,10.61 -10.61,10.61c-5.856,-0 -10.61,-4.754 -10.61,-10.61c0,-5.856 4.754,-10.61 10.61,-10.61Z" style="fill:#ef0707;"/><path d="M1888.15,1039.67c-0.485,-0.633 -1.237,-1.004 -2.035,-1.004c-0.797,-0 -1.549,0.371 -2.035,1.004c-2.788,3.636 -6.222,6.478 -10.303,8.525c-4.573,0.273 -8.97,-0.47 -13.204,-2.227c-0.737,-0.305 -1.573,-0.251 -2.264,0.148c-0.691,0.399 -1.157,1.096 -1.26,1.887c-0.596,4.544 -2.15,8.722 -4.661,12.535c-3.824,2.523 -8.003,4.078 -12.548,4.674c-0.791,0.103 -1.488,0.569 -1.887,1.26c-0.398,0.691 -0.453,1.527 -0.148,2.264c1.756,4.233 2.5,8.628 2.232,13.186c-2.05,4.097 -4.892,7.533 -8.53,10.321c-0.633,0.485 -1.004,1.238 -1.004,2.035c-0,0.798 0.371,1.55 1.004,2.035c3.636,2.788 6.478,6.222 8.525,10.304c0.273,4.573 -0.47,8.969 -2.227,13.203c-0.305,0.737 -0.25,1.574 0.148,2.264c0.399,0.691 1.096,1.157 1.887,1.261c4.544,0.595 8.722,2.149 12.535,4.66c2.523,3.824 4.078,8.003 4.674,12.548c0.103,0.791 0.569,1.488 1.26,1.887c0.691,0.399 1.527,0.453 2.264,0.148c4.233,-1.756 8.628,-2.5 13.186,-2.231c4.097,2.049 7.533,4.892 10.321,8.53c0.486,0.632 1.238,1.004 2.035,1.004c0.798,-0 1.55,-0.372 2.035,-1.004c2.788,-3.637 6.222,-6.479 10.304,-8.526c4.573,-0.273 8.969,0.471 13.203,2.227c0.737,0.305 1.574,0.251 2.264,-0.148c0.691,-0.399 1.157,-1.096 1.261,-1.887c0.595,-4.543 2.149,-8.722 4.66,-12.535c3.824,-2.523 8.003,-4.077 12.548,-4.673c0.791,-0.104 1.488,-0.57 1.887,-1.261c0.399,-0.69 0.453,-1.527 0.148,-2.264c-1.756,-4.233 -2.499,-8.628 -2.231,-13.186c2.049,-4.097 4.892,-7.532 8.53,-10.321c0.633,-0.485 1.004,-1.237 1.004,-2.035c-0,-0.797 -0.371,-1.55 -1.004,-2.035c-3.637,-2.788 -6.479,-6.222 -8.526,-10.304c-0.273,-4.572 0.471,-8.969 2.227,-13.203c0.305,-0.737 0.251,-1.573 -0.148,-2.264c-0.399,-0.691 -1.096,-1.157 -1.887,-1.26c-4.543,-0.596 -8.722,-2.15 -12.535,-4.661c-2.523,-3.824 -4.077,-8.003 -4.673,-12.548c-0.104,-0.791 -0.57,-1.488 -1.261,-1.887c-0.69,-0.399 -1.527,-0.453 -2.264,-0.148c-4.233,1.756 -8.628,2.5 -13.186,2.231c-4.097,-2.049 -7.532,-4.892 -10.321,-8.529Zm-2.035,5.547c2.988,3.259 6.507,5.864 10.558,7.816c0.289,0.139 0.602,0.223 0.922,0.247c4.484,0.335 8.834,-0.162 13.051,-1.49c0.958,4.316 2.703,8.332 5.235,12.047c0.181,0.266 0.409,0.495 0.675,0.675c3.716,2.533 7.732,4.278 12.048,5.235c-1.329,4.217 -1.826,8.568 -1.491,13.052c0.024,0.32 0.108,0.632 0.247,0.922c1.952,4.05 4.558,7.57 7.817,10.557c-3.259,2.988 -5.865,6.507 -7.817,10.558c-0.139,0.289 -0.223,0.602 -0.247,0.922c-0.335,4.484 0.162,8.834 1.491,13.051c-4.317,0.958 -8.332,2.703 -12.048,5.235c-0.266,0.181 -0.494,0.409 -0.675,0.675c-2.532,3.716 -4.277,7.731 -5.235,12.048c-4.217,-1.329 -8.567,-1.826 -13.051,-1.491c-0.32,0.024 -0.633,0.108 -0.922,0.247c-4.051,1.952 -7.57,4.558 -10.558,7.817c-2.987,-3.259 -6.507,-5.865 -10.557,-7.817c-0.29,-0.139 -0.602,-0.223 -0.922,-0.247c-4.484,-0.335 -8.835,0.162 -13.052,1.491c-0.957,-4.317 -2.702,-8.332 -5.235,-12.048c-0.18,-0.266 -0.409,-0.494 -0.674,-0.675c-3.716,-2.532 -7.732,-4.277 -12.048,-5.235c1.328,-4.217 1.825,-8.567 1.49,-13.051c-0.024,-0.32 -0.108,-0.633 -0.247,-0.922c-1.952,-4.051 -4.557,-7.57 -7.816,-10.558c3.259,-2.988 5.864,-6.507 7.816,-10.557c0.139,-0.29 0.223,-0.602 0.247,-0.922c0.335,-4.484 -0.162,-8.835 -1.49,-13.052c4.316,-0.958 8.332,-2.703 12.048,-5.235c0.265,-0.18 0.494,-0.409 0.674,-0.675c2.533,-3.715 4.278,-7.731 5.235,-12.047c4.217,1.328 8.568,1.825 13.052,1.49c0.32,-0.024 0.632,-0.108 0.922,-0.247c4.05,-1.952 7.57,-4.557 10.557,-7.816l0,-0Zm0,35.887c-7.271,0 -13.173,5.903 -13.173,13.174c-0,7.271 5.902,13.174 13.173,13.174c7.271,-0 13.174,-5.903 13.174,-13.174c-0,-7.271 -5.903,-13.174 -13.174,-13.174Zm0,5.128c4.441,0 8.046,3.605 8.046,8.046c-0,4.441 -3.605,8.046 -8.046,8.046c-4.441,-0 -8.046,-3.605 -8.046,-8.046c0,-4.441 3.605,-8.046 8.046,-8.046Z"/><circle cx="1886.11" cy="1094.28" r="36.683" style="fill:#ef0707;"/><path d="M1861.4,1099.68l12.875,12.874c2.003,2.003 5.249,2.003 7.252,0l29.301,-29.3c2.001,-2.002 2.001,-5.251 -0,-7.252c-2.001,-2.001 -5.251,-2.001 -7.252,-0l-25.675,25.675c0,-0 -9.249,-9.249 -9.249,-9.249c-2.001,-2.001 -5.25,-2.001 -7.252,-0c-2.001,2.001 -2.001,5.25 0,7.252Z" style="fill:#fff;"/></g></g><path d="M2063.47,767.899l0,485.599" style="fill:none;stroke:#000;stroke-width:6.73px;"/></g><g><g><rect x="3311.96" y="443.086" width="49.639" height="140.139" style="stroke:#000;stroke-width:10.44px;"/><path d="M3020.84,125.884c-0,-9.808 7.963,-17.771 17.771,-17.771l596.324,-0c9.808,-0 17.771,7.963 17.771,17.771l-0,319.882c-0,9.809 -7.963,17.772 -17.771,17.772l-596.324,-0c-9.808,-0 -17.771,-7.963 -17.771,-17.772l-0,-319.882Z" style="fill:#fff;"/><path d="M3017.48,125.884l0,319.882c0,11.667 9.472,21.138 21.138,21.138c0,0 596.324,0 596.324,0c11.666,0 21.137,-9.471 21.137,-21.138c0,0 0,-319.882 0,-319.882c0,-11.666 -9.471,-21.138 -21.137,-21.138c-0,0 -596.324,0 -596.324,0c-11.666,0 -21.138,9.472 -21.138,21.138Zm6.733,0c0,-7.95 6.455,-14.405 14.405,-14.405l596.324,0c7.95,0 14.405,6.455 14.405,14.405l-0,319.882c-0,7.951 -6.455,14.405 -14.405,14.405l-596.324,0c-7.95,0 -14.405,-6.454 -14.405,-14.405l0,-319.882Z"/><g><path d="M3431.41,191.097c0.072,-0.072 -55.096,-51.114 -55.199,-51.114l-126.504,0c-4.179,0 -7.571,3.393 -7.571,7.571l0,254.036c0,4.178 3.392,7.571 7.571,7.571l174.132,-0c4.178,-0 7.571,-3.393 7.571,-7.571l-0,-210.493Z" style="fill:#fff;stroke:#000;stroke-width:4.44px;"/><path d="M3353.22,351.494c-0,-5.334 0.811,-9.886 2.435,-13.654c1.623,-3.769 3.536,-6.783 5.739,-9.045c2.204,-2.261 5.102,-4.725 8.697,-7.392c3.711,-2.667 6.465,-5.102 8.262,-7.305c1.797,-2.203 2.696,-4.928 2.696,-8.175c-0,-8.696 -5.624,-13.045 -16.872,-13.045c-6.609,0 -11.131,1.653 -13.566,4.957c-2.435,3.305 -3.653,6.929 -3.653,10.871l0.174,4.696l-24.177,0c-0.464,-1.971 -0.696,-4 -0.696,-6.087c0,-6.61 1.653,-12.61 4.958,-18.002c3.304,-5.392 8.232,-9.654 14.784,-12.785c6.551,-3.13 14.523,-4.696 23.916,-4.696c12.871,0 22.93,2.638 30.177,7.914c7.247,5.276 10.871,12.958 10.871,23.046c-0,5.218 -0.841,9.712 -2.522,13.48c-1.681,3.769 -3.711,6.842 -6.088,9.219c-2.377,2.377 -5.537,5.073 -9.479,8.088c-4.754,3.826 -8.262,7.131 -10.523,9.914c-2.261,2.783 -3.392,6.319 -3.392,10.61l0,4.87l-21.741,-0l-0,-7.479Zm-1.044,17.915l24.003,-0l-0,23.829l-24.003,-0l-0,-23.829Z" style="fill-rule:nonzero;"/><path d="M3375.84,139.983l0,9.631c0,23.007 18.651,41.658 41.658,41.658c7.389,-0 12.779,-0 12.779,-0" style="fill:none;stroke:#000;stroke-width:4.44px;"/><path d="M3266.76,266.732c-2.418,-0.967 -4.369,-2.837 -5.436,-5.213c-2.421,-4.816 -1.614,-9.632 0.992,-13.678c2.458,-3.81 6.529,-7.05 11.134,-9.768c5.833,-3.308 11.998,-5.991 18.394,-8.005c4.967,-8.93 9.369,-18.161 13.181,-27.641c-2.279,-5.179 -4.066,-10.56 -5.337,-16.074c-1.067,-4.964 -1.477,-9.879 -0.571,-14.099c0.931,-4.394 3.401,-8.341 8.068,-10.215c2.383,-0.956 4.965,-1.49 7.472,-0.956c2.552,0.544 4.728,2.209 5.92,4.53c1.092,2.036 1.49,4.419 1.576,6.678c0.087,2.333 -0.149,4.915 -0.583,7.621c-1.043,6.33 -3.351,14.075 -6.454,22.266c3.424,7.324 7.495,14.327 12.163,20.927c5.525,-0.437 11.081,-0.228 16.558,0.62c4.518,0.819 9.11,2.42 11.915,5.772c1.489,1.787 2.395,3.971 2.482,6.429c0.087,2.383 -0.583,4.741 -1.712,6.988c-0.979,2.081 -2.496,3.864 -4.394,5.163c-1.877,1.224 -4.093,1.824 -6.33,1.713c-4.109,-0.174 -8.118,-2.433 -11.58,-5.176c-4.211,-3.481 -8.005,-7.438 -11.307,-11.791c-8.394,0.953 -16.688,2.639 -24.787,5.039c-3.709,6.578 -7.942,12.845 -12.66,18.742c-3.624,4.344 -7.558,8.142 -11.505,9.768c-2.267,1.025 -4.841,1.154 -7.199,0.36Zm17.116,-23.595c-2.061,0.943 -3.972,1.936 -5.697,2.954c-4.071,2.408 -6.715,4.754 -8.031,6.789c-1.166,1.8 -1.191,3.103 -0.496,4.481c0.124,0.273 0.248,0.447 0.322,0.546c0.149,-0.039 0.294,-0.089 0.435,-0.149c1.7,-0.695 4.406,-2.917 7.881,-7.099c1.977,-2.42 3.841,-4.93 5.586,-7.522Zm20.355,-16.507c4.144,-0.968 8.327,-1.767 12.536,-2.396c-2.26,-3.458 -4.372,-7.011 -6.33,-10.649c-1.947,4.401 -4.016,8.747 -6.206,13.032l-0,0.013Zm30.359,5.585c1.862,2.023 3.674,3.723 5.399,5.089c2.979,2.358 5.052,3.14 6.181,3.177c0.302,0.04 0.609,-0.026 0.869,-0.186c0.516,-0.408 0.918,-0.942 1.167,-1.552c0.441,-0.756 0.692,-1.608 0.732,-2.482c-0.007,-0.291 -0.122,-0.57 -0.323,-0.782c-0.645,-0.769 -2.482,-1.886 -6.429,-2.594c-2.511,-0.42 -5.051,-0.64 -7.596,-0.658l-0,-0.012Zm-24.699,-43.516c1.044,-3.369 1.873,-6.802 2.482,-10.277c0.385,-2.333 0.534,-4.257 0.472,-5.771c0.003,-0.836 -0.131,-1.666 -0.398,-2.458c-0.62,0.077 -1.227,0.244 -1.799,0.497c-1.08,0.434 -1.961,1.315 -2.433,3.512c-0.496,2.383 -0.372,5.821 0.571,10.203c0.298,1.378 0.67,2.817 1.117,4.294l-0.012,0Z" style="fill-rule:nonzero;"/></g><path d="M3225.73,583.225l222.087,-0" style="fill:none;stroke:#000;stroke-width:6.73px;"/></g><g><path d="M3497.42,330.792c-0,-6.685 5.427,-12.112 12.113,-12.112l406.445,-0c6.686,-0 12.113,5.427 12.113,12.112l0,218.028c0,6.685 -5.427,12.112 -12.113,12.112l-406.445,0c-6.686,0 -12.113,-5.427 -12.113,-12.112l-0,-218.028Z" style="fill:#fff;"/><path d="M3494.05,330.792l-0,218.028c-0,8.543 6.935,15.479 15.479,15.479c-0,-0 406.445,-0 406.445,-0c8.544,-0 15.48,-6.936 15.48,-15.479l-0,-218.028c-0,-8.543 -6.936,-15.479 -15.48,-15.479c0,0 -406.445,0 -406.445,0c-8.544,0 -15.479,6.936 -15.479,15.479Zm6.732,0c0,-4.827 3.919,-8.746 8.747,-8.746l406.445,0c4.828,0 8.747,3.919 8.747,8.746c-0,0 -0,218.028 -0,218.028c-0,4.827 -3.919,8.746 -8.747,8.746l-406.445,-0c-4.828,-0 -8.747,-3.919 -8.747,-8.746c0,-0 0,-218.028 0,-218.028Z"/><g><path d="M3772.34,380.162c0.046,-0.046 -34.69,-32.183 -34.755,-32.183l-79.651,-0c-2.631,-0 -4.767,2.136 -4.767,4.767l-0,159.949c-0,2.631 2.136,4.767 4.767,4.767l109.639,0c2.631,0 4.767,-2.136 4.767,-4.767l0,-132.533Z" style="fill:#fff;stroke:#000;stroke-width:2.79px;"/><path d="M3737.35,347.979l0,0.001c0,8.564 3.402,16.778 9.458,22.834c6.056,6.056 14.27,9.458 22.834,9.458c1.251,-0 1.984,-0 1.984,-0" style="fill:none;stroke:#000;stroke-width:2.79px;"/><path d="M3668.66,427.784c-1.522,-0.609 -2.75,-1.787 -3.423,-3.282c-1.524,-3.032 -1.016,-6.065 0.626,-8.612c1.547,-2.399 4.11,-4.439 7.009,-6.151c3.673,-2.082 7.555,-3.772 11.582,-5.04c3.128,-5.622 5.899,-11.435 8.299,-17.404c-1.435,-3.26 -2.56,-6.649 -3.36,-10.12c-0.672,-3.126 -0.93,-6.221 -0.359,-8.878c0.586,-2.766 2.141,-5.251 5.079,-6.431c1.501,-0.602 3.126,-0.938 4.705,-0.602c1.607,0.342 2.977,1.391 3.727,2.852c0.688,1.282 0.938,2.782 0.993,4.205c0.055,1.469 -0.094,3.094 -0.367,4.798c-0.657,3.986 -2.11,8.862 -4.064,14.02c2.156,4.611 4.719,9.02 7.658,13.176c3.479,-0.275 6.977,-0.144 10.425,0.391c2.845,0.515 5.737,1.523 7.503,3.633c0.938,1.126 1.508,2.501 1.563,4.049c0.054,1.5 -0.368,2.985 -1.079,4.399c-0.616,1.311 -1.571,2.434 -2.766,3.251c-1.182,0.771 -2.577,1.148 -3.986,1.079c-2.586,-0.11 -5.111,-1.532 -7.291,-3.259c-2.651,-2.192 -5.04,-4.683 -7.119,-7.424c-5.285,0.6 -10.507,1.661 -15.607,3.173c-2.335,4.141 -5.001,8.087 -7.971,11.8c-2.282,2.735 -4.759,5.127 -7.244,6.15c-1.428,0.646 -3.048,0.727 -4.533,0.227Zm10.777,-14.856c-1.297,0.594 -2.501,1.219 -3.587,1.86c-2.563,1.516 -4.228,2.993 -5.056,4.275c-0.735,1.133 -0.751,1.953 -0.313,2.821c0.078,0.172 0.156,0.281 0.203,0.344c0.094,-0.025 0.185,-0.057 0.274,-0.094c1.07,-0.438 2.774,-1.837 4.962,-4.47c1.245,-1.524 2.418,-3.104 3.517,-4.736Zm12.816,-10.394c2.61,-0.609 5.243,-1.112 7.893,-1.508c-1.423,-2.178 -2.752,-4.415 -3.985,-6.705c-1.226,2.771 -2.529,5.507 -3.908,8.205l0,0.008Zm19.115,3.517c1.173,1.274 2.314,2.344 3.4,3.204c1.875,1.485 3.181,1.977 3.892,2.001c0.19,0.024 0.383,-0.017 0.547,-0.118c0.325,-0.256 0.578,-0.593 0.734,-0.977c0.278,-0.476 0.436,-1.012 0.461,-1.562c-0.004,-0.184 -0.077,-0.36 -0.203,-0.493c-0.406,-0.484 -1.563,-1.188 -4.048,-1.633c-1.581,-0.264 -3.18,-0.403 -4.783,-0.414l0,-0.008Zm-15.551,-27.399c0.658,-2.122 1.18,-4.283 1.563,-6.471c0.242,-1.469 0.336,-2.68 0.297,-3.634c0.002,-0.526 -0.083,-1.048 -0.25,-1.547c-0.391,0.048 -0.773,0.154 -1.133,0.313c-0.68,0.273 -1.235,0.828 -1.532,2.211c-0.313,1.501 -0.235,3.665 0.359,6.424c0.188,0.868 0.422,1.774 0.704,2.704l-0.008,0Z" style="fill-rule:nonzero;"/><path d="M3725.16,477.666c0,-3.377 0.514,-6.258 1.542,-8.644c1.028,-2.386 2.239,-4.295 3.634,-5.726c1.395,-1.432 3.23,-2.992 5.506,-4.68c2.349,-1.688 4.092,-3.23 5.23,-4.625c1.138,-1.395 1.707,-3.12 1.707,-5.175c-0,-5.506 -3.561,-8.259 -10.681,-8.259c-4.185,0 -7.048,1.046 -8.589,3.138c-1.542,2.093 -2.313,4.387 -2.313,6.883l0.11,2.973l-15.306,-0c-0.293,-1.248 -0.44,-2.533 -0.44,-3.854c-0,-4.185 1.046,-7.984 3.138,-11.397c2.092,-3.414 5.212,-6.112 9.36,-8.094c4.148,-1.982 9.195,-2.973 15.141,-2.973c8.148,0 14.517,1.67 19.105,5.01c4.588,3.341 6.882,8.204 6.882,14.591c0,3.303 -0.532,6.148 -1.597,8.534c-1.064,2.385 -2.349,4.331 -3.854,5.836c-1.505,1.505 -3.505,3.211 -6.001,5.12c-3.01,2.423 -5.23,4.515 -6.662,6.277c-1.431,1.762 -2.147,4.001 -2.147,6.717l-0,3.083l-13.765,-0l0,-4.735Zm-0.66,11.342l15.196,-0l-0,15.086l-15.196,-0l-0,-15.086Z" style="fill-rule:nonzero;"/></g><path d="M3464.77,568.221c0,-4.023 3.295,-7.289 7.353,-7.289l481.259,0c4.058,0 7.353,3.266 7.353,7.289l-0,5.161c-0,13.913 -28.589,15.586 -32.647,15.586l-430.671,0c-4.058,0 -32.647,0.394 -32.647,-15.586l0,-5.161Z" style="fill:#fff;"/><path d="M3964.11,568.222l0,-0.001l-0.002,-0.209l-0.001,-0.009c-0.116,-5.777 -4.87,-10.446 -10.725,-10.446l-481.259,-0c-5.929,-0 -10.728,4.787 -10.728,10.664l-0,5.161c-0,7.899 5.375,12.788 12.479,15.538c9.097,3.521 20.974,3.424 23.543,3.424l430.671,-0c2.573,-0 14.477,-0.651 23.589,-4.336c7.143,-2.888 12.433,-7.712 12.433,-14.626l0,-5.155l0,-0.005Zm-495.964,-0.001c-0,-2.168 1.79,-3.913 3.977,-3.913c0,-0 481.259,-0 481.259,-0c2.187,-0 3.977,1.745 3.977,3.913l3.376,3.376l-3.376,-3.37c0,-0 0,0.511 0,5.155c0,4.223 -3.85,6.604 -8.212,8.368c-8.134,3.289 -18.762,3.843 -21.059,3.843c0,-0 -430.671,-0 -430.671,-0c-2.301,-0 -12.956,0.186 -21.105,-2.969c-4.397,-1.702 -8.166,-4.353 -8.166,-9.242c-0,0 -0,-5.161 -0,-5.161Z"/><path d="M3744.48,575.043l-63.445,-0" style="fill:none;stroke:#000;stroke-width:4.49px;"/></g><g><path d="M2987.83,574.922c-4.105,0 -7.437,-3.332 -7.437,-7.437l0,-280.504c0,-4.105 3.332,-7.437 7.437,-7.437l133.862,0c4.104,0 7.437,3.332 7.437,7.437l-0,280.504c-0,4.105 -3.333,7.437 -7.437,7.437l-133.862,0Z" style="fill:#fff;"/><path d="M2987.83,578.289l133.862,-0c5.962,-0 10.803,-4.841 10.803,-10.804c0,0 0,-280.504 0,-280.504c0,-5.963 -4.841,-10.803 -10.803,-10.803c-0,-0 -133.862,-0 -133.862,-0c-5.963,-0 -10.803,4.84 -10.803,10.803l-0,280.504c-0,5.963 4.84,10.804 10.803,10.804Zm-0,-6.733c-2.247,-0 -4.07,-1.824 -4.07,-4.071c-0,0 -0,-280.504 -0,-280.504c-0,-2.247 1.823,-4.07 4.07,-4.07l133.862,-0c2.246,-0 4.07,1.823 4.07,4.07l0,280.504c0,2.247 -1.824,4.071 -4.07,4.071l-133.862,-0Z"/><g><path d="M3104.07,377.876c0.038,-0.037 -28.707,-26.632 -28.76,-26.632l-65.914,0c-2.177,0 -3.944,1.768 -3.944,3.945l-0,132.361c-0,2.178 1.767,3.945 3.944,3.945l90.729,0c2.177,0 3.945,-1.767 3.945,-3.945l-0,-109.674Z" style="fill:#fff;stroke:#000;stroke-width:2.31px;"/><path d="M3075.11,351.244l-0,0.007c-0,7.085 2.814,13.881 7.825,18.891c5.01,5.011 11.806,7.825 18.891,7.825c1.039,0 1.647,0 1.647,0" style="fill:none;stroke:#000;stroke-width:2.31px;"/><path d="M3018.27,417.285c-1.26,-0.504 -2.276,-1.479 -2.833,-2.716c-1.261,-2.51 -0.84,-5.019 0.518,-7.127c1.28,-1.985 3.401,-3.673 5.801,-5.089c3.039,-1.724 6.251,-3.122 9.584,-4.172c2.588,-4.652 4.881,-9.462 6.867,-14.402c-1.187,-2.698 -2.118,-5.502 -2.78,-8.374c-0.556,-2.587 -0.77,-5.148 -0.298,-7.347c0.485,-2.289 1.772,-4.345 4.204,-5.322c1.241,-0.498 2.587,-0.776 3.893,-0.498c1.33,0.283 2.464,1.151 3.085,2.361c0.569,1.06 0.776,2.302 0.821,3.479c0.045,1.216 -0.078,2.561 -0.304,3.97c-0.543,3.299 -1.746,7.334 -3.363,11.602c1.784,3.816 3.905,7.465 6.338,10.903c2.878,-0.227 5.773,-0.118 8.627,0.324c2.354,0.427 4.746,1.261 6.208,3.007c0.776,0.931 1.248,2.069 1.293,3.35c0.046,1.241 -0.304,2.47 -0.892,3.641c-0.51,1.084 -1.3,2.013 -2.289,2.69c-0.978,0.638 -2.133,0.95 -3.299,0.892c-2.14,-0.09 -4.229,-1.267 -6.033,-2.696c-2.194,-1.814 -4.171,-3.876 -5.892,-6.144c-4.373,0.496 -8.694,1.375 -12.914,2.626c-1.933,3.427 -4.139,6.692 -6.596,9.765c-1.889,2.263 -3.939,4.242 -5.995,5.089c-1.182,0.535 -2.522,0.602 -3.751,0.188Zm8.918,-12.294c-1.074,0.492 -2.07,1.009 -2.969,1.539c-2.121,1.255 -3.498,2.477 -4.184,3.538c-0.608,0.937 -0.62,1.616 -0.258,2.334c0.064,0.142 0.129,0.233 0.168,0.285c0.077,-0.021 0.153,-0.047 0.226,-0.078c0.886,-0.362 2.296,-1.52 4.107,-3.699c1.03,-1.261 2.001,-2.569 2.91,-3.919Zm10.606,-8.601c2.159,-0.504 4.338,-0.92 6.531,-1.248c-1.177,-1.802 -2.278,-3.653 -3.298,-5.549c-1.014,2.293 -2.092,4.558 -3.233,6.791l-0,0.006Zm15.818,2.91c0.97,1.054 1.914,1.94 2.813,2.652c1.552,1.228 2.632,1.636 3.22,1.655c0.158,0.021 0.318,-0.014 0.453,-0.097c0.269,-0.212 0.479,-0.491 0.608,-0.808c0.23,-0.394 0.361,-0.838 0.382,-1.294c-0.004,-0.151 -0.064,-0.297 -0.169,-0.407c-0.336,-0.401 -1.293,-0.983 -3.349,-1.352c-1.309,-0.218 -2.632,-0.333 -3.958,-0.342l-0,-0.007Zm-12.869,-22.673c0.544,-1.756 0.976,-3.544 1.293,-5.355c0.2,-1.215 0.278,-2.218 0.246,-3.007c0.001,-0.435 -0.068,-0.868 -0.207,-1.28c-0.324,0.04 -0.64,0.127 -0.938,0.259c-0.563,0.226 -1.022,0.685 -1.268,1.83c-0.258,1.241 -0.194,3.033 0.298,5.315c0.155,0.718 0.349,1.468 0.582,2.238l-0.006,0Z" style="fill-rule:nonzero;"/><path d="M3096.23,438.994c0,2.82 -0.632,5.351 -1.898,7.59c-1.265,2.239 -3.628,4.595 -7.088,7.067l-3.316,2.399c-3.838,2.734 -5.845,5.773 -6.02,9.117l-11.647,0c0.116,-1.977 0.523,-3.809 1.221,-5.496c0.698,-1.687 1.709,-3.272 3.032,-4.755c1.323,-1.483 2.945,-2.894 4.864,-4.231c2.094,-1.455 3.759,-2.771 4.995,-3.948c1.236,-1.178 2.13,-2.341 2.683,-3.49c0.552,-1.149 0.829,-2.392 0.829,-3.73c-0,-2.559 -0.836,-4.58 -2.509,-6.064c-1.672,-1.483 -4.049,-2.224 -7.132,-2.224c-2.937,-0 -5.402,0.858 -7.394,2.573c-1.992,1.716 -3.163,3.985 -3.512,6.806l-12.432,-0.524c0.785,-5.904 3.213,-10.499 7.285,-13.785c4.071,-3.286 9.364,-4.929 15.879,-4.929c6.892,-0 12.309,1.563 16.249,4.689c3.941,3.127 5.911,7.438 5.911,12.935Zm-17.711,32.979l0,11.778l-12.607,-0l0,-11.778l12.607,-0Z" style="fill-rule:nonzero;"/></g><path d="M3044.06,299.292c-0,-1.497 1.216,-2.713 2.713,-2.713l15.965,-0c1.498,-0 2.714,1.216 2.714,2.713c-0,1.498 -1.216,2.714 -2.714,2.714l-15.965,-0c-1.497,-0 -2.713,-1.216 -2.713,-2.714Z" style="stroke:#000;stroke-width:1.65px;"/></g><path d="M2929.47,588.969l1130.1,0" style="fill:none;stroke:#000;stroke-width:6.73px;"/></g><g><path d="M2363.4,631.364l0,-329.476l509.95,0" style="fill:none;stroke:#9c9c9c;stroke-width:6.73px;stroke-dasharray:20.2,20.2,0,0;"/><path d="M2828.47,341.142l39.254,-39.254l-39.254,-39.254" style="fill:none;stroke:#9c9c9c;stroke-width:6.73px;"/></g><g><g><path d="M4084.79,1802.28l71.231,0l0,243.941l101.103,-0" style="fill:none;stroke:#ef0707;stroke-width:6.73px;stroke-dasharray:20.2,20.2,0,0;"/><path d="M4223.24,2006.97l39.254,39.254l-39.254,39.254" style="fill:none;stroke:#ef0707;stroke-width:6.73px;"/></g><g><path d="M4084.79,1549.98l71.231,0l0,-243.941l101.103,0" style="fill:none;stroke:#ef0707;stroke-width:6.73px;stroke-dasharray:20.2,20.2,0,0;"/><path d="M4223.24,1266.79l39.254,39.254l-39.254,39.255" style="fill:none;stroke:#ef0707;stroke-width:6.73px;"/></g><g><path d="M4084.79,1669.06l172.334,-0" style="fill:none;stroke:#ef0707;stroke-width:6.73px;stroke-dasharray:20.2,20.2,0,0;"/><path d="M4223.24,1629.81l39.254,39.255l-39.254,39.254" style="fill:none;stroke:#ef0707;stroke-width:6.73px;"/></g></g><g><g><path d="M4084.79,675.498l71.231,0l0,243.941l101.103,0" style="fill:none;stroke:#9c9c9c;stroke-width:6.73px;stroke-dasharray:20.2,20.2,0,0;"/><path d="M4223.24,880.185l39.254,39.254l-39.254,39.254" style="fill:none;stroke:#9c9c9c;stroke-width:6.73px;"/></g><g><path d="M4084.79,423.204l71.231,0l0,-243.94l101.103,-0" style="fill:none;stroke:#9c9c9c;stroke-width:6.73px;stroke-dasharray:20.2,20.2,0,0;"/><path d="M4223.24,140.009l39.254,39.255l-39.254,39.254" style="fill:none;stroke:#9c9c9c;stroke-width:6.73px;"/></g><g><path d="M4084.79,542.283l172.334,-0" style="fill:none;stroke:#9c9c9c;stroke-width:6.73px;stroke-dasharray:20.2,20.2,0,0;"/><path d="M4223.24,503.029l39.254,39.254l-39.254,39.254" style="fill:none;stroke:#9c9c9c;stroke-width:6.73px;"/></g></g><g><path d="M1015.67,413.616c-0,-5.124 -4.161,-9.285 -9.285,-9.285l-74.282,0c-5.124,0 -9.285,4.161 -9.285,9.285l0,74.282c0,5.124 4.161,9.285 9.285,9.285l74.282,-0c5.124,-0 9.285,-4.161 9.285,-9.285l-0,-74.282Z" style="fill:#fff;"/><path d="M1019.03,413.616c0,-6.982 -5.669,-12.651 -12.651,-12.651l-74.282,-0c-6.982,-0 -12.651,5.669 -12.651,12.651c-0,0 -0,74.282 -0,74.282c-0,6.982 5.669,12.651 12.651,12.651c0,0 74.282,0 74.282,0c6.982,0 12.651,-5.669 12.651,-12.651l0,-74.282Zm-6.733,0l0,74.282c0,3.266 -2.652,5.919 -5.918,5.919l-74.282,-0c-3.266,-0 -5.918,-2.653 -5.918,-5.919l-0,-74.282c-0,-3.266 2.652,-5.918 5.918,-5.918c0,-0 74.282,-0 74.282,-0c3.266,-0 5.918,2.652 5.918,5.918Z"/><path d="M1004.6,404.331c0,-7.192 0.938,-17.273 -0.374,-26.781c-1.068,-7.735 -3.62,-15.08 -8.948,-20.533c-5.332,-5.455 -13.479,-9.14 -26.04,-9.14c-12.562,-0 -20.709,3.685 -26.04,9.14c-5.328,5.453 -7.88,12.798 -8.948,20.533c-1.313,9.508 -0.374,19.589 -0.374,26.781c-0,1.858 1.508,3.367 3.366,3.367c1.858,-0 3.367,-1.509 3.367,-3.367c-0,-6.944 -0.957,-16.679 0.311,-25.86c0.867,-6.282 2.766,-12.32 7.093,-16.748c4.325,-4.424 11.036,-7.113 21.225,-7.113c10.189,-0 16.9,2.689 21.225,7.113c4.327,4.428 6.226,10.466 7.093,16.748c1.268,9.181 0.311,18.916 0.311,25.86c0,1.858 1.509,3.367 3.367,3.367c1.858,-0 3.366,-1.509 3.366,-3.367Z"/><path d="M964.06,448.516c-4.549,-1.998 -7.73,-6.544 -7.73,-11.828c-0,-7.126 5.785,-12.911 12.911,-12.911c7.126,-0 12.911,5.785 12.911,12.911c0,5.284 -3.181,9.83 -7.73,11.828l3.926,29.222l-18.214,-0l3.926,-29.222Z"/></g><g><path d="M1015.67,1696.02c-0,-5.125 -4.161,-9.286 -9.285,-9.286l-74.282,0c-5.124,0 -9.285,4.161 -9.285,9.286l0,74.281c0,5.125 4.161,9.285 9.285,9.285l74.282,0c5.124,0 9.285,-4.16 9.285,-9.285l-0,-74.281Z" style="fill:#fff;"/><path d="M1019.03,1696.02c0,-6.983 -5.669,-12.652 -12.651,-12.652l-74.282,-0c-6.982,-0 -12.651,5.669 -12.651,12.652c-0,-0 -0,74.281 -0,74.281c-0,6.983 5.669,12.652 12.651,12.652c0,-0 74.282,-0 74.282,-0c6.982,-0 12.651,-5.669 12.651,-12.652l0,-74.281Zm-6.733,-0.001l0,74.282c0,3.267 -2.652,5.919 -5.918,5.919l-74.282,-0c-3.266,-0 -5.918,-2.652 -5.918,-5.919l-0,-74.281c-0,-3.267 2.652,-5.919 5.918,-5.919c0,-0 74.282,-0 74.282,-0c3.266,-0 5.918,2.652 5.918,5.918Z"/><path d="M1004.6,1686.74c0,-7.192 0.938,-17.272 -0.374,-26.781c-1.068,-7.735 -3.62,-15.08 -8.948,-20.532c-5.332,-5.455 -13.479,-9.141 -26.04,-9.141c-12.562,-0 -20.709,3.686 -26.04,9.141c-5.328,5.452 -7.88,12.797 -8.948,20.532c-1.313,9.509 -0.374,19.589 -0.374,26.781c-0,1.858 1.508,3.367 3.366,3.367c1.858,-0 3.367,-1.509 3.367,-3.367c-0,-6.944 -0.957,-16.679 0.311,-25.86c0.867,-6.282 2.766,-12.32 7.093,-16.747c4.325,-4.425 11.036,-7.114 21.225,-7.114c10.189,-0 16.9,2.689 21.225,7.114c4.327,4.427 6.226,10.465 7.093,16.747c1.268,9.181 0.311,18.916 0.311,25.86c0,1.858 1.509,3.367 3.367,3.367c1.858,-0 3.366,-1.509 3.366,-3.367Z"/><path d="M964.06,1730.92c-4.549,-1.998 -7.73,-6.544 -7.73,-11.828c-0,-7.126 5.785,-12.911 12.911,-12.911c7.126,-0 12.911,5.785 12.911,12.911c0,5.284 -3.181,9.83 -7.73,11.828l3.926,29.222l-18.214,-0l3.926,-29.222Z"/></g><path d="M1693.03,1384.95l740.892,0" style="fill:none;stroke:#000;stroke-width:6.73px;"/><g><path d="M1825,1490.37l0,356.838l1048.34,-0" style="fill:none;stroke:#ef0707;stroke-width:6.73px;stroke-dasharray:20.2,20.2,0,0;"/><path d="M2834.09,1807.95l39.254,39.255l-39.254,39.254" style="fill:none;stroke:#ef0707;stroke-width:6.73px;"/></g><g><path d="M3.366,2079.64l740.893,-0" style="fill:none;stroke:#000;stroke-width:6.73px;"/><g><path d="M25.005,2079.64l697.615,-0" style="fill:none;stroke:#000;stroke-width:6.34px;"/><g><path d="M652.997,1509.89c0,-8.871 -7.202,-16.073 -16.072,-16.073l-526.224,0c-8.871,0 -16.073,7.202 -16.073,16.073l-0,128.581c-0,8.871 7.202,16.073 16.073,16.073l526.224,-0c8.87,-0 16.072,-7.202 16.072,-16.073l0,-128.581Z" style="fill:#fff;stroke:#000;stroke-width:6.28px;"/><circle cx="173.319" cy="1574.18" r="10.242" style="stroke:#000;stroke-width:14.98px;"/><circle cx="236.832" cy="1574.18" r="10.242" style="stroke:#000;stroke-width:14.98px;"/><circle cx="299.94" cy="1574.18" r="10.242" style="stroke:#000;stroke-width:14.98px;"/></g><g><path d="M652.997,1675.79c0,-8.871 -7.202,-16.073 -16.072,-16.073l-526.224,-0c-8.871,-0 -16.073,7.202 -16.073,16.073l-0,128.581c-0,8.87 7.202,16.072 16.073,16.072l526.224,0c8.87,0 16.072,-7.202 16.072,-16.072l0,-128.581Z" style="fill:#fff;stroke:#000;stroke-width:6.28px;"/><circle cx="173.319" cy="1740.08" r="10.242" style="stroke:#000;stroke-width:14.98px;"/><circle cx="236.832" cy="1740.08" r="10.242" style="stroke:#000;stroke-width:14.98px;"/><circle cx="299.94" cy="1740.08" r="10.242" style="stroke:#000;stroke-width:14.98px;"/></g><g><path d="M652.997,1850.68c0,-14.041 -11.399,-25.44 -25.44,-25.44l-507.489,-0c-14.041,-0 -25.44,11.399 -25.44,25.44l-0,203.523c-0,14.041 11.399,25.441 25.44,25.441l507.489,-0c14.041,-0 25.44,-11.4 25.44,-25.441l0,-203.523Z" style="fill:#fff;stroke:#000;stroke-width:6.28px;"/><path id="logo1" d="M542.633,1904.73l-5.227,0l-0,-17.609c-0,-24.488 -20.086,-44.574 -44.574,-44.574c-24.488,0 -44.574,20.086 -44.574,44.574l0,17.609l-4.952,0c-8.53,0 -15.409,6.879 -15.409,15.408l0,99.328c0,8.53 6.879,15.408 15.409,15.408l36.594,0c2.201,4.128 4.127,8.53 6.328,12.932c-1.65,1.651 -2.476,3.852 -2.476,6.329c0,5.227 4.402,9.63 9.63,9.63c5.228,-0 9.63,-4.403 9.63,-9.63c0,-2.202 -0.825,-4.403 -2.201,-6.054c1.926,-4.677 4.127,-9.079 6.329,-13.482l36.044,0c8.529,0 15.408,-6.878 15.408,-15.408l-0,-99.328c-0.275,-8.254 -7.429,-15.133 -15.959,-15.133Zm-99.327,118.038c-1.651,-0 -3.027,-1.376 -3.027,-3.027l0,-99.327c0,-1.651 1.376,-3.027 3.027,-3.027l28.89,-0c-0,1.376 -0.275,2.751 -0.275,4.127c-2.201,22.562 -8.53,45.124 -20.086,71.538c-0.825,1.651 -0.55,1.926 0,2.476c7.704,8.255 14.583,17.335 20.911,27.515l-29.44,0l-0,-0.275Zm54.479,-47.05l4.127,29.441l-7.429,-0l-0,45.674c1.651,0.55 2.751,2.201 2.751,3.852c0,2.476 -1.926,4.127 -4.127,4.127c-2.476,0 -4.127,-1.926 -4.127,-4.127c-0,-1.926 1.1,-3.302 2.751,-3.852l0,-45.674l-7.429,-0l4.128,-29.441c-5.228,-1.926 -8.805,-6.879 -8.805,-12.657c-0,-7.429 6.053,-13.482 13.482,-13.482c7.429,0 13.482,6.053 13.482,13.482c0,5.778 -3.577,10.456 -8.804,12.657Zm-36.32,-70.988l0,-17.609c0,-17.334 14.033,-31.367 31.367,-31.367c17.334,0 31.367,14.033 31.367,31.367l-0,17.609l-62.734,0Zm84.195,115.011c0,1.651 -1.376,3.027 -3.027,3.027l-28.89,-0c5.778,-9.355 12.106,-17.609 18.985,-25.314c2.201,-2.476 2.476,-3.852 1.101,-7.153c-10.181,-23.113 -16.509,-44.299 -18.985,-64.385l-0.826,-9.079l28.891,-0c1.65,-0 3.026,1.375 3.026,3.026l0,99.878l-0.275,0Z" style="fill:#ef0707;fill-rule:nonzero;"/><circle cx="173.319" cy="1952.44" r="10.242" style="stroke:#000;stroke-width:14.98px;"/><circle cx="236.832" cy="1952.44" r="10.242" style="stroke:#000;stroke-width:14.98px;"/><circle cx="299.94" cy="1952.44" r="10.242" style="stroke:#000;stroke-width:14.98px;"/></g></g></g><g><path d="M3.366,588.969l740.893,0" style="fill:none;stroke:#000;stroke-width:6.73px;"/><g><path d="M25.005,588.969l697.615,0" style="fill:none;stroke:#000;stroke-width:6.34px;"/><g><path d="M652.997,19.211c0,-8.87 -7.202,-16.072 -16.072,-16.072l-526.224,-0c-8.871,-0 -16.073,7.202 -16.073,16.072l-0,128.581c-0,8.871 7.202,16.073 16.073,16.073l526.224,0c8.87,0 16.072,-7.202 16.072,-16.073l0,-128.581Z" style="fill:#fff;stroke:#000;stroke-width:6.28px;"/><circle cx="173.319" cy="83.502" r="10.242" style="stroke:#000;stroke-width:14.98px;"/><circle cx="236.832" cy="83.502" r="10.242" style="stroke:#000;stroke-width:14.98px;"/><circle cx="299.94" cy="83.502" r="10.242" style="stroke:#000;stroke-width:14.98px;"/></g><g><path d="M652.997,185.119c0,-8.871 -7.202,-16.073 -16.072,-16.073l-526.224,0c-8.871,0 -16.073,7.202 -16.073,16.073l-0,128.581c-0,8.871 7.202,16.073 16.073,16.073l526.224,-0c8.87,-0 16.072,-7.202 16.072,-16.073l0,-128.581Z" style="fill:#fff;stroke:#000;stroke-width:6.28px;"/><circle cx="173.319" cy="249.409" r="10.242" style="stroke:#000;stroke-width:14.98px;"/><circle cx="236.832" cy="249.409" r="10.242" style="stroke:#000;stroke-width:14.98px;"/><circle cx="299.94" cy="249.409" r="10.242" style="stroke:#000;stroke-width:14.98px;"/></g><g><path d="M652.997,360.006c0,-14.041 -11.399,-25.441 -25.44,-25.441l-507.489,0c-14.041,0 -25.44,11.4 -25.44,25.441l-0,203.523c-0,14.041 11.399,25.44 25.44,25.44l507.489,0c14.041,0 25.44,-11.399 25.44,-25.44l0,-203.523Z" style="fill:#fff;stroke:#000;stroke-width:6.28px;"/><circle cx="173.319" cy="461.767" r="10.242" style="stroke:#000;stroke-width:14.98px;"/><circle cx="236.832" cy="461.767" r="10.242" style="stroke:#000;stroke-width:14.98px;"/><circle cx="299.94" cy="461.767" r="10.242" style="stroke:#000;stroke-width:14.98px;"/></g></g></g></svg>