<?xml version="1.0" encoding="UTF-8"?>
<!-- Created with Inkscape (http://www.inkscape.org/) -->
<svg width="94mm" height="38.337mm" version="1.1" viewBox="0 0 94 38.337" xmlns="http://www.w3.org/2000/svg">
 <g transform="translate(-50 -120)" clip-rule="evenodd" fill-rule="evenodd" stroke-linecap="round" stroke-linejoin="round" stroke-miterlimit="1.5">
  <g transform="matrix(.26972 0 0 .26458 -443.73 -154.81)">
   <path d="m1866.7 1113.7v67.332l19.435-17.603 19.435 17.603v-67.332z" fill="#fff"/>
   <path d="m1866.7 1111.1c-1.416 0-2.564 1.148-2.564 2.564v67.332c0 1.014 0.598 1.933 1.525 2.344s2.009 0.237 2.76-0.444l17.714-16.044 17.714 16.044c0.752 0.681 1.834 0.855 2.761 0.444 0.926-0.411 1.524-1.33 1.524-2.344v-67.332c0-1.416-1.148-2.564-2.564-2.564zm2.564 5.128h33.742v58.986l-15.15-13.722c-0.977-0.885-2.465-0.885-3.442 0l-15.15 13.722z"/>
   <path d="m1886.1 1041.2c-3.136 4.092-7.026 7.256-11.67 9.494-5.141 0.384-10.092-0.411-14.854-2.386-0.671 5.111-2.457 9.797-5.36 14.057-4.26 2.903-8.946 4.689-14.057 5.36 1.975 4.762 2.77 9.713 2.386 14.854-2.238 4.644-5.402 8.534-9.494 11.67 4.092 3.136 7.256 7.027 9.494 11.671 0.384 5.14-0.411 10.092-2.386 14.853 5.111 0.671 9.797 2.458 14.057 5.36 2.903 4.261 4.689 8.946 5.36 14.058 4.762-1.975 9.713-2.771 14.854-2.387 4.644 2.238 8.534 5.402 11.67 9.494 3.136-4.092 7.027-7.256 11.671-9.494 5.14-0.384 10.092 0.412 14.853 2.387 0.671-5.112 2.458-9.797 5.361-14.058 4.26-2.902 8.945-4.689 14.057-5.36-1.975-4.761-2.771-9.713-2.387-14.853 2.238-4.644 5.402-8.535 9.494-11.671-4.092-3.136-7.256-7.026-9.494-11.67-0.384-5.141 0.412-10.092 2.387-14.854-5.112-0.671-9.797-2.457-14.057-5.36-2.903-4.26-4.69-8.946-5.361-14.057-4.761 1.975-9.713 2.77-14.853 2.386-4.644-2.238-8.535-5.402-11.671-9.494zm0 42.439c5.856 0 10.61 4.754 10.61 10.61s-4.754 10.61-10.61 10.61-10.61-4.754-10.61-10.61 4.754-10.61 10.61-10.61z" fill="#ef0707"/>
   <path d="m1888.2 1039.7c-0.485-0.633-1.237-1.004-2.035-1.004-0.797 0-1.549 0.371-2.035 1.004-2.788 3.636-6.222 6.478-10.303 8.525-4.573 0.273-8.97-0.47-13.204-2.227-0.737-0.305-1.573-0.251-2.264 0.148s-1.157 1.096-1.26 1.887c-0.596 4.544-2.15 8.722-4.661 12.535-3.824 2.523-8.003 4.078-12.548 4.674-0.791 0.103-1.488 0.569-1.887 1.26-0.398 0.691-0.453 1.527-0.148 2.264 1.756 4.233 2.5 8.628 2.232 13.186-2.05 4.097-4.892 7.533-8.53 10.321-0.633 0.485-1.004 1.238-1.004 2.035 0 0.798 0.371 1.55 1.004 2.035 3.636 2.788 6.478 6.222 8.525 10.304 0.273 4.573-0.47 8.969-2.227 13.203-0.305 0.737-0.25 1.574 0.148 2.264 0.399 0.691 1.096 1.157 1.887 1.261 4.544 0.595 8.722 2.149 12.535 4.66 2.523 3.824 4.078 8.003 4.674 12.548 0.103 0.791 0.569 1.488 1.26 1.887s1.527 0.453 2.264 0.148c4.233-1.756 8.628-2.5 13.186-2.231 4.097 2.049 7.533 4.892 10.321 8.53 0.486 0.632 1.238 1.004 2.035 1.004 0.798 0 1.55-0.372 2.035-1.004 2.788-3.637 6.222-6.479 10.304-8.526 4.573-0.273 8.969 0.471 13.203 2.227 0.737 0.305 1.574 0.251 2.264-0.148 0.691-0.399 1.157-1.096 1.261-1.887 0.595-4.543 2.149-8.722 4.66-12.535 3.824-2.523 8.003-4.077 12.548-4.673 0.791-0.104 1.488-0.57 1.887-1.261 0.399-0.69 0.453-1.527 0.148-2.264-1.756-4.233-2.499-8.628-2.231-13.186 2.049-4.097 4.892-7.532 8.53-10.321 0.633-0.485 1.004-1.237 1.004-2.035 0-0.797-0.371-1.55-1.004-2.035-3.637-2.788-6.479-6.222-8.526-10.304-0.273-4.572 0.471-8.969 2.227-13.203 0.305-0.737 0.251-1.573-0.148-2.264s-1.096-1.157-1.887-1.26c-4.543-0.596-8.722-2.15-12.535-4.661-2.523-3.824-4.077-8.003-4.673-12.548-0.104-0.791-0.57-1.488-1.261-1.887-0.69-0.399-1.527-0.453-2.264-0.148-4.233 1.756-8.628 2.5-13.186 2.231-4.097-2.049-7.532-4.892-10.321-8.529zm-2.035 5.547c2.988 3.259 6.507 5.864 10.558 7.816 0.289 0.139 0.602 0.223 0.922 0.247 4.484 0.335 8.834-0.162 13.051-1.49 0.958 4.316 2.703 8.332 5.235 12.047 0.181 0.266 0.409 0.495 0.675 0.675 3.716 2.533 7.732 4.278 12.048 5.235-1.329 4.217-1.826 8.568-1.491 13.052 0.024 0.32 0.108 0.632 0.247 0.922 1.952 4.05 4.558 7.57 7.817 10.557-3.259 2.988-5.865 6.507-7.817 10.558-0.139 0.289-0.223 0.602-0.247 0.922-0.335 4.484 0.162 8.834 1.491 13.051-4.317 0.958-8.332 2.703-12.048 5.235-0.266 0.181-0.494 0.409-0.675 0.675-2.532 3.716-4.277 7.731-5.235 12.048-4.217-1.329-8.567-1.826-13.051-1.491-0.32 0.024-0.633 0.108-0.922 0.247-4.051 1.952-7.57 4.558-10.558 7.817-2.987-3.259-6.507-5.865-10.557-7.817-0.29-0.139-0.602-0.223-0.922-0.247-4.484-0.335-8.835 0.162-13.052 1.491-0.957-4.317-2.702-8.332-5.235-12.048-0.18-0.266-0.409-0.494-0.674-0.675-3.716-2.532-7.732-4.277-12.048-5.235 1.328-4.217 1.825-8.567 1.49-13.051-0.024-0.32-0.108-0.633-0.247-0.922-1.952-4.051-4.557-7.57-7.816-10.558 3.259-2.988 5.864-6.507 7.816-10.557 0.139-0.29 0.223-0.602 0.247-0.922 0.335-4.484-0.162-8.835-1.49-13.052 4.316-0.958 8.332-2.703 12.048-5.235 0.265-0.18 0.494-0.409 0.674-0.675 2.533-3.715 4.278-7.731 5.235-12.047 4.217 1.328 8.568 1.825 13.052 1.49 0.32-0.024 0.632-0.108 0.922-0.247 4.05-1.952 7.57-4.557 10.557-7.816zm0 35.887c-7.271 0-13.173 5.903-13.173 13.174s5.902 13.174 13.173 13.174 13.174-5.903 13.174-13.174-5.903-13.174-13.174-13.174zm0 5.128c4.441 0 8.046 3.605 8.046 8.046s-3.605 8.046-8.046 8.046-8.046-3.605-8.046-8.046 3.605-8.046 8.046-8.046z"/>
   <circle cx="1886.1" cy="1094.3" r="36.683" fill="#ef0707"/>
   <path d="m1861.4 1099.7 12.875 12.874c2.003 2.003 5.249 2.003 7.252 0l29.301-29.3c2.001-2.002 2.001-5.251 0-7.252s-5.251-2.001-7.252 0l-25.675 25.675-9.249-9.249c-2.001-2.001-5.25-2.001-7.252 0-2.001 2.001-2.001 5.25 0 7.252z" fill="#fff"/>
  </g>
  <g transform="matrix(1.0194 0 0 1 -15.897 8.2869)" stroke-width=".26458">
   <path d="m105.6 131.56v17.815l5.1422-4.6575 5.1422 4.6575v-17.815z" fill="#fff"/>
   <path d="m105.6 130.88c-0.37465 0-0.67839 0.30374-0.67839 0.67839v17.815c0 0.26829 0.15822 0.51144 0.40349 0.62019 0.24527 0.10874 0.53155 0.0627 0.73025-0.11748l4.6868-4.245 4.6868 4.245c0.19896 0.18018 0.48524 0.22622 0.73051 0.11748 0.24501-0.10875 0.40323-0.3519 0.40323-0.62019v-17.815c0-0.37465-0.30375-0.67839-0.6784-0.67839zm0.67839 1.3568h8.9276v15.607l-4.0084-3.6306c-0.2585-0.23416-0.6522-0.23416-0.9107 0l-4.0084 3.6306z"/>
   <path d="m110.74 112.39c-0.82973 1.0827-1.859 1.9198-3.0877 2.512-1.3602 0.1016-2.6702-0.10874-3.9301-0.63129-0.17754 1.3523-0.65008 2.5921-1.4182 3.7192-1.1271 0.76808-2.367 1.2406-3.7192 1.4182 0.52255 1.26 0.7329 2.5699 0.6313 3.9301-0.59214 1.2287-1.4293 2.258-2.512 3.0877 1.0827 0.82974 1.9198 1.8592 2.512 3.088 0.1016 1.36-0.10874 2.6702-0.6313 3.9299 1.3523 0.17754 2.5921 0.65035 3.7192 1.4182 0.76809 1.1274 1.2406 2.367 1.4182 3.7195 1.2599-0.52255 2.5699-0.73316 3.9301-0.63156 1.2287 0.59214 2.258 1.4293 3.0877 2.512 0.82974-1.0827 1.8592-1.9198 3.088-2.512 1.36-0.1016 2.6702 0.10901 3.9298 0.63156 0.17754-1.3526 0.65035-2.5921 1.4184-3.7195 1.1271-0.76782 2.3667-1.2406 3.7192-1.4182-0.52255-1.2597-0.73316-2.5699-0.63156-3.9299 0.59214-1.2287 1.4293-2.2582 2.512-3.088-1.0827-0.82973-1.9198-1.859-2.512-3.0877-0.1016-1.3602 0.10901-2.6702 0.63156-3.9301-1.3526-0.17753-2.5921-0.65008-3.7192-1.4182-0.76808-1.1271-1.2409-2.367-1.4184-3.7192-1.2597 0.52255-2.5699 0.73289-3.9298 0.63129-1.2287-0.59213-2.2582-1.4293-3.088-2.512zm0 11.229c1.5494 0 2.8072 1.2578 2.8072 2.8072s-1.2578 2.8072-2.8072 2.8072-2.8072-1.2578-2.8072-2.8072 1.2578-2.8072 2.8072-2.8072z" fill="#8ebbd7"/>
   <path d="m111.28 111.98c-0.12832-0.16748-0.32729-0.26564-0.53842-0.26564-0.21088 0-0.40984 0.0982-0.53843 0.26564-0.73766 0.96203-1.6462 1.714-2.726 2.2556-1.2099 0.0722-2.3733-0.12435-3.4936-0.58922-0.195-0.0807-0.41619-0.0664-0.59902 0.0391-0.18282 0.10557-0.30612 0.28999-0.33337 0.49927-0.15769 1.2023-0.56886 2.3077-1.2332 3.3166-1.0118 0.66754-2.1175 1.079-3.32 1.2367-0.20929 0.0272-0.3937 0.15055-0.49927 0.33337-0.1053 0.18283-0.11986 0.40402-0.03916 0.59902 0.46461 1.12 0.66146 2.2828 0.59055 3.4888-0.5424 1.084-1.2943 1.9931-2.2569 2.7308-0.16748 0.12832-0.26564 0.32755-0.26564 0.53843 0 0.21113 0.09816 0.4101 0.26564 0.53842 0.96202 0.73766 1.714 1.6462 2.2556 2.7263 0.07223 1.2099-0.12435 2.373-0.58923 3.4933-0.0807 0.195-0.06615 0.41646 0.03916 0.59902 0.10557 0.18283 0.28998 0.30612 0.49927 0.33364 1.2023 0.15743 2.3077 0.56859 3.3166 1.233 0.66754 1.0118 1.079 2.1175 1.2367 3.32 0.0272 0.20929 0.15055 0.3937 0.33337 0.49927 0.18283 0.10557 0.40402 0.11986 0.59902 0.0392 1.12-0.46461 2.2828-0.66146 3.4888-0.59029 1.084 0.54213 1.9931 1.2943 2.7308 2.2569 0.12859 0.16721 0.32755 0.26564 0.53843 0.26564 0.21113 0 0.4101-0.0984 0.53842-0.26564 0.73766-0.96229 1.6462-1.7142 2.7263-2.2558 1.2099-0.0722 2.373 0.12462 3.4933 0.58923 0.195 0.0807 0.41646 0.0664 0.59902-0.0392 0.18283-0.10557 0.30612-0.28998 0.33364-0.49927 0.15743-1.202 0.56859-2.3077 1.233-3.3166 1.0118-0.66755 2.1175-1.0787 3.32-1.2364 0.20929-0.0275 0.3937-0.15081 0.49927-0.33364 0.10557-0.18256 0.11986-0.40402 0.0392-0.59902-0.46461-1.12-0.6612-2.2828-0.59029-3.4888 0.54213-1.084 1.2943-1.9928 2.2569-2.7308 0.16748-0.12832 0.26564-0.32729 0.26564-0.53842 0-0.21088-0.0982-0.41011-0.26564-0.53843-0.96229-0.73766-1.7142-1.6462-2.2558-2.7263-0.0722-1.2097 0.12462-2.373 0.58923-3.4933 0.0807-0.195 0.0664-0.41619-0.0392-0.59902-0.10557-0.18282-0.28998-0.30612-0.49927-0.33337-1.202-0.15769-2.3077-0.56886-3.3166-1.2332-0.66754-1.0118-1.0787-2.1175-1.2364-3.32-0.0275-0.20928-0.15081-0.3937-0.33364-0.49927-0.18256-0.10556-0.40402-0.11985-0.59902-0.0391-1.12 0.4646-2.2828 0.66145-3.4888 0.59028-1.084-0.54213-1.9928-1.2943-2.7308-2.2566zm-0.53842 1.4676c0.79057 0.86228 1.7216 1.5515 2.7935 2.068 0.0765 0.0368 0.15928 0.059 0.24394 0.0654 1.1864 0.0886 2.3373-0.0429 3.4531-0.39423 0.25347 1.1419 0.71517 2.2045 1.3851 3.1874 0.0479 0.0704 0.10822 0.13096 0.1786 0.17859 0.98319 0.67019 2.0458 1.1319 3.1877 1.3851-0.35163 1.1158-0.48313 2.267-0.3945 3.4534 6e-3 0.0847 0.0286 0.16721 0.0654 0.24394 0.51646 1.0716 1.206 2.0029 2.0682 2.7932-0.86227 0.79057-1.5518 1.7216-2.0682 2.7935-0.0368 0.0765-0.059 0.15928-0.0654 0.24394-0.0886 1.1864 0.0429 2.3373 0.3945 3.4531-1.1422 0.25347-2.2045 0.71517-3.1877 1.3851-0.0704 0.0479-0.13071 0.10822-0.1786 0.1786-0.66992 0.98319-1.1316 2.0455-1.3851 3.1877-1.1158-0.35163-2.2667-0.48313-3.4531-0.3945-0.0847 6e-3 -0.16748 0.0286-0.24394 0.0654-1.0718 0.51646-2.0029 1.206-2.7935 2.0682-0.79031-0.86227-1.7216-1.5518-2.7932-2.0682-0.0767-0.0368-0.15928-0.059-0.24394-0.0654-1.1864-0.0886-2.3376 0.0429-3.4534 0.3945-0.2532-1.1422-0.7149-2.2045-1.3851-3.1877-0.0476-0.0704-0.10821-0.13071-0.17833-0.1786-0.98319-0.66992-2.0458-1.1316-3.1877-1.3851 0.35137-1.1158 0.48286-2.2667 0.39423-3.4531-0.0063-0.0847-0.02858-0.16748-0.06535-0.24394-0.51647-1.0718-1.2057-2.0029-2.068-2.7935 0.86228-0.79058 1.5515-1.7216 2.068-2.7932 0.03678-0.0767 0.059-0.15928 0.06535-0.24394 0.08864-1.1864-0.04286-2.3376-0.39423-3.4534 1.1419-0.25347 2.2045-0.71517 3.1877-1.3851 0.0701-0.0476 0.13071-0.10821 0.17833-0.17859 0.67019-0.98293 1.1319-2.0455 1.3851-3.1874 1.1158 0.35137 2.267 0.48287 3.4534 0.39423 0.0847-6e-3 0.16721-0.0286 0.24394-0.0654 1.0716-0.51647 2.0029-1.2057 2.7932-2.068zm0 9.4951c-1.9238 0-3.4854 1.5618-3.4854 3.4856 0 1.9238 1.5616 3.4856 3.4854 3.4856 1.9238 0 3.4856-1.5618 3.4856-3.4856 0-1.9238-1.5618-3.4856-3.4856-3.4856zm0 1.3568c1.175 0 2.1288 0.95382 2.1288 2.1288 0 1.175-0.95382 2.1288-2.1288 2.1288-1.175 0-2.1288-0.95382-2.1288-2.1288 0-1.175 0.95382-2.1288 2.1288-2.1288z"/>
   <circle cx="110.74" cy="126.43" r="9.7057" fill="#8ebbd7"/>
   <path d="m104.21 127.86 3.4065 3.4062c0.52996 0.52996 1.3888 0.52996 1.9188 0l7.7526-7.7523c0.52943-0.5297 0.52943-1.3893 0-1.9188-0.52944-0.52943-1.3893-0.52943-1.9188 0l-6.7932 6.7932-2.4471-2.4471c-0.52943-0.52943-1.3891-0.52943-1.9188 0-0.52943 0.52943-0.52943 1.3891 0 1.9188z" fill="#fff"/>
  </g>
  <g transform="matrix(1.0194 0 0 1 -30.27 6.7209)" stroke-width=".26458">
   <path d="m151.09 133.12v17.815l5.1422-4.6575 5.1422 4.6575v-17.815z" fill="#fff"/>
   <path d="m151.09 132.44c-0.37465 0-0.67839 0.30374-0.67839 0.67839v17.815c0 0.26829 0.15822 0.51144 0.40349 0.62019 0.24527 0.10874 0.53155 0.0627 0.73025-0.11748l4.6868-4.245 4.6868 4.245c0.19896 0.18018 0.48524 0.22622 0.73051 0.11748 0.24501-0.10875 0.40323-0.3519 0.40323-0.62019v-17.815c0-0.37465-0.30375-0.67839-0.6784-0.67839zm0.67839 1.3568h8.9276v15.607l-4.0084-3.6306c-0.2585-0.23416-0.6522-0.23416-0.9107 0l-4.0084 3.6306z"/>
   <path d="m156.23 113.96c-0.82973 1.0827-1.859 1.9198-3.0877 2.512-1.3602 0.1016-2.6702-0.10874-3.9301-0.63129-0.17754 1.3523-0.65009 2.5921-1.4182 3.7192-1.1271 0.76808-2.367 1.2406-3.7192 1.4182 0.52255 1.26 0.7329 2.5699 0.6313 3.9301-0.59214 1.2287-1.4293 2.258-2.512 3.0877 1.0827 0.82973 1.9198 1.8592 2.512 3.088 0.1016 1.36-0.10875 2.6702-0.6313 3.9299 1.3523 0.17753 2.5921 0.65035 3.7192 1.4182 0.76808 1.1274 1.2406 2.367 1.4182 3.7195 1.2599-0.52255 2.5699-0.73316 3.9301-0.63156 1.2287 0.59214 2.258 1.4293 3.0877 2.512 0.82974-1.0827 1.8592-1.9198 3.088-2.512 1.36-0.1016 2.6702 0.10901 3.9298 0.63156 0.17754-1.3526 0.65035-2.5921 1.4184-3.7195 1.1271-0.76782 2.3667-1.2406 3.7192-1.4182-0.52255-1.2597-0.73316-2.5699-0.63156-3.9299 0.59214-1.2287 1.4293-2.2582 2.512-3.088-1.0827-0.82973-1.9198-1.859-2.512-3.0877-0.1016-1.3602 0.10901-2.6702 0.63156-3.9301-1.3526-0.17753-2.5921-0.65008-3.7192-1.4182-0.76808-1.1271-1.2409-2.367-1.4184-3.7192-1.2597 0.52255-2.5699 0.73289-3.9298 0.63129-1.2287-0.59213-2.2582-1.4293-3.088-2.512zm0 11.229c1.5494 0 2.8072 1.2578 2.8072 2.8072s-1.2578 2.8072-2.8072 2.8072-2.8072-1.2578-2.8072-2.8072 1.2578-2.8072 2.8072-2.8072z" fill="#fff"/>
   <path d="m156.77 113.54c-0.12832-0.16748-0.32729-0.26564-0.53842-0.26564-0.21088 0-0.40984 0.0982-0.53843 0.26564-0.73766 0.96203-1.6462 1.714-2.726 2.2556-1.2099 0.0722-2.3733-0.12435-3.4936-0.58922-0.195-0.0807-0.41619-0.0664-0.59902 0.0391-0.18282 0.10557-0.30612 0.28999-0.33337 0.49927-0.15769 1.2023-0.56886 2.3077-1.2332 3.3166-1.0118 0.66755-2.1175 1.079-3.32 1.2367-0.20928 0.0272-0.3937 0.15055-0.49927 0.33337-0.1053 0.18283-0.11985 0.40402-0.0391 0.59902 0.4646 1.12 0.66145 2.2828 0.59055 3.4888-0.5424 1.084-1.2944 1.9931-2.2569 2.7308-0.16748 0.12832-0.26564 0.32755-0.26564 0.53843 0 0.21113 0.0982 0.4101 0.26564 0.53842 0.96203 0.73766 1.714 1.6462 2.2556 2.7263 0.0722 1.2099-0.12435 2.373-0.58922 3.4933-0.0807 0.195-0.0662 0.41646 0.0391 0.59902 0.10557 0.18283 0.28999 0.30612 0.49927 0.33364 1.2023 0.15743 2.3077 0.56859 3.3166 1.233 0.66754 1.0118 1.079 2.1175 1.2367 3.32 0.0273 0.20929 0.15055 0.3937 0.33337 0.49927 0.18283 0.10557 0.40402 0.11986 0.59902 0.0392 1.12-0.46461 2.2828-0.66146 3.4888-0.59029 1.084 0.54213 1.9931 1.2943 2.7308 2.2569 0.12859 0.16721 0.32755 0.26564 0.53843 0.26564 0.21113 0 0.4101-0.0984 0.53842-0.26564 0.73766-0.96229 1.6462-1.7142 2.7263-2.2558 1.2099-0.0722 2.373 0.12462 3.4933 0.58923 0.195 0.0807 0.41646 0.0664 0.59902-0.0392 0.18283-0.10557 0.30612-0.28998 0.33364-0.49927 0.15743-1.202 0.56859-2.3077 1.233-3.3166 1.0118-0.66755 2.1175-1.0787 3.32-1.2364 0.20929-0.0275 0.3937-0.15081 0.49927-0.33364 0.10557-0.18256 0.11986-0.40402 0.0392-0.59902-0.46461-1.12-0.6612-2.2828-0.59029-3.4888 0.54213-1.084 1.2943-1.9928 2.2569-2.7308 0.16748-0.12832 0.26564-0.32729 0.26564-0.53842 0-0.21088-0.0982-0.41011-0.26564-0.53843-0.96229-0.73766-1.7142-1.6462-2.2558-2.7263-0.0722-1.2097 0.12462-2.373 0.58923-3.4933 0.0807-0.195 0.0664-0.41619-0.0392-0.59902-0.10557-0.18282-0.28998-0.30612-0.49927-0.33337-1.202-0.15769-2.3077-0.56886-3.3166-1.2332-0.66754-1.0118-1.0787-2.1175-1.2364-3.32-0.0275-0.20928-0.15081-0.3937-0.33364-0.49927-0.18256-0.10556-0.40402-0.11985-0.59902-0.0391-1.12 0.4646-2.2828 0.66145-3.4888 0.59028-1.084-0.54213-1.9928-1.2943-2.7308-2.2566zm-0.53842 1.4676c0.79057 0.86228 1.7216 1.5515 2.7935 2.068 0.0765 0.0368 0.15928 0.059 0.24394 0.0653 1.1864 0.0886 2.3373-0.0429 3.4531-0.39423 0.25347 1.1419 0.71517 2.2045 1.3851 3.1874 0.0479 0.0704 0.10822 0.13096 0.1786 0.17859 0.98319 0.67019 2.0458 1.1319 3.1877 1.3851-0.35163 1.1158-0.48313 2.267-0.3945 3.4533 6e-3 0.0847 0.0286 0.16722 0.0654 0.24395 0.51646 1.0716 1.206 2.0029 2.0682 2.7932-0.86227 0.79057-1.5518 1.7216-2.0682 2.7935-0.0368 0.0765-0.059 0.15928-0.0654 0.24394-0.0886 1.1864 0.0429 2.3373 0.3945 3.4531-1.1422 0.25347-2.2045 0.71517-3.1877 1.3851-0.0704 0.0479-0.13071 0.10822-0.1786 0.1786-0.66992 0.98319-1.1316 2.0455-1.3851 3.1877-1.1158-0.35163-2.2667-0.48313-3.4531-0.3945-0.0847 6e-3 -0.16748 0.0286-0.24394 0.0654-1.0718 0.51646-2.0029 1.206-2.7935 2.0682-0.79031-0.86227-1.7216-1.5518-2.7932-2.0682-0.0767-0.0368-0.15928-0.059-0.24394-0.0654-1.1864-0.0886-2.3376 0.0429-3.4534 0.3945-0.2532-1.1422-0.7149-2.2045-1.3851-3.1877-0.0476-0.0704-0.10821-0.13071-0.17833-0.1786-0.98319-0.66992-2.0458-1.1316-3.1877-1.3851 0.35137-1.1158 0.48287-2.2667 0.39423-3.4531-6e-3 -0.0847-0.0286-0.16748-0.0654-0.24394-0.51647-1.0718-1.2057-2.0029-2.068-2.7935 0.86228-0.79058 1.5515-1.7216 2.068-2.7932 0.0368-0.0767 0.059-0.15928 0.0654-0.24395 0.0886-1.1864-0.0429-2.3376-0.39423-3.4533 1.1419-0.25347 2.2045-0.71517 3.1877-1.3851 0.0701-0.0476 0.1307-0.10822 0.17833-0.17859 0.67019-0.98293 1.1319-2.0455 1.3851-3.1874 1.1158 0.35137 2.267 0.48286 3.4534 0.39423 0.0847-6e-3 0.16721-0.0286 0.24394-0.0653 1.0716-0.51647 2.0029-1.2057 2.7932-2.068zm0 9.4951c-1.9238 0-3.4854 1.5618-3.4854 3.4856 0 1.9238 1.5616 3.4856 3.4854 3.4856 1.9238 0 3.4856-1.5618 3.4856-3.4856 0-1.9238-1.5618-3.4856-3.4856-3.4856zm0 1.3568c1.175 0 2.1288 0.95382 2.1288 2.1288 0 1.175-0.95382 2.1288-2.1288 2.1288-1.175 0-2.1288-0.95382-2.1288-2.1288 0-1.175 0.95382-2.1288 2.1288-2.1288z"/>
   <circle cx="156.23" cy="127.99" r="9.7057" fill="#fff"/>
   <path d="m149.7 129.42 3.4065 3.4062c0.52996 0.52996 1.3888 0.52996 1.9188 0l7.7526-7.7523c0.52943-0.5297 0.52943-1.3893 0-1.9188-0.52944-0.52943-1.3893-0.52943-1.9188 0l-6.7932 6.7932-2.4471-2.4471c-0.52943-0.52943-1.3891-0.52943-1.9188 0-0.52943 0.52943-0.52943 1.3891 0 1.9188z"/>
  </g>
 </g>
</svg>
