<?xml version="1.0" encoding="UTF-8" standalone="no"?><!DOCTYPE svg PUBLIC "-//W3C//DTD SVG 1.1//EN" "http://www.w3.org/Graphics/SVG/1.1/DTD/svg11.dtd"><svg width="100%" height="100%" viewBox="0 0 3780 1465" version="1.1" xmlns="http://www.w3.org/2000/svg" xmlns:xlink="http://www.w3.org/1999/xlink" xml:space="preserve" xmlns:serif="http://www.serif.com/" style="fill-rule:evenodd;clip-rule:evenodd;stroke-linecap:round;stroke-linejoin:round;stroke-miterlimit:1.5;"><g><path d="M1127.67,1441.25c-0,-9.2 7.469,-16.669 16.669,-16.669l618.347,-0c9.2,-0 16.669,7.469 16.669,16.669c-0,9.2 -7.469,16.669 -16.669,16.669l-618.347,0c-9.2,0 -16.669,-7.469 -16.669,-16.669Zm259.913,-520.898l131.859,-0l-0,504.229l-131.859,-0l0,-504.229Z" style="stroke:#000;stroke-width:6.67px;"/><g><path d="M2451.01,1155.57l-1923.39,0.151c-60.594,0.019 -76.822,-19.246 -76.834,-57.587l-0.329,-1037.01c-0.016,-49.222 51.44,-57.628 79.542,-57.637l1920.65,-0.151c31.796,-0.01 57.62,25.797 57.63,57.594l0.329,1037.01c0.01,31.796 -25.797,57.62 -57.594,57.63Z" style="fill:#8ebbd7;"/><path d="M2451.01,1158.9l0,-0c33.637,-0.011 60.937,-27.328 60.926,-60.964c0,-0 -0.329,-1037.01 -0.329,-1037.01c-0.011,-33.637 -27.328,-60.937 -60.964,-60.926c0,0 -1920.65,0.15 -1920.65,0.15c-14.473,0.005 -34.95,2.218 -51.816,10.721c-17.404,8.775 -31.068,24.092 -31.059,50.251c-0,-0 0.329,1037.01 0.329,1037.01c0.005,16.19 2.892,29.121 10.278,38.853c10.93,14.404 32.021,22.078 69.89,22.066c-0.001,0 1923.39,-0.151 1923.39,-0.151Zm-0.002,-6.667l-1923.39,0.152c-34.845,0.011 -54.521,-6.176 -64.578,-19.43c-6.606,-8.705 -8.917,-20.343 -8.921,-34.826c-0,0 -0.33,-1037.01 -0.33,-1037.01c-0.007,-23.063 12.05,-36.56 27.395,-44.296c15.883,-8.008 35.186,-10.003 48.815,-10.007c0,-0 1920.65,-0.15 1920.65,-0.15c29.958,-0.01 54.287,24.304 54.296,54.261c0,-0 0.33,1037.01 0.33,1037.01c0.009,29.957 -24.304,54.286 -54.261,54.295l-0.001,0Z"/><path d="M506.138,21.046l-35.282,-0.001c-5.512,4.119 -14.711,14.719 -15.782,22.085l36.91,0.005c2.969,-8.447 7.857,-15.989 14.154,-22.089Z"/><path d="M488.628,68.107l-0,1031.25c-0,6.741 1.16,13.213 3.353,19.204l-38.249,-0l-2.607,-1050.45l37.503,0Z"/><path d="M526.109,68.803c0,-23.529 19.103,-42.633 42.633,-42.633l1865.02,0c23.529,0 42.632,19.104 42.632,42.633l0,1021.44c0,23.53 -19.103,42.633 -42.632,42.633l-1865.02,0c-23.53,0 -42.633,-19.103 -42.633,-42.633l0,-1021.44Z" style="fill:#eef3f6;"/><g><path d="M1800.94,292.038c0.23,-0.229 -174.475,-161.866 -174.8,-161.866l-400.611,0c-13.233,0 -23.976,10.744 -23.976,23.976l0,804.473c0,13.233 10.743,23.976 23.976,23.976l551.436,-0c13.232,-0 23.975,-10.743 23.975,-23.976l0,-666.583Z" style="fill:#fff;stroke:#000;stroke-width:6.67px;"/><path d="M1624.95,130.172l-0,120.762c-0,11.048 4.389,21.644 12.201,29.456c7.812,7.812 18.408,12.201 29.456,12.201c51.016,0 130.732,0 130.732,0" style="fill:none;stroke:#000;stroke-width:6.67px;"/><path d="M1279.51,531.556c-7.658,-3.063 -13.834,-8.985 -17.216,-16.508c-7.664,-15.25 -5.11,-30.501 3.145,-43.314c7.782,-12.067 20.674,-22.325 35.256,-30.933c18.471,-10.476 37.996,-18.974 58.251,-25.352c15.729,-28.277 29.67,-57.512 41.742,-87.533c-7.218,-16.399 -12.876,-33.441 -16.902,-50.9c-3.38,-15.722 -4.677,-31.287 -1.808,-44.651c2.948,-13.914 10.77,-26.413 25.549,-32.348c7.546,-3.026 15.722,-4.716 23.661,-3.026c8.083,1.72 14.975,6.994 18.749,14.346c3.459,6.446 4.717,13.993 4.992,21.146c0.275,7.39 -0.472,15.565 -1.848,24.134c-3.301,20.045 -10.612,44.572 -20.438,70.513c10.844,23.191 23.734,45.368 38.519,66.269c17.495,-1.382 35.091,-0.723 52.433,1.965c14.307,2.594 28.85,7.664 37.733,18.277c4.717,5.66 7.586,12.578 7.861,20.36c0.275,7.547 -1.847,15.015 -5.424,22.129c-3.098,6.592 -7.903,12.238 -13.914,16.351c-5.942,3.876 -12.96,5.775 -20.046,5.424c-13.01,-0.55 -25.705,-7.704 -36.672,-16.39c-13.334,-11.026 -25.35,-23.556 -35.807,-37.34c-26.58,3.016 -52.844,8.356 -78.492,15.958c-11.745,20.83 -25.153,40.678 -40.091,59.35c-11.477,13.757 -23.937,25.785 -36.436,30.934c-7.179,3.247 -15.33,3.655 -22.797,1.139Zm54.202,-74.719c-6.525,2.987 -12.578,6.132 -18.041,9.355c-12.893,7.625 -21.265,15.054 -25.431,21.5c-3.695,5.699 -3.773,9.826 -1.572,14.189c0.393,0.865 0.786,1.415 1.022,1.729c0.469,-0.125 0.928,-0.282 1.376,-0.471c5.384,-2.201 13.953,-9.237 24.958,-22.483c6.259,-7.663 12.162,-15.611 17.688,-23.819Zm64.46,-52.276c13.125,-3.063 26.369,-5.593 39.698,-7.586c-7.156,-10.952 -13.844,-22.203 -20.045,-33.723c-6.165,13.937 -12.719,27.699 -19.653,41.27l0,0.039Zm96.141,17.688c5.895,6.406 11.634,11.791 17.097,16.115c9.434,7.468 15.998,9.944 19.574,10.062c0.958,0.125 1.93,-0.083 2.752,-0.59c1.635,-1.291 2.908,-2.984 3.694,-4.913c1.398,-2.394 2.194,-5.092 2.319,-7.861c-0.022,-0.923 -0.387,-1.806 -1.022,-2.476c-2.043,-2.437 -7.861,-5.974 -20.36,-8.215c-7.95,-1.329 -15.994,-2.026 -24.054,-2.083l-0,-0.039Zm-78.218,-137.804c3.308,-10.671 5.934,-21.541 7.861,-32.545c1.219,-7.389 1.69,-13.482 1.494,-18.277c0.011,-2.645 -0.414,-5.275 -1.258,-7.782c-1.966,0.243 -3.886,0.773 -5.699,1.572c-3.42,1.376 -6.21,4.166 -7.704,11.123c-1.572,7.547 -1.179,18.434 1.808,32.309c0.943,4.363 2.123,8.922 3.538,13.6l-0.04,-0Z" style="fill:#ef0707;fill-rule:nonzero;"/><g><path d="M1552.21,869.336l0,184.534l53.265,-48.244l53.265,48.244l-0,-184.534l-106.53,0Z" style="fill:#fff;"/><path d="M1552.21,866.003c-1.841,-0 -3.333,1.492 -3.333,3.333l0,184.534c0,1.318 0.777,2.513 1.982,3.047c1.205,0.535 2.612,0.309 3.589,-0.576l51.027,-46.218c-0,-0 51.027,46.218 51.027,46.218c0.977,0.885 2.384,1.111 3.589,0.576c1.205,-0.534 1.982,-1.729 1.982,-3.047l-0,-184.534c-0,-1.841 -1.492,-3.333 -3.333,-3.333c-0,-0 -106.53,-0 -106.53,-0Zm3.334,6.666l99.862,0c0,0 0,173.685 0,173.685c0,-0.001 -47.693,-43.199 -47.693,-43.199c-1.27,-1.15 -3.206,-1.15 -4.476,0l-47.693,43.198l-0,-173.684Z"/><path d="M1605.48,670.828c-8.595,11.212 -19.257,19.885 -31.985,26.019c-14.089,1.052 -27.659,-1.128 -40.709,-6.541c-1.837,14.008 -6.734,26.85 -14.69,38.525c-11.675,7.956 -24.517,12.853 -38.526,14.69c5.413,13.051 7.594,26.62 6.541,40.71c-6.133,12.727 -14.806,23.389 -26.019,31.984c11.213,8.596 19.886,19.257 26.019,31.985c1.053,14.089 -1.128,27.659 -6.541,40.709c14.009,1.838 26.851,6.734 38.526,14.69c7.956,11.676 12.853,24.517 14.69,38.526c13.05,-5.413 26.62,-7.593 40.709,-6.541c12.728,6.133 23.39,14.806 31.985,26.019c8.595,-11.213 19.257,-19.886 31.985,-26.019c14.089,-1.052 27.659,1.128 40.709,6.541c1.837,-14.009 6.734,-26.85 14.69,-38.526c11.675,-7.956 24.517,-12.852 38.525,-14.69c-5.412,-13.05 -7.593,-26.62 -6.54,-40.709c6.133,-12.728 14.806,-23.389 26.019,-31.985c-11.213,-8.595 -19.886,-19.257 -26.019,-31.984c-1.053,-14.09 1.128,-27.659 6.54,-40.71c-14.008,-1.837 -26.85,-6.734 -38.525,-14.69c-7.956,-11.675 -12.853,-24.517 -14.69,-38.525c-13.05,5.413 -26.62,7.593 -40.709,6.541c-12.728,-6.134 -23.39,-14.807 -31.985,-26.019Zm-0,116.31c16.048,-0 29.078,13.029 29.078,29.077c-0,16.049 -13.03,29.078 -29.078,29.078c-16.048,-0 -29.078,-13.029 -29.078,-29.078c0,-16.048 13.03,-29.077 29.078,-29.077Z" style="fill:#ef0707;"/><path d="M1608.12,668.8c-0.63,-0.823 -1.608,-1.306 -2.645,-1.306c-1.037,0 -2.015,0.483 -2.646,1.306c-8.143,10.623 -18.213,18.878 -30.21,24.764c-13.345,0.905 -26.195,-1.208 -38.561,-6.337c-0.958,-0.397 -2.046,-0.326 -2.944,0.192c-0.898,0.519 -1.503,1.425 -1.638,2.453c-1.741,13.272 -6.334,25.456 -13.781,36.552c-11.104,7.457 -23.289,12.051 -36.563,13.792c-1.028,0.135 -1.935,0.741 -2.453,1.639c-0.519,0.898 -0.59,1.986 -0.192,2.944c5.128,12.364 7.241,25.212 6.341,38.545c-5.888,12.009 -14.144,22.081 -24.769,30.226c-0.823,0.631 -1.305,1.608 -1.305,2.645c-0,1.037 0.482,2.015 1.305,2.646c10.624,8.143 18.878,18.213 24.764,30.21c0.906,13.345 -1.208,26.195 -6.336,38.561c-0.398,0.958 -0.327,2.046 0.192,2.944c0.518,0.898 1.425,1.503 2.453,1.638c13.272,1.741 25.456,6.335 36.552,13.781c7.456,11.104 12.051,23.29 13.792,36.563c0.135,1.028 0.74,1.935 1.638,2.454c0.898,0.518 1.986,0.589 2.944,0.192c12.364,-5.129 25.213,-7.242 38.545,-6.341c12.01,5.888 22.082,14.143 30.226,24.768c0.631,0.823 1.609,1.305 2.646,1.305c1.037,0 2.015,-0.482 2.645,-1.305c8.144,-10.623 18.214,-18.878 30.211,-24.764c13.345,-0.906 26.195,1.208 38.561,6.337c0.957,0.397 2.046,0.326 2.944,-0.192c0.897,-0.519 1.503,-1.426 1.638,-2.454c1.741,-13.271 6.334,-25.455 13.781,-36.551c11.104,-7.457 23.289,-12.052 36.563,-13.793c1.028,-0.135 1.935,-0.74 2.453,-1.638c0.519,-0.898 0.59,-1.986 0.192,-2.944c-5.128,-12.364 -7.242,-25.212 -6.341,-38.545c5.888,-12.01 14.144,-22.082 24.769,-30.226c0.823,-0.631 1.305,-1.609 1.305,-2.646c0,-1.037 -0.482,-2.014 -1.305,-2.645c-10.624,-8.144 -18.878,-18.214 -24.765,-30.211c-0.905,-13.345 1.208,-26.195 6.337,-38.56c0.398,-0.958 0.327,-2.046 -0.192,-2.944c-0.518,-0.898 -1.425,-1.504 -2.453,-1.639c-13.272,-1.74 -25.456,-6.334 -36.552,-13.781c-7.456,-11.104 -12.051,-23.289 -13.792,-36.563c-0.135,-1.028 -0.741,-1.934 -1.638,-2.453c-0.898,-0.518 -1.987,-0.589 -2.944,-0.192c-12.364,5.128 -25.213,7.242 -38.545,6.341c-12.01,-5.888 -22.082,-14.144 -30.227,-24.768Zm-2.645,7.355c8.43,10.048 18.609,17.946 30.538,23.694c0.376,0.182 0.782,0.291 1.198,0.322c13.205,0.986 25.969,-0.765 38.294,-5.252c2.277,12.918 7.143,24.847 14.599,35.789c0.235,0.345 0.533,0.643 0.878,0.878c10.942,7.456 22.872,12.323 35.789,14.599c-4.487,12.325 -6.238,25.089 -5.251,38.294c0.031,0.416 0.14,0.823 0.321,1.199c5.748,11.928 13.646,22.107 23.695,30.537c-10.049,8.43 -17.947,18.61 -23.695,30.538c-0.181,0.376 -0.29,0.783 -0.321,1.199c-0.987,13.204 0.764,25.969 5.251,38.293c-12.917,2.277 -24.847,7.143 -35.789,14.6c-0.345,0.235 -0.643,0.532 -0.878,0.877c-7.456,10.942 -12.322,22.872 -14.599,35.789c-12.325,-4.487 -25.089,-6.237 -38.294,-5.251c-0.416,0.031 -0.822,0.14 -1.198,0.321c-11.929,5.748 -22.108,13.646 -30.538,23.695c-8.43,-10.049 -18.609,-17.947 -30.538,-23.695c-0.376,-0.181 -0.782,-0.29 -1.198,-0.321c-13.205,-0.986 -25.969,0.764 -38.294,5.252c-2.277,-12.918 -7.143,-24.848 -14.599,-35.79c-0.235,-0.345 -0.533,-0.642 -0.878,-0.877c-10.942,-7.457 -22.872,-12.323 -35.789,-14.599c4.487,-12.325 6.238,-25.09 5.251,-38.294c-0.031,-0.416 -0.14,-0.823 -0.321,-1.199c-5.748,-11.928 -13.646,-22.108 -23.695,-30.538c10.049,-8.43 17.947,-18.609 23.695,-30.537c0.181,-0.376 0.29,-0.783 0.321,-1.199c0.987,-13.204 -0.764,-25.969 -5.251,-38.294c12.917,-2.276 24.847,-7.143 35.789,-14.599c0.345,-0.235 0.643,-0.533 0.878,-0.878c7.456,-10.942 12.322,-22.871 14.598,-35.789c12.326,4.487 25.09,6.238 38.295,5.252c0.416,-0.031 0.822,-0.14 1.198,-0.322c11.929,-5.748 22.108,-13.646 30.538,-23.694l0,-0Zm-0,107.649c-17.888,0 -32.411,14.523 -32.411,32.411c0,17.888 14.523,32.411 32.411,32.411c17.888,0 32.411,-14.523 32.411,-32.411c-0,-17.888 -14.523,-32.411 -32.411,-32.411Zm-0,6.667c14.209,0 25.744,11.536 25.744,25.744c0,14.209 -11.535,25.745 -25.744,25.745c-14.209,-0 -25.744,-11.536 -25.744,-25.745c-0,-14.208 11.535,-25.744 25.744,-25.744Z"/><circle cx="1605.48" cy="816.215" r="100.536" style="fill:#ef0707;"/><path d="M1537.75,831.019l35.286,35.285c5.488,5.488 14.386,5.488 19.874,0l80.304,-80.303c5.484,-5.485 5.484,-14.39 -0,-19.875c-5.485,-5.484 -14.39,-5.484 -19.875,0l-70.366,70.366c0,0.001 -25.348,-25.348 -25.348,-25.348c-5.485,-5.484 -14.39,-5.484 -19.875,0c-5.484,5.485 -5.484,14.39 0,19.875Z" style="fill:#fff;"/></g></g></g><g><path d="M1899.13,1409.88l1243.92,0.108c43.071,0.013 59.763,-13.682 70.034,-40.939l277.792,-737.204c13.185,-34.992 -21.144,-40.968 -41.119,-40.974l-1241.97,-0.107c-22.601,-0.007 -47.866,18.339 -56.383,40.943l-277.792,737.204c-8.518,22.604 2.916,40.962 25.518,40.969Z" style="fill:#b0d6e0;"/><path d="M1899.13,1412.65l1243.92,0.108c22.219,0.007 37.612,-3.625 48.798,-10.671c11.342,-7.145 18.462,-17.807 23.835,-32.066c0,-0 277.792,-737.205 277.792,-737.205c4.316,-11.453 3.791,-20.061 0.598,-26.495c-3.021,-6.087 -8.497,-10.322 -15.037,-13.135c-9.217,-3.966 -20.561,-5.098 -29.279,-5.101l-1241.97,-0.107c-23.626,-0.007 -50.08,19.112 -58.984,42.741c0,0 -277.792,737.205 -277.792,737.205c-4.62,12.26 -3.679,23.362 1.331,31.406c5.076,8.15 14.367,13.316 26.786,13.32Zm0.001,-5.556c-10.183,-0.003 -17.909,-4.019 -22.071,-10.701c-4.228,-6.788 -4.746,-16.166 -0.848,-26.51c0,-0 277.792,-737.205 277.792,-737.205c8.131,-21.579 32.207,-39.151 53.784,-39.144l1241.97,0.107c8.061,0.002 18.561,0.981 27.084,4.648c5.287,2.275 9.814,5.582 12.256,10.502c2.66,5.361 2.776,12.523 -0.819,22.066c-0,0 -277.792,737.205 -277.792,737.205c-4.898,12.997 -11.26,22.811 -21.599,29.324c-10.496,6.613 -24.984,9.822 -45.835,9.816l-1243.92,-0.108Z"/><path d="M3467.67,603.351l21.318,3.514c2.816,2.928 4.343,10.478 3.132,15.714l-20.301,-3.525c0.151,-6.004 -1.306,-11.365 -4.149,-15.703Z"/><path d="M3466.12,636.807l-276.016,733.109c-1.804,4.792 -4.361,9.393 -7.524,13.652l21.683,4.747l283.506,-748.592l-21.649,-2.916Z"/><path d="M3441.26,637.302c6.298,-16.727 -2.169,-30.307 -18.897,-30.307l-1211.79,-0c-16.727,-0 -35.42,13.58 -41.718,30.307l-273.389,726.133c-6.298,16.727 2.169,30.307 18.896,30.307l1211.79,-0c16.727,-0 35.42,-13.58 41.718,-30.307l273.389,-726.133Z" style="fill:#336b8b;"/><g><path d="M2883.83,816.914c0.207,-0.15 -74.162,-105.733 -74.374,-105.733l-261.686,-0c-8.644,-0 -18.303,7.017 -21.558,15.661l-197.849,525.496c-3.255,8.643 1.121,15.661 9.764,15.661l360.208,0c8.644,0 18.303,-7.018 21.558,-15.661l163.937,-435.424Z" style="fill:#fff;stroke:#000;stroke-width:5.73px;"/><path d="M2808.67,711.181c0,-0 -9.177,24.375 -18.734,49.759c-4.818,12.795 -3.05,27.14 4.731,38.383c7.78,11.243 20.582,17.953 34.255,17.953c26.796,-0 52.411,-0 52.411,-0" style="fill:none;stroke:#000;stroke-width:5.56px;"/><path d="M2484.31,973.372c-4.25,-2.001 -6.827,-5.87 -7.186,-10.784c-1.256,-9.962 4.164,-19.923 12.707,-28.293c8.051,-7.883 18.995,-14.584 30.638,-20.207c14.641,-6.843 29.485,-12.393 44.285,-16.56c17.229,-18.471 33.525,-37.567 48.794,-57.178c-0.682,-10.712 -0.187,-21.844 1.478,-33.249c1.658,-10.269 4.639,-20.437 9.8,-29.166c5.348,-9.089 13.531,-17.254 24.644,-21.131c5.674,-1.977 11.43,-3.081 16.201,-1.977c4.856,1.124 8.061,4.569 8.718,9.372c0.674,4.21 -0.36,9.14 -1.94,13.813c-1.637,4.827 -4.136,10.167 -7.142,15.764c-7.086,13.094 -17.894,29.115 -30.692,46.061c1.38,15.148 4.346,29.635 8.863,43.288c11.768,-0.903 23.1,-0.472 33.767,1.283c8.708,1.695 16.96,5.007 20.153,11.939c1.689,3.697 1.862,8.216 0.128,13.3c-1.677,4.929 -4.9,9.808 -8.986,14.455c-3.645,4.306 -8.172,7.994 -13.11,10.68c-4.835,2.532 -9.886,3.773 -14.428,3.544c-8.363,-0.36 -14.897,-5.033 -19.924,-10.707c-5.999,-7.202 -10.766,-15.387 -14.206,-24.391c-18.105,1.97 -36.574,5.458 -55.198,10.424c-12.795,13.607 -26.434,26.572 -40.784,38.769c-10.881,8.986 -21.978,16.843 -31.409,20.206c-5.488,2.122 -10.912,2.388 -15.171,0.745Zm53.781,-48.808c-4.996,1.951 -9.724,4.005 -14.085,6.11c-10.297,4.981 -17.592,9.834 -21.899,14.045c-3.815,3.722 -4.882,6.418 -4.517,9.268c0.044,0.565 0.166,0.924 0.242,1.13c0.337,-0.082 0.676,-0.185 1.015,-0.308c4.059,-1.438 11.386,-6.034 21.833,-14.686c5.973,-5.006 11.783,-10.198 17.411,-15.559Zm54.964,-34.148c9.326,-2.001 18.6,-3.654 27.797,-4.955c-1.981,-7.154 -3.583,-14.504 -4.8,-22.029c-7.455,9.104 -15.12,18.094 -22.988,26.959l-0.009,0.025Zm58.45,11.554c2.276,4.185 4.7,7.702 7.206,10.527c4.325,4.878 8.004,6.495 10.311,6.572c0.595,0.082 1.281,-0.054 1.942,-0.385c1.386,-0.843 2.634,-1.949 3.622,-3.209c1.502,-1.564 2.685,-3.326 3.448,-5.135c0.212,-0.603 0.192,-1.18 -0.058,-1.618c-0.736,-1.591 -3.666,-3.902 -11.28,-5.366c-4.866,-0.868 -9.949,-1.323 -15.2,-1.36l0.009,-0.026Zm-17.201,-90.016c4.785,-6.97 9.173,-14.071 13.138,-21.259c2.614,-4.827 4.42,-8.806 5.471,-11.939c0.658,-1.728 1.027,-3.445 1.092,-5.083c-1.344,0.159 -2.728,0.505 -4.109,1.027c-2.572,0.898 -5.081,2.721 -7.768,7.266c-2.883,4.929 -5.304,12.041 -6.765,21.105c-0.457,2.849 -0.808,5.828 -1.034,8.883l-0.025,-0Z" style="fill:#ef0707;fill-rule:nonzero;"/><g><path d="M2579.38,1194.02l-45.384,120.541l46.658,-31.514l22.929,31.514l45.383,-120.541l-69.586,0Z" style="fill:#fff;"/><path d="M2579.38,1191.24c-1.157,-0 -2.192,0.716 -2.6,1.799l-45.384,120.54c-0.426,1.132 -0.071,2.41 0.878,3.159c0.95,0.749 2.274,0.799 3.277,0.122l44.435,-30.013c0,0 21.351,29.345 21.351,29.345c0.6,0.826 1.606,1.256 2.618,1.119c1.012,-0.137 1.867,-0.818 2.227,-1.774l45.384,-120.541c0.321,-0.853 0.203,-1.81 -0.316,-2.559c-0.518,-0.75 -1.372,-1.197 -2.284,-1.197c0,-0 -69.586,-0 -69.586,-0Zm1.922,5.555l63.651,-0c-0,-0 -42.155,111.964 -42.155,111.964c0,-0 -19.898,-27.349 -19.898,-27.349c-0.88,-1.21 -2.56,-1.505 -3.8,-0.668l-39.432,26.633l41.634,-110.58Z"/><path d="M2662.99,1064.35c-8.373,7.324 -17.47,12.99 -27.293,16.996c-9.462,0.688 -17.789,-0.737 -24.983,-4.272c-4.645,9.15 -11.002,17.539 -19.07,25.165c-9.584,5.197 -19.176,8.396 -28.779,9.596c0.326,8.525 -1.587,17.389 -5.739,26.592c-7.137,8.314 -15.424,15.278 -24.863,20.893c5.211,5.615 8.254,12.579 9.13,20.893c-2.777,9.203 -7.539,18.067 -14.284,26.592c8.699,1.2 15.883,4.399 21.553,9.596c2.325,7.626 2.366,16.015 0.121,25.165c9.856,-3.536 19.256,-4.96 28.2,-4.272c6.806,4.006 11.637,9.671 14.494,16.996c8.372,-7.325 17.47,-12.99 27.292,-16.996c9.462,-0.688 17.79,0.736 24.983,4.272c4.646,-9.15 11.003,-17.539 19.071,-25.165c9.583,-5.197 19.176,-8.396 28.778,-9.596c-0.326,-8.525 1.587,-17.389 5.74,-26.592c7.136,-8.314 15.424,-15.278 24.862,-20.893c-5.21,-5.615 -8.254,-12.579 -9.13,-20.893c2.778,-9.203 7.539,-18.067 14.285,-26.592c-8.699,-1.2 -15.883,-4.399 -21.553,-9.596c-2.326,-7.626 -2.366,-16.015 -0.121,-25.165c-9.856,3.535 -19.256,4.96 -28.201,4.272c-6.805,-4.006 -11.636,-9.672 -14.493,-16.996Zm-28.605,75.976c10.483,-0 15.789,8.511 11.842,18.994c-3.947,10.483 -15.662,18.994 -26.145,18.994c-10.483,-0 -15.79,-8.511 -11.843,-18.994c3.947,-10.483 15.662,-18.994 26.146,-18.994Z" style="fill:#ef0707;"/><path d="M2665.58,1063.34c-0.329,-0.844 -1.048,-1.474 -1.927,-1.689c-0.879,-0.215 -1.808,0.011 -2.489,0.607c-8.014,7.011 -16.71,12.461 -26.092,16.342c-8.752,0.579 -16.46,-0.742 -23.13,-4.02c-1.364,-0.671 -3.013,-0.12 -3.702,1.235c-4.453,8.772 -10.532,16.817 -18.228,24.145c-9.161,4.928 -18.318,7.972 -27.488,9.118c-1.431,0.179 -2.487,1.422 -2.431,2.862c0.306,8.012 -1.486,16.332 -5.33,24.972c-6.883,7.958 -14.854,14.629 -23.917,20.02c-0.721,0.429 -1.209,1.16 -1.329,1.991c-0.119,0.83 0.143,1.67 0.713,2.285c4.693,5.056 7.458,11.308 8.341,18.736c-2.704,8.7 -7.257,17.073 -13.637,25.136c-0.619,0.782 -0.771,1.835 -0.399,2.76c0.371,0.924 1.21,1.579 2.197,1.715c7.801,1.077 14.304,3.852 19.486,8.382c1.977,6.992 1.912,14.645 -0.13,22.966c-0.244,0.994 0.078,2.041 0.838,2.726c0.76,0.684 1.835,0.896 2.798,0.551c9.214,-3.306 18.011,-4.706 26.395,-4.164c5.972,3.661 10.227,8.754 12.773,15.282c0.329,0.843 1.048,1.473 1.928,1.689c0.879,0.215 1.808,-0.012 2.489,-0.608c8.014,-7.011 16.71,-12.46 26.092,-16.342c8.751,-0.578 16.46,0.743 23.129,4.021c1.364,0.67 3.014,0.12 3.702,-1.236c4.453,-8.771 10.532,-16.817 18.228,-24.144c9.162,-4.929 18.319,-7.972 27.489,-9.118c1.43,-0.179 2.486,-1.422 2.431,-2.862c-0.307,-8.012 1.486,-16.333 5.329,-24.973c6.883,-7.957 14.855,-14.628 23.917,-20.019c0.721,-0.429 1.21,-1.161 1.329,-1.991c0.12,-0.831 -0.142,-1.671 -0.713,-2.286c-4.692,-5.056 -7.458,-11.307 -8.341,-18.735c2.705,-8.7 7.257,-17.073 13.638,-25.137c0.618,-0.781 0.771,-1.834 0.399,-2.759c-0.372,-0.925 -1.21,-1.579 -2.198,-1.716c-7.8,-1.076 -14.304,-3.851 -19.486,-8.382c-1.977,-6.991 -1.911,-14.644 0.131,-22.966c0.243,-0.993 -0.079,-2.04 -0.839,-2.725c-0.759,-0.685 -1.834,-0.896 -2.797,-0.551c-9.215,3.306 -18.011,4.705 -26.395,4.164c-5.972,-3.661 -10.227,-8.754 -12.774,-15.282Zm-3.615,5.514c3.171,6.25 7.874,11.212 14.112,14.885c0.365,0.215 0.774,0.343 1.197,0.376c7.899,0.607 16.143,-0.355 24.727,-2.91c-1.296,7.841 -0.899,15.122 1.15,21.843c0.145,0.475 0.414,0.902 0.78,1.238c5.048,4.627 11.209,7.795 18.498,9.469c-5.533,7.695 -9.533,15.653 -12.012,23.868c-0.107,0.354 -0.142,0.726 -0.103,1.094c0.814,7.73 3.386,14.37 7.685,19.931c-8.552,5.454 -16.14,12.039 -22.763,19.755c-0.172,0.201 -0.315,0.425 -0.424,0.666c-3.94,8.734 -5.934,17.179 -6.018,25.33c-9.105,1.449 -18.204,4.63 -27.292,9.559c-0.212,0.115 -0.409,0.257 -0.584,0.423c-7.615,7.198 -13.746,15.059 -18.4,23.575c-7.025,-2.923 -15.005,-4.083 -23.947,-3.434c-0.291,0.021 -0.577,0.088 -0.848,0.199c-8.996,3.669 -17.402,8.688 -25.215,15.063c-3.171,-6.251 -7.874,-11.213 -14.113,-14.885c-0.365,-0.215 -0.774,-0.343 -1.196,-0.376c-7.9,-0.607 -16.143,0.355 -24.727,2.909c1.295,-7.841 0.899,-15.121 -1.151,-21.843c-0.144,-0.474 -0.414,-0.902 -0.78,-1.237c-5.048,-4.627 -11.208,-7.796 -18.497,-9.469c5.533,-7.695 9.532,-15.653 12.012,-23.869c0.106,-0.354 0.141,-0.725 0.103,-1.093c-0.815,-7.731 -3.387,-14.37 -7.686,-19.932c8.553,-5.453 16.14,-12.038 22.763,-19.754c0.173,-0.201 0.316,-0.425 0.425,-0.667c3.94,-8.733 5.934,-17.179 6.018,-25.329c9.104,-1.45 18.204,-4.631 27.292,-9.559c0.212,-0.115 0.408,-0.257 0.584,-0.423c7.615,-7.199 13.746,-15.059 18.4,-23.576c7.025,2.924 15.004,4.084 23.947,3.434c0.291,-0.021 0.577,-0.088 0.847,-0.198c8.996,-3.669 17.402,-8.689 25.216,-15.063l0,-0Zm-27.577,68.693c-11.509,0 -24.412,9.285 -28.745,20.793c-2.334,6.2 -1.783,11.81 0.752,15.877c2.601,4.171 7.331,6.873 13.69,6.873c11.508,0 24.412,-9.284 28.745,-20.792c2.334,-6.2 1.783,-11.81 -0.753,-15.877c-2.601,-4.171 -7.33,-6.874 -13.689,-6.874Zm-0,5.556c4.124,-0 7.288,1.552 8.975,4.257c1.752,2.81 1.881,6.696 0.268,10.98c-3.561,9.458 -14.088,17.195 -23.546,17.195c-4.124,0 -7.289,-1.552 -8.975,-4.258c-1.753,-2.81 -1.881,-6.695 -0.268,-10.979c3.561,-9.458 14.088,-17.195 23.546,-17.195Z"/><path d="M2651.96,1093.64c36.245,0 54.592,29.427 40.946,65.672c-13.646,36.245 -54.152,65.671 -90.397,65.671c-36.245,0 -54.593,-29.426 -40.946,-65.671c13.646,-36.245 54.152,-65.672 90.397,-65.672Z" style="fill:#ef0707;"/><path d="M2579.35,1168.99l14.371,23.049c2.235,3.585 8.048,3.585 12.983,-0l72.205,-52.456c4.931,-3.582 7.121,-9.4 4.887,-12.982c-2.233,-3.583 -8.05,-3.583 -12.982,-0l-63.27,45.964c0,0 -10.324,-16.558 -10.324,-16.558c-2.233,-3.582 -8.051,-3.582 -12.982,0c-4.931,3.583 -7.122,9.4 -4.888,12.983Z" style="fill:#fff;"/></g></g></g><path d="M3156.67,1409.98l-1504.17,-0l-0,47.931l1496.31,0c34.377,-0.56 31.198,-47.931 7.858,-47.931Z"/><path d="M3156.67,1406.65l-1504.17,0c-6.666,0 -0.001,6.667 -0.001,6.667c-1.841,-0 -3.333,-1.492 -3.333,-3.333l-0,47.931c-0,1.841 1.492,3.334 3.333,3.334l1496.31,-0c0.018,-0 0.036,-0 0.054,-0.001c9.299,-0.151 16.129,-3.421 20.822,-8.183c7.026,-7.128 9.265,-17.763 7.472,-27.005c-2.084,-10.741 -9.508,-19.41 -20.489,-19.41Zm-0.001,6.667c7.692,0 12.486,6.489 13.945,14.012c1.395,7.194 -0.207,15.509 -5.675,21.056c-3.626,3.679 -8.953,6.068 -16.128,6.197c-0.031,0 -1492.98,0 -1492.98,0c0,0 0,-41.265 0,-41.265c0,-0 1500.83,-0 1500.83,-0l0.001,-0Z"/><path d="M2746.61,1409.98l-1287.63,-0c10.019,27.55 18.536,47.931 115.54,47.931l1067.62,0c74.436,-0.181 100.301,-18.455 104.47,-47.931Z" style="fill:#8ebbd7;"/><path d="M2749.91,1410.45c0.135,-0.956 -0.151,-1.923 -0.784,-2.652c-0.633,-0.729 -1.551,-1.148 -2.517,-1.148l-1287.63,0c-1.088,0 -2.107,0.531 -2.73,1.421c-0.624,0.891 -0.774,2.03 -0.403,3.052c4.212,11.582 8.278,21.894 18.037,30.176c14.245,12.088 41.118,19.95 100.636,19.95l1067.63,-0c30.245,-0.074 52.59,-3.132 68.794,-8.639c25.475,-8.657 36.305,-23.33 38.969,-42.16Zm-7.288,2.867c-3.258,14.683 -13.192,25.968 -33.826,32.981c-15.699,5.336 -37.359,8.212 -66.662,8.284c-0,0 -1067.62,0 -1067.62,0c-56.887,0 -82.707,-6.812 -96.322,-18.366c-7.539,-6.397 -11.167,-14.224 -14.439,-22.9l1278.86,0.001Z"/><path d="M1988.23,1428.4l130.97,-0" style="fill:none;stroke:#000;stroke-width:6.67px;"/><g><path d="M774.613,1457.81l-338.549,0.107c-43.073,0.014 -55.312,-3.975 -61.858,-40.938c-130.567,-737.205 -0,-0 -130.567,-737.205c-4.308,-24.328 29.326,-40.967 49.303,-40.973l336.597,-0.107c22.603,-0.008 44.204,18.338 48.208,40.942l130.566,737.205c4.003,22.604 -11.097,40.962 -33.7,40.969Z" style="fill:#8ebbd7;"/><path d="M305.925,1048.91l-0.009,-0.008l65.284,368.602c2.764,15.606 6.652,25.577 13.037,32.002c4.939,4.971 11.385,7.924 20.149,9.555c8.196,1.526 18.524,1.907 31.679,1.902c0,0 338.549,-0.107 338.549,-0.107c24.596,-0.008 41.062,-19.957 36.705,-44.554c0,-0 -130.566,-737.205 -130.566,-737.205c-4.252,-24.006 -27.209,-43.471 -51.215,-43.463c0,-0 -336.597,0.107 -336.597,0.107c-12.618,0.004 -30.418,6.295 -41.654,16.873c-7.887,7.424 -12.564,16.9 -10.654,27.686c58.755,331.742 64.631,364.916 65.218,368.233c0.023,0.131 0.048,0.257 0.074,0.377Zm6,-1.045c-0.017,-0.128 -0.037,-0.26 -0.062,-0.396c-0.587,-3.318 -6.463,-36.492 -65.217,-368.234c-1.537,-8.678 2.48,-16.202 8.826,-22.175c10.111,-9.518 26.116,-15.21 37.471,-15.214c-0,0 336.597,-0.106 336.597,-0.106c21.201,-0.007 41.445,17.22 45.2,38.422c0,-0 130.567,737.205 130.567,737.205c3.65,20.61 -10.085,37.376 -30.695,37.383l-338.549,0.107c-12.689,0.004 -22.654,-0.327 -30.56,-1.799c-7.337,-1.365 -12.8,-3.694 -16.935,-7.855c-5.713,-5.751 -8.883,-14.798 -11.356,-28.764c-58.755,-331.742 -64.63,-364.916 -65.218,-368.233c-0.022,-0.123 -0.045,-0.237 -0.069,-0.341Z"/><path d="M278.189,651.283l-30.29,6.8c-3.4,2.928 -3.4,10.924 -3.235,16.16l26.24,-7.257c1.048,-6.004 3.576,-11.366 7.285,-15.703Z"/><path d="M271.656,684.739l129.609,733.109c1.15,6.411 9.526,34.708 28.277,36.782c-19.749,3.379 -36.12,-0.584 -48.745,-14.303l-134.733,-749.629l25.592,-5.959Z"/><path d="M284.593,685.234c-2.957,-16.727 8.222,-30.308 24.949,-30.308l318.227,0c16.727,0 32.708,13.581 35.665,30.308l128.375,726.132c2.958,16.727 -8.222,30.308 -24.949,30.308l-318.227,-0c-16.727,-0 -32.708,-13.581 -35.665,-30.308l-128.375,-726.132Z" style="fill:#e1edf4;"/><g><path d="M654.468,906.902c0.089,-0.108 -95.731,-76.298 -95.884,-76.298l-188.834,0c-6.237,0 -10.406,5.064 -9.303,11.301l67.04,379.201c1.103,6.237 7.062,11.301 13.299,11.301l259.928,0c6.237,0 10.406,-5.064 9.303,-11.301l-55.549,-314.204Z" style="fill:#fff;stroke:#000;stroke-width:5.42px;"/><path d="M558.02,830.604c0,0 3.857,21.814 7.452,42.153c3.519,19.901 20.813,34.406 41.022,34.406c22.022,-0 46.319,-0 46.319,-0" style="fill:none;stroke:#000;stroke-width:7.28px;"/><path d="M428.641,1019.8c-3.865,-1.444 -7.27,-4.236 -9.491,-7.782c-4.883,-7.188 -4.95,-14.377 -2.127,-20.417c2.663,-5.688 7.885,-10.523 14.041,-14.58c7.833,-4.938 16.329,-8.944 25.344,-11.95c5.058,-13.329 9.193,-27.109 12.382,-41.26c-4.769,-7.73 -8.856,-15.763 -12.209,-23.993c-2.903,-7.411 -4.812,-14.747 -4.573,-21.047c0.23,-6.558 2.875,-12.45 9.347,-15.247c3.305,-1.427 7.018,-2.224 10.901,-1.427c3.953,0.811 7.642,3.297 10.033,6.762c2.168,3.039 3.389,6.596 4.115,9.968c0.746,3.483 1.075,7.337 1.141,11.376c0.114,9.448 -1.288,21.009 -3.758,33.237c7.044,10.931 14.968,21.385 23.679,31.237c8.131,-0.651 16.48,-0.341 24.878,0.926c6.96,1.223 14.238,3.613 19.31,8.615c2.694,2.668 4.623,5.929 5.402,9.597c0.758,3.558 0.38,7.078 -0.713,10.431c-0.911,3.107 -2.705,5.769 -5.196,7.707c-2.478,1.827 -5.628,2.722 -8.997,2.557c-6.178,-0.259 -12.759,-3.631 -18.651,-7.726c-7.205,-5.197 -13.913,-11.103 -19.99,-17.6c-12.278,1.421 -24.213,3.938 -35.669,7.522c-3.801,9.818 -8.466,19.174 -13.952,27.975c-4.263,6.485 -9.134,12.154 -14.597,14.581c-3.113,1.531 -6.921,1.723 -10.65,0.538Zm19.322,-35.22c-2.827,1.408 -5.418,2.89 -7.724,4.409c-5.442,3.594 -8.769,7.096 -10.196,10.134c-1.266,2.687 -0.96,4.632 0.442,6.689c0.257,0.407 0.488,0.667 0.625,0.815c0.211,-0.059 0.415,-0.133 0.61,-0.223c2.354,-1.037 5.807,-4.353 9.891,-10.597c2.311,-3.612 4.431,-7.359 6.352,-11.227Zm26.028,-24.641c5.931,-1.444 11.963,-2.637 18.08,-3.576c-4.286,-5.163 -8.376,-10.466 -12.259,-15.896c-1.744,6.569 -3.687,13.056 -5.824,19.453l0.003,0.019Zm46.791,8.337c3.313,3.02 6.467,5.558 9.402,7.596c5.069,3.52 8.37,4.687 10.065,4.743c0.462,0.059 0.903,-0.039 1.248,-0.278c0.663,-0.609 1.122,-1.407 1.332,-2.316c0.459,-1.129 0.61,-2.4 0.438,-3.705c-0.087,-0.436 -0.333,-0.852 -0.688,-1.168c-1.166,-1.148 -4.203,-2.816 -10.281,-3.872c-3.859,-0.627 -7.708,-0.955 -11.513,-0.982l-0.003,-0.018Zm-48.352,-64.956c0.67,-5.03 1.001,-10.154 0.993,-15.341c-0.042,-3.483 -0.327,-6.354 -0.819,-8.615c-0.216,-1.247 -0.635,-2.486 -1.242,-3.668c-0.906,0.115 -1.767,0.364 -2.555,0.741c-1.497,0.648 -2.58,1.964 -2.704,5.243c-0.113,3.557 0.98,8.689 3.544,15.229c0.809,2.057 1.744,4.206 2.801,6.411l-0.018,-0Z" style="fill:#ef0707;fill-rule:nonzero;"/><g><path d="M585.333,1179.02l15.377,86.983l21.087,-22.741l29.128,22.741l-15.378,-86.983l-50.214,-0Z" style="fill:#fff;"/><path d="M585.333,1176.31c-0.801,-0 -1.561,0.354 -2.076,0.968c-0.514,0.613 -0.731,1.423 -0.591,2.211l15.377,86.983c0.179,1.013 0.916,1.836 1.902,2.127c0.987,0.29 2.052,-0.003 2.751,-0.757l19.396,-20.916c-0.001,-0 27.166,21.21 27.166,21.21c0.884,0.69 2.101,0.764 3.062,0.186c0.961,-0.578 1.467,-1.688 1.272,-2.793l-15.378,-86.983c-0.229,-1.293 -1.353,-2.236 -2.667,-2.236l-50.214,-0Zm3.229,5.416l44.713,0c0,0 13.754,77.797 13.754,77.797c0,0 -23.565,-18.398 -23.565,-18.398c-1.109,-0.865 -2.696,-0.738 -3.653,0.294l-17.382,18.745l-13.867,-78.438Z"/><path d="M593.897,1085.45c-3.117,5.285 -7.42,9.374 -12.908,12.265c-6.553,0.496 -13.131,-0.532 -19.734,-3.084c0.301,6.603 -0.937,12.657 -3.714,18.16c-4.84,3.75 -10.485,6.058 -16.935,6.924c3.639,6.152 5.797,12.548 6.475,19.189c-1.83,6 -5.03,11.025 -9.599,15.077c6.002,4.051 10.978,9.077 14.93,15.076c1.67,6.641 1.773,13.038 0.309,19.189c6.757,0.866 13.218,3.174 19.384,6.924c4.723,5.504 8.102,11.557 10.135,18.16c5.7,-2.551 11.915,-3.579 18.644,-3.083c6.51,2.891 12.259,6.979 17.245,12.264c3.117,-5.285 7.419,-9.373 12.908,-12.264c6.553,-0.496 13.131,0.532 19.734,3.083c-0.302,-6.603 0.936,-12.656 3.714,-18.16c4.84,-3.75 10.485,-6.058 16.935,-6.924c-3.639,-6.151 -5.797,-12.548 -6.476,-19.189c1.831,-5.999 5.03,-11.025 9.6,-15.076c-6.002,-4.052 -10.979,-9.077 -14.93,-15.077c-1.671,-6.641 -1.774,-13.037 -0.31,-19.189c-6.756,-0.866 -13.217,-3.174 -19.383,-6.924c-4.724,-5.503 -8.102,-11.557 -10.135,-18.16c-5.701,2.552 -11.915,3.58 -18.644,3.084c-6.511,-2.891 -12.259,-6.98 -17.245,-12.265Zm9.693,54.825c7.564,-0 14.792,6.141 16.129,13.706c1.337,7.564 -3.718,13.706 -11.283,13.706c-7.565,-0 -14.792,-6.142 -16.129,-13.706c-1.338,-7.565 3.718,-13.706 11.283,-13.706Z" style="fill:#ef0707;"/><path d="M595.867,1083.59c-0.584,-0.62 -1.426,-0.928 -2.272,-0.833c-0.846,0.095 -1.598,0.582 -2.031,1.315c-2.763,4.686 -6.544,8.343 -11.34,10.977c-5.981,0.368 -11.976,-0.621 -17.993,-2.946c-0.853,-0.33 -1.815,-0.206 -2.558,0.328c-0.743,0.535 -1.165,1.408 -1.124,2.322c0.269,5.893 -0.775,11.316 -3.153,16.263c-4.365,3.247 -9.415,5.243 -15.151,6.013c-0.9,0.121 -1.68,0.685 -2.076,1.503c-0.397,0.817 -0.357,1.779 0.106,2.56c3.329,5.629 5.352,11.472 6.052,17.534c-1.705,5.286 -4.582,9.727 -8.642,13.326c-0.626,0.556 -0.96,1.37 -0.905,2.205c0.055,0.835 0.493,1.598 1.187,2.066c5.57,3.761 10.211,8.403 13.922,13.929c1.459,6.047 1.53,11.865 0.198,17.465c-0.178,0.747 -0.03,1.535 0.407,2.167c0.436,0.632 1.121,1.049 1.883,1.146c6.248,0.801 12.227,2.913 17.941,6.324c4.338,5.131 7.449,10.75 9.334,16.871c0.228,0.742 0.763,1.349 1.47,1.67c0.706,0.32 1.516,0.322 2.224,0.005c5.166,-2.312 10.787,-3.266 16.86,-2.887c6.016,2.735 11.329,6.554 15.953,11.455c0.584,0.619 1.425,0.928 2.271,0.833c0.847,-0.095 1.599,-0.582 2.031,-1.316c2.764,-4.685 6.545,-8.343 11.34,-10.976c5.982,-0.369 11.976,0.62 17.993,2.945c0.854,0.33 1.816,0.207 2.559,-0.328c0.742,-0.534 1.165,-1.407 1.123,-2.321c-0.269,-5.894 0.775,-11.316 3.154,-16.263c4.364,-3.248 9.415,-5.243 15.15,-6.014c0.901,-0.121 1.68,-0.685 2.077,-1.502c0.396,-0.817 0.357,-1.779 -0.106,-2.561c-3.329,-5.628 -5.352,-11.471 -6.052,-17.534c1.704,-5.286 4.582,-9.726 8.641,-13.326c0.627,-0.555 0.961,-1.369 0.906,-2.204c-0.055,-0.836 -0.493,-1.599 -1.187,-2.067c-5.57,-3.76 -10.211,-8.403 -13.922,-13.929c-1.459,-6.047 -1.531,-11.864 -0.198,-17.465c0.178,-0.747 0.03,-1.535 -0.407,-2.167c-0.437,-0.632 -1.121,-1.048 -1.883,-1.146c-6.248,-0.801 -12.227,-2.913 -17.942,-6.323c-4.338,-5.131 -7.448,-10.751 -9.333,-16.872c-0.228,-0.741 -0.764,-1.349 -1.47,-1.669c-0.707,-0.321 -1.517,-0.323 -2.225,-0.006c-5.165,2.312 -10.786,3.267 -16.86,2.887c-6.015,-2.734 -11.328,-6.553 -15.952,-11.454Zm-1.532,6.127c4.657,4.399 9.893,7.889 15.708,10.471c0.285,0.126 0.589,0.203 0.9,0.226c6.132,0.452 11.864,-0.288 17.198,-2.204c2.182,5.88 5.422,11.329 9.724,16.343c0.186,0.216 0.405,0.402 0.648,0.55c5.628,3.422 11.49,5.701 17.584,6.845c-0.926,5.68 -0.635,11.552 0.89,17.615c0.074,0.295 0.198,0.575 0.365,0.829c3.544,5.38 7.872,10.015 12.986,13.904c-3.679,3.932 -6.342,8.587 -7.984,13.969c-0.105,0.345 -0.14,0.707 -0.104,1.065c0.594,5.817 2.256,11.457 4.996,16.919c-5.38,1.234 -10.185,3.497 -14.42,6.779c-0.318,0.246 -0.578,0.561 -0.759,0.92c-2.424,4.804 -3.765,9.995 -4.008,15.578c-5.761,-1.758 -11.503,-2.415 -17.227,-1.982c-0.369,0.028 -0.729,0.132 -1.057,0.305c-4.902,2.582 -8.929,6.046 -12.084,10.391c-4.657,-4.399 -9.894,-7.889 -15.708,-10.47c-0.285,-0.127 -0.589,-0.203 -0.9,-0.226c-6.133,-0.452 -11.865,0.288 -17.199,2.204c-2.182,-5.881 -5.421,-11.33 -9.724,-16.343c-0.185,-0.217 -0.404,-0.402 -0.648,-0.551c-5.627,-3.422 -11.489,-5.701 -17.583,-6.845c0.926,-5.68 0.634,-11.551 -0.89,-17.614c-0.075,-0.295 -0.198,-0.576 -0.365,-0.83c-3.544,-5.38 -7.872,-10.015 -12.986,-13.903c3.679,-3.933 6.342,-8.588 7.984,-13.969c0.105,-0.345 0.14,-0.707 0.104,-1.066c-0.594,-5.816 -2.256,-11.457 -4.996,-16.918c5.38,-1.234 10.184,-3.498 14.42,-6.779c0.318,-0.247 0.578,-0.561 0.759,-0.921c2.424,-4.803 3.764,-9.995 4.008,-15.577c5.76,1.758 11.503,2.414 17.226,1.981c0.37,-0.028 0.73,-0.131 1.058,-0.304c4.902,-2.582 8.929,-6.047 12.084,-10.392l-0,-0Zm9.255,47.847c-9.333,0 -15.6,7.553 -13.95,16.886c1.557,8.809 9.987,15.943 18.796,15.943c9.333,0 15.6,-7.553 13.95,-16.886c-1.557,-8.808 -9.988,-15.943 -18.796,-15.943Zm-0,5.417c6.32,-0 12.345,5.149 13.462,11.469c1.025,5.797 -2.82,10.527 -8.616,10.527c-6.321,-0 -12.345,-5.149 -13.462,-11.47c-1.025,-5.796 2.819,-10.526 8.616,-10.526Z"/><path d="M597.635,1106.59c26.154,-0 51.143,21.234 55.767,47.389c4.624,26.154 -12.856,47.389 -39.011,47.389c-26.155,-0 -51.143,-21.235 -55.767,-47.389c-4.624,-26.155 12.856,-47.389 39.011,-47.389Z" style="fill:#ef0707;"/><path d="M575.32,1160.96l19.573,16.632c3.044,2.587 7.238,2.587 9.368,-0l31.16,-37.852c2.128,-2.586 1.386,-6.783 -1.656,-9.368c-3.042,-2.586 -7.24,-2.586 -9.368,-0l-27.304,33.168c-0,-0 -14.061,-11.949 -14.061,-11.949c-3.042,-2.585 -7.24,-2.585 -9.368,0c-2.128,2.586 -1.386,6.783 1.656,9.369Z" style="fill:#fff;"/></g></g><path d="M443.735,679.442c-0.891,-5.038 2.476,-9.129 7.515,-9.129l40.252,0c5.039,0 9.852,4.091 10.743,9.129c0.891,5.039 -2.477,9.13 -7.515,9.13l-40.252,-0c-5.039,-0 -9.853,-4.091 -10.743,-9.13Z" style="stroke:#000;stroke-width:3.02px;"/><path d="M280.423,848.902c-0.525,-2.97 1.459,-5.381 4.43,-5.381c2.97,-0 5.807,2.411 6.332,5.381l13.088,74.03c0.525,2.97 -1.46,5.381 -4.43,5.381c-2.97,0 -5.807,-2.411 -6.332,-5.381l-13.088,-74.03Z" style="fill:#b0d6e0;"/></g><path d="M6.289,1457.91l3766.78,0" style="fill:none;stroke:#000;stroke-width:6.67px;stroke-linejoin:miter;stroke-miterlimit:1.6;"/></g></svg>