<?xml version="1.0" encoding="UTF-8" standalone="no"?><!DOCTYPE svg PUBLIC "-//W3C//DTD SVG 1.1//EN" "http://www.w3.org/Graphics/SVG/1.1/DTD/svg11.dtd"><svg width="100%" height="100%" viewBox="0 0 2354 3012" version="1.1" xmlns="http://www.w3.org/2000/svg" xmlns:xlink="http://www.w3.org/1999/xlink" xml:space="preserve" xmlns:serif="http://www.serif.com/" style="fill-rule:evenodd;clip-rule:evenodd;stroke-linecap:round;stroke-linejoin:round;stroke-miterlimit:1.5;"><g><path d="M274.107,725.56l-0,675.126l168.269,0" style="fill:none;stroke:#ef0707;stroke-width:6.73px;"/><path d="M406.851,1361.43l39.255,39.254l-39.255,39.254" style="fill:none;stroke:#ef0707;stroke-width:6.73px;"/></g><g><path d="M2101.51,725.56l-0,675.126l-168.269,0" style="fill:none;stroke:#ef0707;stroke-width:6.73px;"/><path d="M1968.76,1361.43l-39.254,39.254l39.254,39.254" style="fill:none;stroke:#ef0707;stroke-width:6.73px;"/></g><g><path d="M41.042,588.969l740.892,0" style="fill:none;stroke:#000;stroke-width:6.73px;"/><g><path d="M62.681,588.969l697.615,0" style="fill:none;stroke:#000;stroke-width:6.34px;"/><g><path d="M690.673,19.211c-0,-8.87 -7.202,-16.072 -16.073,-16.072l-526.224,-0c-8.871,-0 -16.072,7.202 -16.072,16.072l-0,128.581c-0,8.871 7.201,16.073 16.072,16.073l526.224,0c8.871,0 16.073,-7.202 16.073,-16.073l-0,-128.581Z" style="fill:#fff;stroke:#000;stroke-width:6.28px;"/><circle cx="210.994" cy="83.502" r="10.242" style="stroke:#000;stroke-width:14.98px;"/><circle cx="274.508" cy="83.502" r="10.242" style="stroke:#000;stroke-width:14.98px;"/><circle cx="337.616" cy="83.502" r="10.242" style="stroke:#000;stroke-width:14.98px;"/></g><g><path d="M690.673,185.119c-0,-8.871 -7.202,-16.073 -16.073,-16.073l-526.224,0c-8.871,0 -16.072,7.202 -16.072,16.073l-0,128.581c-0,8.871 7.201,16.073 16.072,16.073l526.224,-0c8.871,-0 16.073,-7.202 16.073,-16.073l-0,-128.581Z" style="fill:#fff;stroke:#000;stroke-width:6.28px;"/><circle cx="210.994" cy="249.409" r="10.242" style="stroke:#000;stroke-width:14.98px;"/><circle cx="274.508" cy="249.409" r="10.242" style="stroke:#000;stroke-width:14.98px;"/><circle cx="337.616" cy="249.409" r="10.242" style="stroke:#000;stroke-width:14.98px;"/></g><g><path d="M690.673,360.006c-0,-14.041 -11.4,-25.441 -25.44,-25.441l-507.489,0c-14.041,0 -25.44,11.4 -25.44,25.441l-0,203.523c-0,14.041 11.399,25.44 25.44,25.44l507.489,0c14.04,0 25.44,-11.399 25.44,-25.44l-0,-203.523Z" style="fill:#fff;stroke:#000;stroke-width:6.28px;"/><path id="logo1" d="M580.309,414.053l-5.228,-0l0,-17.61c0,-24.488 -20.085,-44.573 -44.573,-44.573c-24.488,-0 -44.574,20.085 -44.574,44.573l-0,17.61l-4.953,-0c-8.529,-0 -15.408,6.878 -15.408,15.408l0,99.328c0,8.529 6.879,15.408 15.408,15.408l36.595,-0c2.201,4.127 4.127,8.529 6.328,12.932c-1.651,1.65 -2.476,3.852 -2.476,6.328c-0,5.228 4.402,9.63 9.63,9.63c5.228,0 9.63,-4.402 9.63,-9.63c0,-2.201 -0.825,-4.402 -2.201,-6.053c1.926,-4.678 4.127,-9.08 6.328,-13.482l36.044,-0c8.53,-0 15.409,-6.879 15.409,-15.409l-0,-99.327c-0.276,-8.255 -7.429,-15.133 -15.959,-15.133Zm-99.328,118.037c-1.651,0 -3.026,-1.375 -3.026,-3.026l-0,-99.328c-0,-1.651 1.375,-3.027 3.026,-3.027l28.891,0c-0,1.376 -0.276,2.752 -0.276,4.127c-2.201,22.562 -8.529,45.124 -20.085,71.538c-0.826,1.651 -0.55,1.927 -0,2.477c7.704,8.254 14.583,17.334 20.911,27.514l-29.441,0l0,-0.275Zm54.479,-47.05l4.127,29.441l-7.429,-0l0,45.674c1.651,0.55 2.752,2.201 2.752,3.852c-0,2.477 -1.926,4.127 -4.127,4.127c-2.477,0 -4.127,-1.926 -4.127,-4.127c-0,-1.926 1.1,-3.302 2.751,-3.852l0,-45.674l-7.429,-0l4.127,-29.441c-5.228,-1.926 -8.804,-6.878 -8.804,-12.656c-0,-7.429 6.053,-13.483 13.482,-13.483c7.429,0 13.482,6.054 13.482,13.483c-0,5.778 -3.577,10.455 -8.805,12.656Zm-36.319,-70.987l-0,-17.61c-0,-17.334 14.032,-31.366 31.367,-31.366c17.334,-0 31.366,14.032 31.366,31.366l0,17.61l-62.733,-0Zm84.195,115.011c-0,1.651 -1.376,3.026 -3.027,3.026l-28.89,0c5.778,-9.355 12.106,-17.609 18.985,-25.313c2.201,-2.476 2.476,-3.852 1.1,-7.154c-10.18,-23.112 -16.508,-44.299 -18.985,-64.384l-0.825,-9.08l28.89,-0c1.651,-0 3.027,1.376 3.027,3.027l-0,99.878l-0.275,-0Z" style="fill:#ef0707;fill-rule:nonzero;"/><circle cx="210.994" cy="461.767" r="10.242" style="stroke:#000;stroke-width:14.98px;"/><circle cx="274.508" cy="461.767" r="10.242" style="stroke:#000;stroke-width:14.98px;"/><circle cx="337.616" cy="461.767" r="10.242" style="stroke:#000;stroke-width:14.98px;"/></g></g></g><g><path d="M1571.36,588.969l740.892,0" style="fill:none;stroke:#000;stroke-width:6.73px;"/><g><path d="M1593,588.969l697.615,0" style="fill:none;stroke:#000;stroke-width:6.34px;"/><g><path d="M2220.99,19.211c-0,-8.87 -7.202,-16.072 -16.073,-16.072l-526.224,-0c-8.871,-0 -16.073,7.202 -16.073,16.072l0,128.581c0,8.871 7.202,16.073 16.073,16.073l526.224,0c8.871,0 16.073,-7.202 16.073,-16.073l-0,-128.581Z" style="fill:#fff;stroke:#000;stroke-width:6.28px;"/><circle cx="1741.31" cy="83.502" r="10.242" style="stroke:#000;stroke-width:14.98px;"/><circle cx="1804.83" cy="83.502" r="10.242" style="stroke:#000;stroke-width:14.98px;"/><circle cx="1867.94" cy="83.502" r="10.242" style="stroke:#000;stroke-width:14.98px;"/></g><g><path d="M2220.99,185.119c-0,-8.871 -7.202,-16.073 -16.073,-16.073l-526.224,0c-8.871,0 -16.073,7.202 -16.073,16.073l0,128.581c0,8.871 7.202,16.073 16.073,16.073l526.224,-0c8.871,-0 16.073,-7.202 16.073,-16.073l-0,-128.581Z" style="fill:#fff;stroke:#000;stroke-width:6.28px;"/><circle cx="1741.31" cy="249.409" r="10.242" style="stroke:#000;stroke-width:14.98px;"/><circle cx="1804.83" cy="249.409" r="10.242" style="stroke:#000;stroke-width:14.98px;"/><circle cx="1867.94" cy="249.409" r="10.242" style="stroke:#000;stroke-width:14.98px;"/></g><g><path d="M2220.99,360.006c-0,-14.041 -11.4,-25.441 -25.44,-25.441l-507.489,0c-14.041,0 -25.441,11.4 -25.441,25.441l0,203.523c0,14.041 11.4,25.44 25.441,25.44l507.489,0c14.04,0 25.44,-11.399 25.44,-25.44l-0,-203.523Z" style="fill:#fff;stroke:#000;stroke-width:6.28px;"/><circle cx="1741.31" cy="461.767" r="10.242" style="stroke:#000;stroke-width:14.98px;"/><circle cx="1804.83" cy="461.767" r="10.242" style="stroke:#000;stroke-width:14.98px;"/><circle cx="1867.94" cy="461.767" r="10.242" style="stroke:#000;stroke-width:14.98px;"/></g></g></g><g><g><rect x="424.842" y="2582.05" width="51.822" height="146.069" style="stroke:#000;stroke-width:7.32px;"/><path d="M120.929,2250.9c0,-10.239 8.313,-18.553 18.553,-18.553l622.542,0c10.24,0 18.553,8.314 18.553,18.553l-0,333.947c-0,10.239 -8.313,18.552 -18.553,18.552l-622.542,0c-10.24,0 -18.553,-8.313 -18.553,-18.552l0,-333.947Z" style="fill:#fff;"/><path d="M117.415,2250.9l-0,333.947c-0,12.179 9.888,22.067 22.067,22.067l622.542,-0c12.179,-0 22.067,-9.888 22.067,-22.067l0,-333.947c0,-12.179 -9.888,-22.067 -22.067,-22.067l-622.542,0c-12.179,0 -22.067,9.888 -22.067,22.067Zm7.029,0c-0,-8.3 6.738,-15.038 15.038,-15.038c-0,-0 622.542,-0 622.542,-0c8.3,-0 15.038,6.738 15.038,15.038c0,0 0,333.947 0,333.947c0,8.299 -6.738,15.038 -15.038,15.038c0,-0 -622.542,-0 -622.542,-0c-8.3,-0 -15.038,-6.739 -15.038,-15.038c-0,-0 -0,-333.947 -0,-333.947Z"/><g><path d="M510.909,2318.98c0.076,-0.075 -57.518,-53.361 -57.625,-53.361l-132.067,0c-4.362,0 -7.904,3.542 -7.904,7.904l0,265.205c0,4.362 3.542,7.903 7.904,7.903l181.788,0c4.362,0 7.904,-3.541 7.904,-7.903l-0,-219.748Z" style="fill:#fff;stroke:#000;stroke-width:4.63px;"/><path d="M452.889,2265.62c0,0 0,4.972 0,11.886c0,23.007 18.651,41.658 41.658,41.658c8.637,-0 15.172,-0 15.172,-0" style="fill:none;stroke:#000;stroke-width:4.63px;"/><path d="M339.01,2397.94c-2.524,-1.009 -4.56,-2.962 -5.675,-5.442c-2.527,-5.027 -1.684,-10.055 1.037,-14.279c2.565,-3.978 6.815,-7.36 11.623,-10.197c6.089,-3.454 12.525,-6.255 19.202,-8.358c5.186,-9.322 9.782,-18.959 13.761,-28.856c-2.379,-5.406 -4.244,-11.024 -5.571,-16.78c-1.115,-5.183 -1.542,-10.314 -0.596,-14.72c0.971,-4.587 3.55,-8.707 8.422,-10.664c2.488,-0.997 5.183,-1.555 7.8,-0.997c2.665,0.567 4.937,2.305 6.181,4.729c1.14,2.125 1.555,4.613 1.646,6.971c0.09,2.436 -0.156,5.131 -0.609,7.956c-1.089,6.608 -3.499,14.694 -6.738,23.246c3.575,7.645 7.824,14.956 12.698,21.846c5.767,-0.456 11.568,-0.238 17.285,0.648c4.717,0.855 9.511,2.527 12.439,6.025c1.555,1.866 2.501,4.146 2.592,6.712c0.091,2.488 -0.609,4.95 -1.788,7.295c-1.022,2.173 -2.605,4.034 -4.587,5.39c-1.959,1.278 -4.273,1.904 -6.609,1.788c-4.288,-0.181 -8.474,-2.539 -12.089,-5.403c-4.396,-3.634 -8.357,-7.765 -11.804,-12.309c-8.762,0.994 -17.421,2.754 -25.876,5.26c-3.872,6.867 -8.292,13.41 -13.217,19.566c-3.783,4.535 -7.891,8.5 -12.011,10.198c-2.367,1.07 -5.054,1.205 -7.516,0.375Zm17.869,-24.632c-2.151,0.985 -4.147,2.022 -5.948,3.084c-4.25,2.514 -7.01,4.963 -8.383,7.088c-1.218,1.879 -1.244,3.239 -0.518,4.678c0.129,0.285 0.259,0.466 0.336,0.57c0.155,-0.042 0.307,-0.094 0.454,-0.156c1.775,-0.725 4.6,-3.045 8.228,-7.412c2.063,-2.526 4.009,-5.146 5.831,-7.852Zm21.25,-17.233c4.327,-1.01 8.693,-1.844 13.087,-2.501c-2.359,-3.61 -4.564,-7.32 -6.608,-11.117c-2.033,4.594 -4.193,9.131 -6.479,13.605l-0,0.013Zm31.694,5.831c1.944,2.112 3.835,3.887 5.636,5.312c3.11,2.462 5.274,3.279 6.453,3.317c0.316,0.042 0.636,-0.027 0.907,-0.194c0.539,-0.426 0.959,-0.984 1.218,-1.62c0.461,-0.789 0.723,-1.678 0.765,-2.591c-0.008,-0.304 -0.128,-0.595 -0.337,-0.816c-0.674,-0.804 -2.592,-1.97 -6.712,-2.709c-2.621,-0.438 -5.273,-0.668 -7.93,-0.686l-0,-0.013Zm-25.785,-45.429c1.09,-3.518 1.956,-7.101 2.591,-10.729c0.402,-2.436 0.557,-4.444 0.492,-6.025c0.004,-0.872 -0.136,-1.739 -0.414,-2.566c-0.648,0.081 -1.281,0.255 -1.879,0.519c-1.127,0.453 -2.047,1.373 -2.54,3.667c-0.518,2.487 -0.388,6.077 0.596,10.651c0.311,1.438 0.7,2.941 1.167,4.483l-0.013,-0Z" style="fill:#ef0707;fill-rule:nonzero;"/><g><path d="M433.26,2509.3l0,60.834l17.56,-15.905l17.559,15.905l-0,-60.834l-35.119,-0Z" style="fill:#fff;"/><path d="M433.26,2506.98c-1.279,0 -2.316,1.037 -2.316,2.317c-0,-0 -0,60.834 -0,60.834c-0,0.916 0.54,1.746 1.377,2.117c0.838,0.372 1.815,0.214 2.494,-0.401l16.005,-14.495c-0,-0 16.004,14.495 16.004,14.495c0.679,0.615 1.657,0.773 2.494,0.401c0.838,-0.371 1.377,-1.201 1.377,-2.117l0,-60.834c0,-1.28 -1.037,-2.317 -2.316,-2.317l-35.119,0Zm2.317,4.633l30.486,0c-0,0 -0,53.294 -0,53.294c-0,0 -13.688,-12.398 -13.688,-12.398c-0.883,-0.799 -2.228,-0.799 -3.11,0l-13.688,12.398l-0,-53.294Z"/><path d="M450.82,2443.86c-2.834,3.696 -6.349,6.556 -10.545,8.577c-4.644,0.347 -9.118,-0.371 -13.42,-2.156c-0.606,4.618 -2.22,8.852 -4.843,12.701c-3.848,2.622 -8.082,4.237 -12.7,4.842c1.784,4.303 2.503,8.776 2.156,13.421c-2.022,4.195 -4.881,7.71 -8.577,10.544c3.696,2.833 6.555,6.348 8.577,10.544c0.347,4.645 -0.372,9.118 -2.156,13.42c4.618,0.606 8.852,2.22 12.7,4.843c2.623,3.849 4.237,8.082 4.843,12.7c4.302,-1.784 8.776,-2.503 13.42,-2.156c4.196,2.022 7.711,4.881 10.545,8.578c2.833,-3.697 6.348,-6.556 10.544,-8.578c4.644,-0.347 9.118,0.372 13.42,2.156c0.606,-4.618 2.22,-8.851 4.843,-12.7c3.849,-2.623 8.082,-4.237 12.7,-4.843c-1.784,-4.302 -2.503,-8.775 -2.156,-13.42c2.022,-4.196 4.881,-7.711 8.578,-10.544c-3.697,-2.834 -6.556,-6.349 -8.578,-10.544c-0.347,-4.645 0.372,-9.118 2.156,-13.421c-4.618,-0.605 -8.851,-2.22 -12.7,-4.842c-2.623,-3.849 -4.237,-8.083 -4.843,-12.701c-4.302,1.785 -8.776,2.503 -13.42,2.156c-4.196,-2.021 -7.711,-4.881 -10.544,-8.577Zm-0,38.343c5.29,-0 9.585,4.295 9.585,9.586c0,5.29 -4.295,9.586 -9.585,9.586c-5.291,-0 -9.586,-4.296 -9.586,-9.586c-0,-5.291 4.295,-9.586 9.586,-9.586Z" style="fill:#ef0707;"/><path d="M452.658,2442.45c-0.438,-0.572 -1.118,-0.908 -1.838,-0.908c-0.721,0 -1.4,0.336 -1.839,0.908c-2.519,3.285 -5.622,5.853 -9.309,7.702c-4.132,0.247 -8.104,-0.425 -11.929,-2.012c-0.666,-0.276 -1.422,-0.226 -2.046,0.134c-0.624,0.36 -1.045,0.99 -1.139,1.705c-0.538,4.105 -1.942,7.88 -4.211,11.325c-3.454,2.28 -7.23,3.684 -11.336,4.223c-0.715,0.093 -1.345,0.514 -1.705,1.138c-0.36,0.624 -0.41,1.38 -0.134,2.046c1.587,3.824 2.258,7.795 2.016,11.913c-1.852,3.702 -4.42,6.806 -7.707,9.325c-0.571,0.439 -0.907,1.118 -0.907,1.839c0,0.72 0.336,1.4 0.907,1.838c3.286,2.519 5.854,5.622 7.703,9.31c0.247,4.131 -0.425,8.103 -2.012,11.929c-0.276,0.665 -0.226,1.421 0.134,2.045c0.36,0.624 0.99,1.045 1.705,1.139c4.105,0.538 7.88,1.942 11.325,4.211c2.28,3.454 3.684,7.23 4.222,11.337c0.094,0.714 0.515,1.344 1.139,1.704c0.624,0.361 1.38,0.41 2.046,0.134c3.824,-1.586 7.795,-2.258 11.913,-2.016c3.701,1.852 6.806,4.42 9.325,7.707c0.439,0.572 1.118,0.907 1.839,0.907c0.72,0 1.4,-0.335 1.838,-0.907c2.519,-3.286 5.622,-5.853 9.309,-7.702c4.132,-0.247 8.104,0.424 11.93,2.011c0.665,0.276 1.421,0.227 2.045,-0.134c0.624,-0.36 1.045,-0.99 1.139,-1.704c0.538,-4.105 1.942,-7.88 4.211,-11.326c3.454,-2.279 7.23,-3.683 11.337,-4.222c0.714,-0.094 1.344,-0.515 1.704,-1.139c0.361,-0.624 0.41,-1.38 0.134,-2.045c-1.586,-3.825 -2.258,-7.796 -2.016,-11.914c1.852,-3.701 4.42,-6.805 7.707,-9.325c0.572,-0.438 0.907,-1.118 0.907,-1.838c-0,-0.721 -0.335,-1.4 -0.907,-1.839c-3.286,-2.518 -5.853,-5.622 -7.703,-9.309c-0.247,-4.131 0.425,-8.104 2.012,-11.929c0.276,-0.666 0.227,-1.422 -0.134,-2.046c-0.36,-0.624 -0.99,-1.045 -1.704,-1.138c-4.105,-0.539 -7.88,-1.943 -11.326,-4.211c-2.279,-3.455 -3.684,-7.231 -4.222,-11.337c-0.094,-0.715 -0.515,-1.345 -1.139,-1.705c-0.624,-0.36 -1.38,-0.41 -2.045,-0.134c-3.825,1.587 -7.796,2.259 -11.914,2.016c-3.701,-1.852 -6.805,-4.42 -9.325,-7.706Zm-1.838,5.011c2.699,2.945 5.878,5.299 9.538,7.062c0.262,0.126 0.544,0.202 0.833,0.223c4.051,0.303 7.982,-0.146 11.792,-1.346c0.865,3.899 2.442,7.528 4.73,10.885c0.163,0.24 0.37,0.446 0.609,0.61c3.358,2.287 6.986,3.864 10.885,4.729c-1.2,3.81 -1.649,7.741 -1.346,11.792c0.022,0.289 0.097,0.572 0.223,0.833c1.764,3.66 4.118,6.839 7.062,9.539c-2.944,2.699 -5.298,5.879 -7.062,9.538c-0.126,0.262 -0.201,0.544 -0.223,0.833c-0.303,4.052 0.146,7.982 1.346,11.792c-3.899,0.865 -7.527,2.442 -10.885,4.73c-0.239,0.163 -0.446,0.37 -0.609,0.61c-2.288,3.357 -3.865,6.985 -4.73,10.884c-3.81,-1.2 -7.74,-1.648 -11.792,-1.346c-0.289,0.022 -0.571,0.097 -0.833,0.223c-3.66,1.764 -6.839,4.118 -9.538,7.062c-2.7,-2.944 -5.879,-5.298 -9.539,-7.062c-0.261,-0.126 -0.544,-0.201 -0.833,-0.223c-4.051,-0.302 -7.982,0.146 -11.791,1.347c-0.866,-3.9 -2.443,-7.528 -4.73,-10.885c-0.164,-0.24 -0.37,-0.447 -0.61,-0.61c-3.357,-2.288 -6.986,-3.865 -10.885,-4.73c1.2,-3.81 1.649,-7.74 1.346,-11.792c-0.021,-0.289 -0.097,-0.571 -0.223,-0.833c-1.763,-3.659 -4.117,-6.839 -7.062,-9.538c2.945,-2.7 5.298,-5.879 7.062,-9.539c0.126,-0.261 0.202,-0.544 0.223,-0.833c0.303,-4.051 -0.146,-7.982 -1.346,-11.791c3.899,-0.866 7.528,-2.443 10.885,-4.73c0.24,-0.164 0.446,-0.37 0.61,-0.61c2.287,-3.357 3.864,-6.985 4.729,-10.885c3.81,1.2 7.741,1.649 11.792,1.346c0.289,-0.021 0.572,-0.097 0.833,-0.223c3.66,-1.763 6.839,-4.117 9.539,-7.062l-0,0Zm-0,32.425c-6.569,-0 -11.903,5.333 -11.903,11.902c0,6.569 5.334,11.902 11.903,11.902c6.569,-0 11.902,-5.333 11.902,-11.902c-0,-6.569 -5.333,-11.902 -11.902,-11.902Zm-0,4.632c4.012,0 7.269,3.258 7.269,7.27c-0,4.012 -3.257,7.269 -7.269,7.269c-4.012,0 -7.27,-3.257 -7.27,-7.269c0,-4.012 3.258,-7.27 7.27,-7.27Z"/><circle cx="450.82" cy="2491.78" r="33.143" style="fill:#ef0707;"/><path d="M428.491,2496.66l11.632,11.632c1.81,1.809 4.743,1.809 6.552,0l26.473,-26.473c1.808,-1.808 1.808,-4.744 0,-6.552c-1.808,-1.808 -4.744,-1.808 -6.552,0l-23.197,23.197c0,0 -8.356,-8.356 -8.356,-8.356c-1.808,-1.808 -4.744,-1.808 -6.552,0c-1.808,1.808 -1.808,4.744 0,6.552Z" style="fill:#fff;"/></g></g><path d="M566.679,2728.12l-231.852,0" style="fill:none;stroke:#000;stroke-width:7.03px;"/></g><g><path d="M555.831,2464.82c-0,-6.979 5.666,-12.645 12.645,-12.645l424.316,0c6.979,0 12.645,5.666 12.645,12.645l0,227.614c0,6.979 -5.666,12.645 -12.645,12.645l-424.316,-0c-6.979,-0 -12.645,-5.666 -12.645,-12.645l-0,-227.614Z" style="fill:#fff;"/><path d="M552.316,2464.82l0,227.614c0,8.918 7.241,16.159 16.16,16.159c-0,0 424.316,0 424.316,0c8.919,0 16.16,-7.241 16.16,-16.159l-0,-227.614c-0,-8.918 -7.241,-16.159 -16.16,-16.159c-0,-0 -424.316,-0 -424.316,-0c-8.919,-0 -16.16,7.241 -16.16,16.159Zm7.029,0c0,-5.039 4.091,-9.13 9.131,-9.13l424.316,-0c5.039,-0 9.131,4.091 9.131,9.13c-0,0 -0,227.614 -0,227.614c-0,5.039 -4.092,9.13 -9.131,9.13l-424.316,0c-5.04,0 -9.131,-4.091 -9.131,-9.13c0,-0 0,-227.614 0,-227.614Z"/><g><path d="M842.84,2516.36c0.048,-0.048 -36.215,-33.598 -36.283,-33.598l-83.153,-0c-2.747,-0 -4.977,2.229 -4.977,4.976l0,166.982c0,2.747 2.23,4.976 4.977,4.976l114.46,0c2.746,0 4.976,-2.229 4.976,-4.976l0,-138.36Z" style="fill:#fff;stroke:#000;stroke-width:2.92px;"/><path d="M806.309,2482.76l0,0.004c0,18.617 15.092,33.708 33.708,33.708c1.308,0 2.074,0 2.074,0" style="fill:none;stroke:#000;stroke-width:2.92px;"/><path d="M734.607,2566.08c-1.589,-0.636 -2.871,-1.865 -3.573,-3.427c-1.591,-3.165 -1.061,-6.331 0.652,-8.991c1.616,-2.504 4.292,-4.634 7.319,-6.42c3.834,-2.175 7.886,-3.939 12.09,-5.263c3.265,-5.869 6.159,-11.937 8.665,-18.168c-1.498,-3.404 -2.673,-6.942 -3.508,-10.566c-0.702,-3.263 -0.971,-6.494 -0.376,-9.268c0.612,-2.888 2.236,-5.482 5.303,-6.714c1.567,-0.628 3.264,-0.979 4.912,-0.628c1.677,0.357 3.108,1.452 3.891,2.978c0.718,1.338 0.979,2.904 1.036,4.389c0.057,1.534 -0.098,3.231 -0.383,5.009c-0.685,4.161 -2.203,9.252 -4.243,14.636c2.251,4.814 4.927,9.417 7.996,13.756c3.631,-0.287 7.283,-0.15 10.883,0.408c2.97,0.538 5.988,1.59 7.832,3.793c0.979,1.175 1.575,2.611 1.632,4.226c0.057,1.567 -0.384,3.117 -1.126,4.593c-0.643,1.369 -1.64,2.541 -2.888,3.394c-1.233,0.805 -2.69,1.199 -4.161,1.126c-2.7,-0.114 -5.335,-1.599 -7.612,-3.402c-2.767,-2.288 -5.261,-4.889 -7.432,-7.75c-5.517,0.626 -10.969,1.734 -16.292,3.312c-2.438,4.324 -5.221,8.443 -8.322,12.319c-2.382,2.856 -4.969,5.352 -7.563,6.421c-1.49,0.674 -3.182,0.759 -4.732,0.237Zm11.251,-15.51c-1.355,0.62 -2.611,1.273 -3.745,1.942c-2.676,1.583 -4.414,3.125 -5.279,4.463c-0.766,1.183 -0.783,2.039 -0.326,2.945c0.082,0.179 0.163,0.294 0.212,0.359c0.098,-0.026 0.193,-0.059 0.286,-0.098c1.117,-0.457 2.896,-1.917 5.18,-4.667c1.3,-1.59 2.525,-3.24 3.672,-4.944Zm13.38,-10.85c2.724,-0.636 5.473,-1.161 8.24,-1.575c-1.486,-2.273 -2.874,-4.609 -4.161,-7c-1.28,2.893 -2.64,5.75 -4.079,8.566l-0,0.009Zm19.955,3.671c1.224,1.33 2.415,2.447 3.549,3.345c1.958,1.55 3.32,2.064 4.063,2.088c0.199,0.026 0.4,-0.017 0.571,-0.122c0.339,-0.268 0.604,-0.619 0.767,-1.02c0.29,-0.497 0.455,-1.057 0.481,-1.631c-0.004,-0.192 -0.08,-0.375 -0.212,-0.514c-0.424,-0.506 -1.632,-1.241 -4.226,-1.706c-1.65,-0.276 -3.32,-0.42 -4.993,-0.432l0,-0.008Zm-16.235,-28.604c0.686,-2.214 1.231,-4.471 1.631,-6.755c0.253,-1.534 0.351,-2.798 0.31,-3.793c0.003,-0.55 -0.085,-1.095 -0.261,-1.616c-0.408,0.051 -0.806,0.161 -1.183,0.326c-0.709,0.286 -1.289,0.865 -1.599,2.309c-0.326,1.567 -0.244,3.827 0.376,6.707c0.195,0.905 0.44,1.852 0.734,2.822l-0.008,0Z" style="fill:#ef0707;fill-rule:nonzero;"/><g><path d="M791.974,2636.19l-0,38.303l11.056,-10.013l11.056,10.013l-0,-38.303l-22.112,0Z" style="fill:#fff;"/><path d="M791.974,2634.73c-0.806,-0 -1.459,0.653 -1.459,1.458l0,38.303c0,0.577 0.34,1.1 0.867,1.334c0.528,0.234 1.143,0.135 1.571,-0.253l10.077,-9.127c-0,0 10.077,9.127 10.077,9.127c0.427,0.388 1.043,0.487 1.57,0.253c0.527,-0.234 0.867,-0.757 0.867,-1.334l0,-38.303c0,-0.805 -0.653,-1.458 -1.458,-1.458l-22.112,-0Zm1.458,2.917l19.195,-0c0,-0 0,33.556 0,33.556c0,-0 -8.618,-7.806 -8.618,-7.806c-0.556,-0.504 -1.403,-0.504 -1.958,-0l-8.619,7.806c0,-0 0,-33.556 0,-33.556Z"/><path d="M803.03,2594.99c-1.784,2.327 -3.997,4.127 -6.639,5.4c-2.925,0.219 -5.741,-0.234 -8.45,-1.357c-0.382,2.907 -1.398,5.573 -3.049,7.996c-2.424,1.652 -5.089,2.668 -7.997,3.049c1.124,2.709 1.576,5.526 1.358,8.45c-1.273,2.642 -3.074,4.855 -5.401,6.639c2.327,1.784 4.128,3.997 5.401,6.639c0.218,2.925 -0.234,5.741 -1.358,8.45c2.908,0.381 5.573,1.398 7.997,3.049c1.651,2.424 2.667,5.089 3.049,7.997c2.709,-1.124 5.525,-1.576 8.45,-1.358c2.642,1.273 4.855,3.074 6.639,5.401c1.784,-2.327 3.997,-4.128 6.639,-5.401c2.924,-0.218 5.741,0.234 8.45,1.358c0.381,-2.908 1.397,-5.573 3.049,-7.997c2.423,-1.651 5.089,-2.668 7.996,-3.049c-1.123,-2.709 -1.576,-5.525 -1.357,-8.45c1.273,-2.642 3.073,-4.855 5.4,-6.639c-2.327,-1.784 -4.127,-3.997 -5.4,-6.639c-0.219,-2.924 0.234,-5.741 1.357,-8.45c-2.907,-0.381 -5.573,-1.397 -7.996,-3.049c-1.652,-2.423 -2.668,-5.089 -3.049,-7.996c-2.709,1.123 -5.526,1.576 -8.45,1.357c-2.642,-1.273 -4.855,-3.073 -6.639,-5.4Zm-0,24.142c3.331,-0 6.035,2.704 6.035,6.035c0,3.331 -2.704,6.036 -6.035,6.036c-3.331,-0 -6.036,-2.705 -6.036,-6.036c0,-3.331 2.705,-6.035 6.036,-6.035Z" style="fill:#ef0707;"/><path d="M804.187,2594.1c-0.276,-0.36 -0.704,-0.571 -1.157,-0.571c-0.454,0 -0.882,0.211 -1.158,0.571c-1.586,2.069 -3.54,3.686 -5.861,4.85c-2.602,0.155 -5.103,-0.268 -7.511,-1.267c-0.419,-0.173 -0.895,-0.142 -1.288,0.085c-0.393,0.226 -0.658,0.623 -0.717,1.073c-0.339,2.585 -1.223,4.962 -2.652,7.131c-2.175,1.435 -4.552,2.319 -7.138,2.658c-0.449,0.059 -0.846,0.324 -1.073,0.717c-0.227,0.393 -0.258,0.869 -0.084,1.288c0.999,2.408 1.422,4.908 1.269,7.501c-1.166,2.331 -2.783,4.285 -4.852,5.872c-0.36,0.276 -0.571,0.704 -0.571,1.157c-0,0.454 0.211,0.882 0.571,1.158c2.069,1.586 3.685,3.54 4.849,5.861c0.156,2.602 -0.267,5.103 -1.266,7.511c-0.174,0.419 -0.143,0.895 0.084,1.288c0.227,0.393 0.624,0.658 1.073,0.717c2.585,0.339 4.962,1.223 7.131,2.652c1.435,2.175 2.32,4.552 2.659,7.138c0.059,0.449 0.324,0.846 0.717,1.073c0.393,0.227 0.869,0.258 1.288,0.084c2.408,-0.999 4.908,-1.422 7.501,-1.269c2.33,1.166 4.285,2.783 5.871,4.852c0.276,0.36 0.704,0.571 1.158,0.571c0.453,0 0.881,-0.211 1.157,-0.571c1.586,-2.069 3.54,-3.685 5.862,-4.849c2.601,-0.156 5.102,0.267 7.511,1.266c0.419,0.174 0.895,0.143 1.288,-0.084c0.393,-0.227 0.658,-0.624 0.717,-1.073c0.339,-2.585 1.222,-4.962 2.651,-7.131c2.175,-1.435 4.553,-2.32 7.138,-2.659c0.45,-0.059 0.847,-0.324 1.073,-0.717c0.227,-0.393 0.258,-0.869 0.085,-1.288c-0.999,-2.408 -1.422,-4.908 -1.27,-7.501c1.166,-2.33 2.783,-4.285 4.853,-5.871c0.36,-0.276 0.571,-0.704 0.571,-1.158c-0,-0.453 -0.211,-0.881 -0.571,-1.157c-2.069,-1.586 -3.686,-3.54 -4.85,-5.862c-0.156,-2.601 0.268,-5.102 1.267,-7.511c0.173,-0.419 0.142,-0.895 -0.085,-1.288c-0.226,-0.393 -0.623,-0.658 -1.073,-0.717c-2.585,-0.339 -4.962,-1.222 -7.131,-2.651c-1.435,-2.175 -2.319,-4.553 -2.658,-7.138c-0.059,-0.45 -0.324,-0.847 -0.717,-1.073c-0.393,-0.227 -0.869,-0.258 -1.288,-0.085c-2.408,0.999 -4.909,1.422 -7.501,1.27c-2.331,-1.166 -4.285,-2.783 -5.872,-4.853Zm-1.157,3.156c1.699,1.854 3.701,3.336 6.006,4.446c0.164,0.079 0.342,0.127 0.524,0.141c2.551,0.19 5.026,-0.092 7.424,-0.848c0.545,2.455 1.538,4.74 2.978,6.854c0.103,0.15 0.233,0.281 0.384,0.384c2.114,1.44 4.399,2.433 6.854,2.978c-0.756,2.398 -1.038,4.873 -0.848,7.424c0.014,0.182 0.061,0.36 0.141,0.524c1.11,2.305 2.592,4.307 4.446,6.006c-1.854,1.7 -3.336,3.702 -4.446,6.006c-0.08,0.165 -0.127,0.343 -0.141,0.525c-0.19,2.55 0.092,5.025 0.848,7.424c-2.455,0.545 -4.74,1.538 -6.854,2.978c-0.151,0.103 -0.281,0.233 -0.384,0.384c-1.44,2.114 -2.433,4.398 -2.978,6.853c-2.399,-0.755 -4.873,-1.038 -7.424,-0.847c-0.182,0.013 -0.36,0.061 -0.524,0.14c-2.305,1.111 -4.307,2.593 -6.006,4.447c-1.7,-1.854 -3.702,-3.336 -6.006,-4.447c-0.165,-0.079 -0.343,-0.127 -0.525,-0.14c-2.55,-0.191 -5.025,0.092 -7.424,0.848c-0.545,-2.456 -1.538,-4.74 -2.978,-6.854c-0.103,-0.151 -0.233,-0.281 -0.384,-0.384c-2.114,-1.44 -4.398,-2.433 -6.854,-2.978c0.756,-2.399 1.039,-4.874 0.848,-7.424c-0.013,-0.182 -0.061,-0.36 -0.14,-0.525c-1.111,-2.304 -2.593,-4.306 -4.447,-6.006c1.854,-1.699 3.336,-3.701 4.447,-6.006c0.079,-0.164 0.127,-0.342 0.14,-0.524c0.191,-2.551 -0.092,-5.026 -0.848,-7.424c2.456,-0.545 4.74,-1.538 6.854,-2.978c0.151,-0.103 0.281,-0.234 0.384,-0.384c1.44,-2.114 2.433,-4.399 2.978,-6.854c2.399,0.756 4.874,1.038 7.424,0.848c0.182,-0.014 0.36,-0.062 0.525,-0.141c2.304,-1.11 4.306,-2.592 6.006,-4.446l-0,-0Zm-0,20.415c-4.136,0 -7.494,3.358 -7.494,7.494c-0,4.136 3.358,7.494 7.494,7.494c4.136,0 7.494,-3.358 7.494,-7.494c-0,-4.136 -3.358,-7.494 -7.494,-7.494Zm-0,2.917c2.526,0 4.577,2.051 4.577,4.577c-0,2.526 -2.051,4.577 -4.577,4.577c-2.526,0 -4.577,-2.051 -4.577,-4.577c-0,-2.526 2.051,-4.577 4.577,-4.577Z"/><circle cx="803.03" cy="2625.16" r="20.868" style="fill:#ef0707;"/><path d="M788.971,2628.24l7.324,7.324c1.139,1.139 2.986,1.139 4.125,0l16.669,-16.668c1.138,-1.139 1.138,-2.987 -0,-4.126c-1.139,-1.138 -2.987,-1.138 -4.126,0l-14.605,14.606c-0,0 -5.262,-5.261 -5.262,-5.261c-1.138,-1.139 -2.987,-1.139 -4.125,-0c-1.139,1.138 -1.139,2.987 -0,4.125Z" style="fill:#fff;"/></g></g><path d="M521.748,2712.69c0,-4.2 3.44,-7.61 7.677,-7.61l502.418,-0c4.237,-0 7.676,3.41 7.676,7.61l0,5.387c0,14.525 -29.845,16.272 -34.082,16.272l-449.606,-0c-4.237,-0 -34.083,0.411 -34.083,-16.272l0,-5.387Z" style="fill:#fff;"/><path d="M1043.04,2712.69l0,-0l-0.002,-0.219l-0.001,-0.009c-0.121,-6.032 -5.084,-10.906 -11.197,-10.906l-502.418,0c-6.19,0 -11.2,4.997 -11.2,11.134l-0,5.387c-0,8.247 5.612,13.35 13.028,16.221c9.497,3.676 21.896,3.574 24.578,3.574c-0,0 449.606,0 449.606,0c2.687,0 15.113,-0.679 24.627,-4.526c7.456,-3.015 12.979,-8.051 12.979,-15.269c0,-4.849 0,-5.333 0,-5.382l0,-0.005Zm-517.771,-0c0,-2.264 1.869,-4.086 4.153,-4.086c0,-0 502.418,-0 502.418,-0c2.283,-0 4.152,1.822 4.152,4.086l3.524,3.524c0,-0 -3.524,-3.519 -3.524,-3.519c0,0 0,0.533 0,5.382c0,4.409 -4.019,6.894 -8.573,8.736c-8.491,3.433 -19.587,4.012 -21.985,4.012l-449.606,-0c-2.403,-0 -13.526,0.194 -22.034,-3.099c-4.589,-1.777 -8.525,-4.545 -8.525,-9.649c0,0 0,-5.387 0,-5.387Z"/><path d="M813.751,2719.81l-66.234,0" style="fill:none;stroke:#000;stroke-width:4.69px;"/></g><g><path d="M86.459,2717.87c-4.285,0 -7.764,-3.478 -7.764,-7.763l-0,-292.838c-0,-4.285 3.479,-7.764 7.764,-7.764l139.747,0c4.285,0 7.764,3.479 7.764,7.764l-0,292.838c-0,4.285 -3.479,7.763 -7.764,7.763l-139.747,0Z" style="fill:#fff;"/><path d="M86.459,2721.38l139.747,-0c6.225,-0 11.278,-5.054 11.278,-11.278l0,-292.838c0,-6.225 -5.053,-11.278 -11.278,-11.278l-139.747,-0c-6.225,-0 -11.279,5.053 -11.279,11.278l0,292.838c0,6.224 5.054,11.278 11.279,11.278Zm-0,-7.029c-2.346,-0 -4.25,-1.904 -4.25,-4.249c0,-0 0,-292.838 0,-292.838c0,-2.345 1.904,-4.249 4.25,-4.249c-0,-0 139.747,-0 139.747,-0c2.345,-0 4.249,1.904 4.249,4.249c0,0 0,292.838 0,292.838c0,2.345 -1.904,4.249 -4.249,4.249l-139.747,-0Z"/><g><path d="M207.809,2512.16c0.04,-0.039 -29.969,-27.803 -30.024,-27.803l-68.812,-0c-2.273,-0 -4.118,1.845 -4.118,4.118l0,138.181c0,2.273 1.845,4.118 4.118,4.118l94.718,0c2.273,0 4.118,-1.845 4.118,-4.118l0,-114.496Z" style="fill:#fff;stroke:#000;stroke-width:2.41px;"/><path d="M177.579,2484.36l0,0.006c0,7.398 2.939,14.492 8.169,19.723c5.231,5.23 12.325,8.169 19.723,8.169c1.084,-0 1.719,-0 1.719,-0" style="fill:none;stroke:#000;stroke-width:2.41px;"/><path d="M118.244,2553.3c-1.315,-0.526 -2.376,-1.543 -2.957,-2.836c-1.316,-2.619 -0.877,-5.239 0.54,-7.439c1.337,-2.073 3.551,-3.835 6.056,-5.314c3.173,-1.799 6.527,-3.259 10.006,-4.354c2.701,-4.857 5.096,-9.879 7.169,-15.035c-1.239,-2.817 -2.211,-5.744 -2.903,-8.743c-0.58,-2.701 -0.803,-5.374 -0.31,-7.67c0.506,-2.39 1.85,-4.537 4.388,-5.556c1.296,-0.52 2.701,-0.81 4.064,-0.52c1.389,0.296 2.573,1.201 3.221,2.464c0.594,1.108 0.81,2.404 0.857,3.632c0.047,1.27 -0.081,2.674 -0.317,4.146c-0.567,3.443 -1.823,7.656 -3.511,12.112c1.863,3.983 4.077,7.792 6.616,11.382c3.005,-0.237 6.028,-0.124 9.007,0.338c2.457,0.445 4.955,1.316 6.481,3.139c0.81,0.972 1.303,2.161 1.35,3.497c0.047,1.297 -0.317,2.579 -0.931,3.801c-0.533,1.133 -1.358,2.102 -2.39,2.809c-1.021,0.666 -2.227,0.992 -3.444,0.931c-2.234,-0.094 -4.415,-1.323 -6.299,-2.815c-2.29,-1.894 -4.354,-4.046 -6.15,-6.414c-4.565,0.519 -9.077,1.436 -13.482,2.742c-2.018,3.577 -4.321,6.987 -6.887,10.194c-1.971,2.363 -4.111,4.429 -6.258,5.313c-1.233,0.558 -2.633,0.628 -3.916,0.196Zm9.31,-12.834c-1.12,0.513 -2.16,1.053 -3.099,1.607c-2.214,1.309 -3.652,2.585 -4.368,3.693c-0.634,0.979 -0.648,1.687 -0.27,2.437c0.068,0.148 0.135,0.243 0.176,0.297c0.08,-0.022 0.159,-0.049 0.236,-0.081c0.925,-0.378 2.397,-1.587 4.287,-3.862c1.075,-1.316 2.089,-2.681 3.038,-4.091Zm11.072,-8.979c2.255,-0.527 4.53,-0.961 6.819,-1.303c-1.229,-1.882 -2.378,-3.814 -3.443,-5.793c-1.059,2.394 -2.185,4.758 -3.376,7.089l0,0.007Zm16.514,3.038c1.013,1.1 1.998,2.025 2.937,2.768c1.62,1.282 2.748,1.708 3.362,1.728c0.164,0.022 0.331,-0.014 0.473,-0.101c0.28,-0.222 0.499,-0.513 0.634,-0.844c0.24,-0.411 0.377,-0.875 0.398,-1.35c-0.003,-0.159 -0.066,-0.311 -0.175,-0.426c-0.351,-0.418 -1.35,-1.026 -3.497,-1.411c-1.366,-0.228 -2.747,-0.348 -4.132,-0.358l0,-0.006Zm-13.435,-23.67c0.568,-1.833 1.019,-3.7 1.35,-5.59c0.209,-1.27 0.291,-2.316 0.257,-3.14c0.002,-0.454 -0.071,-0.906 -0.216,-1.336c-0.338,0.041 -0.668,0.132 -0.979,0.27c-0.588,0.236 -1.067,0.715 -1.323,1.91c-0.271,1.296 -0.203,3.167 0.31,5.55c0.162,0.749 0.365,1.532 0.608,2.336l-0.007,-0Z" style="fill:#ef0707;fill-rule:nonzero;"/><g><path d="M165.434,2611.32l0,31.697l9.149,-8.287l9.149,8.287l0,-31.697l-18.298,-0Z" style="fill:#fff;"/><path d="M165.434,2610.11c-0.666,0 -1.207,0.54 -1.207,1.207l0,31.697c0,0.477 0.282,0.909 0.718,1.103c0.436,0.193 0.946,0.112 1.3,-0.209l8.338,-7.553c0,0 8.339,7.553 8.339,7.553c0.354,0.321 0.863,0.402 1.3,0.209c0.436,-0.194 0.717,-0.626 0.717,-1.103l0,-31.697c0,-0.667 -0.54,-1.207 -1.207,-1.207l-18.298,0Zm1.207,2.414l15.885,-0c-0,-0 -0,27.768 -0,27.768c-0,-0 -7.132,-6.46 -7.132,-6.46c-0.46,-0.416 -1.161,-0.416 -1.621,0l-7.132,6.46c0,-0 0,-27.768 0,-27.768Z"/><path d="M174.583,2577.22c-1.476,1.926 -3.307,3.416 -5.493,4.469c-2.42,0.181 -4.751,-0.194 -6.993,-1.123c-0.315,2.406 -1.157,4.612 -2.523,6.617c-2.006,1.367 -4.211,2.208 -6.618,2.523c0.93,2.242 1.305,4.573 1.124,6.993c-1.053,2.186 -2.543,4.017 -4.469,5.494c1.926,1.476 3.416,3.307 4.469,5.494c0.181,2.42 -0.194,4.75 -1.124,6.992c2.407,0.316 4.612,1.157 6.618,2.523c1.366,2.006 2.208,4.211 2.523,6.618c2.242,-0.93 4.573,-1.305 6.993,-1.124c2.186,1.054 4.017,2.543 5.493,4.469c1.477,-1.926 3.308,-3.415 5.494,-4.469c2.42,-0.181 4.751,0.194 6.993,1.124c0.315,-2.407 1.156,-4.612 2.523,-6.618c2.005,-1.366 4.211,-2.207 6.617,-2.523c-0.929,-2.242 -1.304,-4.572 -1.123,-6.992c1.053,-2.187 2.543,-4.018 4.469,-5.494c-1.926,-1.477 -3.416,-3.308 -4.469,-5.494c-0.181,-2.42 0.194,-4.751 1.123,-6.993c-2.406,-0.315 -4.612,-1.156 -6.617,-2.523c-1.367,-2.005 -2.208,-4.211 -2.523,-6.617c-2.242,0.929 -4.573,1.304 -6.993,1.123c-2.186,-1.053 -4.017,-2.543 -5.494,-4.469Zm0,19.978c2.757,0 4.995,2.238 4.995,4.995c-0,2.756 -2.238,4.994 -4.995,4.994c-2.756,0 -4.994,-2.238 -4.994,-4.994c-0,-2.757 2.238,-4.995 4.994,-4.995Z" style="fill:#ef0707;"/><path d="M175.541,2576.49c-0.228,-0.298 -0.582,-0.473 -0.958,-0.473c-0.375,0 -0.729,0.175 -0.957,0.473c-1.312,1.711 -2.927,3.048 -4.847,4.011c-2.157,0.131 -4.226,-0.219 -6.219,-1.046c-0.347,-0.144 -0.741,-0.118 -1.066,0.069c-0.325,0.188 -0.545,0.517 -0.594,0.889c-0.28,2.137 -1.01,4.103 -2.191,5.897c-1.803,1.191 -3.77,1.923 -5.909,2.204c-0.373,0.048 -0.701,0.268 -0.889,0.593c-0.187,0.325 -0.213,0.719 -0.069,1.066c0.826,1.991 1.176,4.058 1.05,6.203c-0.965,1.933 -2.303,3.55 -4.015,4.863c-0.298,0.228 -0.473,0.582 -0.473,0.958c-0,0.375 0.175,0.729 0.473,0.958c1.71,1.311 3.047,2.926 4.011,4.846c0.13,2.157 -0.22,4.226 -1.046,6.22c-0.144,0.346 -0.118,0.74 0.069,1.065c0.188,0.326 0.516,0.545 0.889,0.594c2.137,0.28 4.103,1.011 5.897,2.191c1.191,1.803 1.923,3.77 2.203,5.91c0.049,0.372 0.269,0.7 0.594,0.888c0.325,0.188 0.719,0.213 1.066,0.069c1.991,-0.825 4.058,-1.176 6.202,-1.05c1.933,0.965 3.551,2.303 4.864,4.016c0.228,0.298 0.582,0.472 0.957,0.472c0.376,0 0.73,-0.174 0.958,-0.472c1.312,-1.711 2.927,-3.048 4.847,-4.012c2.157,-0.13 4.226,0.22 6.219,1.046c0.347,0.144 0.741,0.119 1.066,-0.069c0.325,-0.188 0.545,-0.516 0.593,-0.888c0.281,-2.138 1.011,-4.103 2.192,-5.897c1.802,-1.192 3.77,-1.924 5.909,-2.204c0.373,-0.049 0.701,-0.268 0.889,-0.594c0.187,-0.325 0.213,-0.719 0.069,-1.065c-0.826,-1.992 -1.176,-4.059 -1.05,-6.203c0.965,-1.933 2.303,-3.551 4.015,-4.863c0.298,-0.229 0.473,-0.583 0.473,-0.958c0,-0.376 -0.175,-0.73 -0.473,-0.958c-1.71,-1.312 -3.048,-2.927 -4.011,-4.847c-0.131,-2.156 0.22,-4.226 1.046,-6.219c0.144,-0.347 0.118,-0.741 -0.069,-1.066c-0.188,-0.325 -0.516,-0.545 -0.889,-0.593c-2.137,-0.281 -4.103,-1.011 -5.897,-2.192c-1.191,-1.802 -1.923,-3.77 -2.204,-5.909c-0.048,-0.372 -0.268,-0.701 -0.593,-0.889c-0.325,-0.187 -0.719,-0.213 -1.066,-0.069c-1.991,0.826 -4.058,1.176 -6.202,1.05c-1.934,-0.965 -3.551,-2.303 -4.864,-4.015Zm-0.957,2.611c1.406,1.534 3.063,2.761 4.969,3.679c0.137,0.066 0.284,0.106 0.434,0.117c2.111,0.157 4.159,-0.076 6.144,-0.702c0.451,2.032 1.273,3.923 2.465,5.672c0.085,0.125 0.192,0.232 0.317,0.317c1.75,1.192 3.64,2.014 5.672,2.465c-0.626,1.985 -0.859,4.033 -0.702,6.144c0.012,0.15 0.051,0.298 0.117,0.434c0.918,1.907 2.145,3.563 3.679,4.97c-1.534,1.406 -2.761,3.063 -3.679,4.97c-0.066,0.136 -0.105,0.283 -0.117,0.434c-0.157,2.11 0.076,4.158 0.702,6.143c-2.032,0.451 -3.923,1.273 -5.672,2.465c-0.125,0.085 -0.232,0.193 -0.317,0.318c-1.192,1.749 -2.014,3.639 -2.465,5.671c-1.985,-0.625 -4.033,-0.859 -6.144,-0.701c-0.15,0.011 -0.297,0.05 -0.434,0.116c-1.906,0.919 -3.563,2.145 -4.97,3.679c-1.406,-1.534 -3.063,-2.76 -4.97,-3.679c-0.136,-0.066 -0.283,-0.105 -0.434,-0.116c-2.11,-0.158 -4.158,0.076 -6.143,0.701c-0.451,-2.032 -1.273,-3.922 -2.465,-5.671c-0.085,-0.125 -0.193,-0.233 -0.317,-0.318c-1.75,-1.192 -3.64,-2.014 -5.672,-2.465c0.625,-1.985 0.859,-4.033 0.702,-6.143c-0.012,-0.151 -0.051,-0.298 -0.117,-0.434c-0.919,-1.907 -2.145,-3.564 -3.679,-4.97c1.534,-1.407 2.76,-3.063 3.679,-4.97c0.066,-0.136 0.105,-0.284 0.117,-0.434c0.157,-2.111 -0.077,-4.159 -0.702,-6.144c2.032,-0.451 3.922,-1.273 5.672,-2.465c0.124,-0.085 0.232,-0.192 0.317,-0.317c1.192,-1.749 2.014,-3.64 2.465,-5.672c1.985,0.626 4.033,0.859 6.143,0.702c0.151,-0.011 0.298,-0.051 0.434,-0.117c1.907,-0.918 3.564,-2.145 4.97,-3.679l0.001,0Zm-0.001,16.894c-3.422,0 -6.201,2.779 -6.201,6.202c-0,3.422 2.779,6.201 6.201,6.201c3.423,0 6.202,-2.779 6.202,-6.201c-0,-3.423 -2.779,-6.202 -6.202,-6.202Zm0,2.414c2.091,0 3.788,1.697 3.788,3.788c0,2.09 -1.697,3.787 -3.788,3.787c-2.09,0 -3.787,-1.697 -3.787,-3.787c-0,-2.091 1.697,-3.788 3.787,-3.788Z"/><circle cx="174.583" cy="2602.19" r="17.269" style="fill:#ef0707;"/><path d="M162.949,2604.74l6.061,6.061c0.943,0.943 2.471,0.943 3.414,0l13.793,-13.793c0.942,-0.942 0.942,-2.472 0,-3.414c-0.942,-0.942 -2.471,-0.942 -3.413,0l-12.087,12.087c0,-0 -4.354,-4.354 -4.354,-4.354c-0.942,-0.942 -2.471,-0.942 -3.414,-0c-0.942,0.942 -0.942,2.471 0,3.413Z" style="fill:#fff;"/></g></g><path d="M167.498,2428.64c0,-1.563 -1.269,-2.832 -2.832,-2.832l-16.667,-0c-1.564,-0 -2.833,1.269 -2.833,2.832c0,1.564 1.269,2.833 2.833,2.833l16.667,0c1.563,0 2.832,-1.269 2.832,-2.833Z" style="stroke:#000;stroke-width:1.72px;"/></g><path d="M1097.67,2734.35l-1094.28,0" style="fill:none;stroke:#000;stroke-width:6.78px;"/></g><g><path d="M1136.05,1762.72l-179.6,0c-4.081,0 -7.395,3.314 -7.395,7.395l0,14.789c0,4.082 3.314,7.395 7.395,7.395l440.398,0c4.082,0 7.395,-3.313 7.395,-7.395l0,-14.789c0,-4.081 -3.313,-7.395 -7.395,-7.395l-179.599,0l-0,-127.194l-81.199,-0l-0,127.194Z"/><path d="M1693.45,1116.65c-0,-16.044 -13.026,-29.07 -29.07,-29.07l-975.459,0c-16.045,0 -29.07,13.026 -29.07,29.07l-0,523.26c-0,16.044 13.025,29.07 29.07,29.07l975.459,0c16.044,0 29.07,-13.026 29.07,-29.07l-0,-523.26Z" style="fill:#b0d6e0;"/><path d="M1697.19,1116.65c-0,-18.109 -14.703,-32.811 -32.812,-32.811c-0,-0 -975.459,-0 -975.459,-0c-18.11,-0 -32.812,14.702 -32.812,32.811l-0,523.26c-0,18.109 14.702,32.812 32.812,32.812c-0,-0 975.459,-0 975.459,-0c18.109,-0 32.812,-14.703 32.812,-32.812c-0,0 -0,-523.26 -0,-523.26Zm-7.484,0l-0,523.26c-0,13.979 -11.349,25.328 -25.328,25.328l-975.459,0c-13.979,0 -25.328,-11.349 -25.328,-25.328c-0,0 -0,-523.26 -0,-523.26c-0,-13.978 11.349,-25.328 25.328,-25.328l975.459,0c13.979,0 25.328,11.35 25.328,25.328Z"/><path d="M1669.55,1133.41c-0,-14.896 -12.093,-26.989 -26.988,-26.989l-931.817,0c-14.895,0 -26.988,12.093 -26.988,26.989l-0,485.785c-0,14.895 12.093,26.988 26.988,26.988l931.817,-0c14.895,-0 26.988,-12.093 26.988,-26.988l-0,-485.785Z" style="fill:#fff;"/><g><path d="M1531.28,1257.37c0.094,-0.093 -70.762,-65.649 -70.894,-65.649l-162.478,0c-5.366,0 -9.723,4.358 -9.723,9.724l-0,326.274c-0,5.366 4.357,9.723 9.723,9.723l223.649,0c5.366,0 9.723,-4.357 9.723,-9.723l0,-270.349Z" style="fill:#fff;stroke:#000;stroke-width:5.7px;"/><path d="M1459.9,1191.72l0,24.216c0,23.007 18.651,41.657 41.658,41.657c14.982,0 28.259,0 28.259,0" style="fill:none;stroke:#000;stroke-width:5.7px;"/><path d="M1319.8,1354.51c-3.106,-1.242 -5.611,-3.644 -6.982,-6.695c-3.109,-6.185 -2.073,-12.37 1.275,-17.567c3.156,-4.894 8.385,-9.055 14.299,-12.546c7.492,-4.249 15.41,-7.695 23.625,-10.282c6.379,-11.468 12.034,-23.325 16.929,-35.501c-2.927,-6.651 -5.222,-13.563 -6.854,-20.644c-1.371,-6.376 -1.897,-12.689 -0.734,-18.109c1.196,-5.643 4.368,-10.712 10.362,-13.119c3.061,-1.228 6.377,-1.913 9.597,-1.228c3.278,0.698 6.073,2.837 7.604,5.819c1.403,2.614 1.913,5.675 2.024,8.576c0.112,2.997 -0.191,6.313 -0.749,9.788c-1.339,8.13 -4.304,18.077 -8.289,28.598c4.398,9.406 9.626,18.4 15.622,26.877c7.095,-0.56 14.232,-0.293 21.265,0.797c5.803,1.052 11.701,3.109 15.304,7.413c1.913,2.295 3.077,5.101 3.188,8.257c0.112,3.061 -0.749,6.09 -2.2,8.975c-1.256,2.674 -3.205,4.964 -5.643,6.632c-2.41,1.572 -5.256,2.342 -8.13,2.2c-5.276,-0.224 -10.425,-3.125 -14.873,-6.648c-5.408,-4.471 -10.281,-9.553 -14.522,-15.144c-10.78,1.223 -21.433,3.389 -31.835,6.472c-4.763,8.448 -10.201,16.498 -16.26,24.071c-4.655,5.58 -9.708,10.458 -14.777,12.546c-2.912,1.317 -6.218,1.482 -9.246,0.462Zm21.983,-30.304c-2.646,1.212 -5.101,2.487 -7.317,3.794c-5.229,3.093 -8.624,6.106 -10.314,8.72c-1.499,2.311 -1.531,3.985 -0.638,5.755c0.16,0.35 0.319,0.574 0.415,0.701c0.19,-0.051 0.376,-0.115 0.558,-0.191c2.184,-0.893 5.659,-3.746 10.122,-9.118c2.539,-3.109 4.932,-6.332 7.174,-9.661Zm26.143,-21.202c5.323,-1.242 10.695,-2.268 16.101,-3.076c-2.903,-4.442 -5.615,-9.005 -8.13,-13.678c-2.501,5.653 -5.158,11.234 -7.971,16.738l0,0.016Zm38.992,7.174c2.391,2.598 4.719,4.782 6.935,6.536c3.826,3.029 6.488,4.033 7.938,4.081c0.389,0.051 0.783,-0.034 1.116,-0.239c0.663,-0.524 1.18,-1.211 1.499,-1.993c0.566,-0.971 0.889,-2.065 0.94,-3.188c-0.009,-0.375 -0.157,-0.733 -0.414,-1.005c-0.829,-0.988 -3.188,-2.423 -8.258,-3.331c-3.224,-0.54 -6.486,-0.822 -9.756,-0.845l0,-0.016Zm-31.723,-55.89c1.342,-4.327 2.407,-8.736 3.189,-13.199c0.494,-2.997 0.685,-5.468 0.605,-7.413c0.005,-1.073 -0.168,-2.139 -0.51,-3.156c-0.797,0.099 -1.576,0.314 -2.311,0.638c-1.387,0.558 -2.519,1.689 -3.125,4.511c-0.637,3.061 -0.478,7.476 0.734,13.104c0.382,1.769 0.86,3.618 1.434,5.515l-0.016,0Z" style="fill:#ef0707;fill-rule:nonzero;"/></g><g><path d="M1058.78,1256.62c0.093,-0.093 -70.763,-65.649 -70.895,-65.649l-162.477,0c-5.367,0 -9.724,4.357 -9.724,9.724l-0,326.274c-0,5.366 4.357,9.723 9.724,9.723l223.648,0c5.366,0 9.724,-4.357 9.724,-9.723l-0,-270.349Z" style="fill:#fff;stroke:#000;stroke-width:5.7px;"/><path d="M987.399,1190.97c0,0 0,11.116 0,24.216c0.001,23.007 18.651,41.657 41.658,41.657c14.982,0 28.259,0 28.259,0" style="fill:none;stroke:#000;stroke-width:5.7px;"/><path d="M847.298,1353.76c-3.106,-1.242 -5.611,-3.644 -6.982,-6.695c-3.109,-6.185 -2.073,-12.37 1.275,-17.567c3.156,-4.894 8.385,-9.055 14.299,-12.546c7.492,-4.249 15.41,-7.695 23.625,-10.282c6.38,-11.468 12.034,-23.325 16.93,-35.501c-2.928,-6.651 -5.223,-13.563 -6.855,-20.644c-1.371,-6.376 -1.897,-12.689 -0.733,-18.109c1.195,-5.643 4.368,-10.712 10.361,-13.119c3.061,-1.228 6.377,-1.913 9.597,-1.228c3.278,0.698 6.073,2.837 7.604,5.819c1.403,2.614 1.913,5.675 2.024,8.576c0.112,2.997 -0.191,6.313 -0.749,9.788c-1.339,8.13 -4.304,18.077 -8.289,28.598c4.398,9.406 9.626,18.4 15.622,26.877c7.096,-0.56 14.232,-0.293 21.266,0.797c5.802,1.052 11.7,3.109 15.303,7.413c1.913,2.295 3.077,5.101 3.188,8.257c0.112,3.061 -0.749,6.09 -2.2,8.975c-1.256,2.674 -3.205,4.964 -5.643,6.632c-2.41,1.572 -5.256,2.342 -8.13,2.2c-5.276,-0.224 -10.425,-3.125 -14.873,-6.648c-5.408,-4.471 -10.281,-9.553 -14.522,-15.144c-10.78,1.223 -21.433,3.389 -31.835,6.472c-4.763,8.448 -10.201,16.498 -16.26,24.071c-4.654,5.58 -9.708,10.458 -14.777,12.546c-2.912,1.317 -6.217,1.482 -9.246,0.462Zm21.983,-30.304c-2.646,1.212 -5.101,2.487 -7.317,3.794c-5.229,3.093 -8.624,6.106 -10.314,8.72c-1.498,2.311 -1.53,3.985 -0.638,5.755c0.16,0.35 0.319,0.574 0.415,0.701c0.19,-0.051 0.376,-0.115 0.558,-0.191c2.184,-0.893 5.659,-3.746 10.122,-9.119c2.539,-3.108 4.933,-6.331 7.174,-9.66Zm26.143,-21.202c5.324,-1.242 10.695,-2.268 16.101,-3.076c-2.903,-4.442 -5.615,-9.005 -8.13,-13.678c-2.5,5.653 -5.158,11.234 -7.971,16.738l0,0.016Zm38.992,7.174c2.392,2.598 4.719,4.782 6.935,6.536c3.826,3.029 6.488,4.033 7.939,4.081c0.388,0.051 0.782,-0.034 1.115,-0.239c0.664,-0.524 1.18,-1.211 1.499,-1.993c0.567,-0.971 0.889,-2.065 0.94,-3.188c-0.009,-0.375 -0.157,-0.733 -0.414,-1.005c-0.829,-0.988 -3.188,-2.423 -8.258,-3.331c-3.224,-0.54 -6.486,-0.822 -9.756,-0.845l0,-0.016Zm-31.722,-55.89c1.341,-4.327 2.406,-8.736 3.188,-13.199c0.494,-2.997 0.685,-5.468 0.606,-7.413c0.004,-1.073 -0.168,-2.139 -0.511,-3.156c-0.797,0.099 -1.576,0.314 -2.311,0.638c-1.387,0.558 -2.519,1.689 -3.125,4.511c-0.637,3.061 -0.478,7.476 0.734,13.104c0.382,1.769 0.861,3.618 1.434,5.515l-0.015,0Z" style="fill:#ef0707;fill-rule:nonzero;"/><g><path d="M957.9,1490.75l-0,74.842l21.603,-19.567l21.602,19.567l0,-74.842l-43.205,-0Z" style="fill:#fff;"/><path d="M957.9,1487.9c-1.574,0 -2.85,1.276 -2.85,2.85l0,74.842c0,1.127 0.664,2.148 1.695,2.605c1.03,0.457 2.233,0.264 3.068,-0.493l19.69,-17.834c-0,0 19.689,17.834 19.689,17.834c0.836,0.757 2.038,0.95 3.069,0.493c1.03,-0.457 1.694,-1.478 1.694,-2.605c0,0 0,-74.842 0,-74.842c0,-1.574 -1.276,-2.85 -2.85,-2.85l-43.205,0Zm2.85,5.7l37.506,-0c-0,-0 -0,65.566 -0,65.566c-0,-0 -16.84,-15.253 -16.84,-15.253c-1.086,-0.983 -2.741,-0.983 -3.826,0l-16.84,15.253l-0,-65.566Z"/><path d="M979.503,1410.24c-3.486,4.548 -7.81,8.065 -12.973,10.553c-5.714,0.427 -11.217,-0.458 -16.51,-2.653c-0.745,5.681 -2.731,10.89 -5.958,15.625c-4.735,3.227 -9.944,5.213 -15.625,5.958c2.195,5.293 3.08,10.796 2.653,16.51c-2.488,5.162 -6.005,9.486 -10.553,12.973c4.548,3.486 8.065,7.81 10.553,12.972c0.427,5.714 -0.458,11.217 -2.653,16.51c5.681,0.745 10.89,2.731 15.625,5.958c3.227,4.735 5.213,9.944 5.958,15.625c5.293,-2.195 10.796,-3.079 16.51,-2.653c5.163,2.488 9.487,6.005 12.973,10.553c3.486,-4.548 7.81,-8.065 12.972,-10.553c5.714,-0.426 11.218,0.458 16.51,2.653c0.746,-5.681 2.732,-10.89 5.958,-15.625c4.736,-3.227 9.944,-5.213 15.625,-5.958c-2.195,-5.293 -3.079,-10.796 -2.653,-16.51c2.488,-5.162 6.005,-9.486 10.553,-12.972c-4.548,-3.487 -8.065,-7.811 -10.553,-12.973c-0.426,-5.714 0.458,-11.217 2.653,-16.51c-5.681,-0.745 -10.889,-2.731 -15.625,-5.958c-3.226,-4.735 -5.212,-9.944 -5.958,-15.625c-5.292,2.195 -10.796,3.08 -16.51,2.653c-5.162,-2.488 -9.486,-6.005 -12.972,-10.553Zm-0,47.172c6.508,0 11.793,5.285 11.793,11.794c-0,6.508 -5.285,11.793 -11.793,11.793c-6.509,-0 -11.793,-5.285 -11.793,-11.793c-0,-6.509 5.284,-11.794 11.793,-11.794Z" style="fill:#ef0707;"/><path d="M981.764,1408.51c-0.539,-0.703 -1.375,-1.116 -2.261,-1.116c-0.887,0 -1.723,0.413 -2.262,1.116c-3.1,4.045 -6.92,7.204 -11.459,9.479c-5.077,0.301 -9.964,-0.525 -14.67,-2.477c-0.819,-0.34 -1.749,-0.279 -2.517,0.164c-0.768,0.443 -1.285,1.218 -1.401,2.097c-0.662,5.053 -2.391,9.699 -5.184,13.939c-4.246,2.799 -8.892,4.527 -13.944,5.189c-0.879,0.115 -1.654,0.633 -2.097,1.401c-0.443,0.768 -0.504,1.698 -0.164,2.517c1.952,4.707 2.779,9.595 2.479,14.663c-2.278,4.547 -5.437,8.366 -9.481,11.466c-0.703,0.539 -1.116,1.375 -1.116,2.262c0,0.886 0.413,1.722 1.116,2.261c4.045,3.101 7.204,6.92 9.48,11.46c0.3,5.076 -0.526,9.963 -2.478,14.669c-0.34,0.819 -0.279,1.749 0.164,2.517c0.443,0.768 1.218,1.286 2.097,1.401c5.053,0.663 9.699,2.391 13.939,5.184c2.799,4.246 4.527,8.892 5.189,13.944c0.116,0.879 0.633,1.654 1.401,2.097c0.768,0.443 1.698,0.504 2.517,0.165c4.707,-1.953 9.595,-2.779 14.663,-2.48c4.547,2.278 8.366,5.437 11.466,9.481c0.539,0.703 1.375,1.116 2.262,1.116c0.886,-0 1.722,-0.413 2.261,-1.116c3.101,-4.044 6.92,-7.204 11.46,-9.479c5.076,-0.301 9.963,0.526 14.67,2.478c0.818,0.339 1.749,0.278 2.516,-0.165c0.768,-0.443 1.286,-1.218 1.401,-2.097c0.663,-5.053 2.391,-9.699 5.185,-13.939c4.246,-2.799 8.891,-4.526 13.943,-5.189c0.879,-0.115 1.654,-0.633 2.097,-1.401c0.444,-0.768 0.504,-1.698 0.165,-2.517c-1.953,-4.707 -2.779,-9.594 -2.48,-14.663c2.278,-4.547 5.437,-8.366 9.481,-11.466c0.703,-0.539 1.116,-1.375 1.116,-2.261c-0,-0.887 -0.413,-1.723 -1.116,-2.262c-4.044,-3.1 -7.204,-6.92 -9.479,-11.46c-0.301,-5.076 0.526,-9.963 2.478,-14.669c0.339,-0.819 0.279,-1.749 -0.165,-2.517c-0.443,-0.768 -1.218,-1.286 -2.097,-1.401c-5.053,-0.663 -9.699,-2.391 -13.939,-5.184c-2.799,-4.246 -4.526,-8.892 -5.189,-13.944c-0.115,-0.879 -0.633,-1.654 -1.401,-2.097c-0.767,-0.443 -1.698,-0.504 -2.516,-0.164c-4.707,1.952 -9.595,2.778 -14.664,2.479c-4.547,-2.278 -8.366,-5.437 -11.466,-9.481Zm-2.261,6.166c3.32,3.622 7.232,6.518 11.735,8.688c0.321,0.155 0.669,0.248 1.025,0.275c4.984,0.372 9.819,-0.18 14.506,-1.657c1.065,4.798 3.005,9.261 5.819,13.392c0.201,0.294 0.456,0.549 0.751,0.75c4.13,2.814 8.594,4.754 13.391,5.819c-1.477,4.687 -2.029,9.522 -1.656,14.507c0.026,0.355 0.119,0.703 0.274,1.024c2.17,4.503 5.066,8.415 8.688,11.736c-3.622,3.32 -6.518,7.232 -8.688,11.735c-0.155,0.321 -0.248,0.669 -0.274,1.024c-0.373,4.985 0.179,9.82 1.656,14.507c-4.797,1.065 -9.261,3.005 -13.391,5.819c-0.295,0.201 -0.55,0.456 -0.751,0.75c-2.814,4.131 -4.754,8.595 -5.819,13.392c-4.687,-1.477 -9.522,-2.029 -14.506,-1.657c-0.356,0.027 -0.704,0.12 -1.025,0.275c-4.503,2.17 -8.415,5.066 -11.735,8.688c-3.321,-3.622 -7.233,-6.518 -11.735,-8.688c-0.322,-0.155 -0.669,-0.248 -1.025,-0.275c-4.984,-0.372 -9.82,0.18 -14.507,1.657c-1.065,-4.798 -3.004,-9.261 -5.819,-13.392c-0.201,-0.294 -0.455,-0.549 -0.75,-0.75c-4.13,-2.814 -8.594,-4.754 -13.392,-5.819c1.477,-4.687 2.029,-9.522 1.657,-14.507c-0.027,-0.355 -0.12,-0.703 -0.275,-1.024c-2.17,-4.503 -5.066,-8.415 -8.688,-11.736c3.622,-3.32 6.518,-7.232 8.688,-11.735c0.155,-0.321 0.248,-0.669 0.275,-1.024c0.372,-4.985 -0.18,-9.82 -1.657,-14.507c4.798,-1.065 9.262,-3.005 13.392,-5.819c0.295,-0.201 0.549,-0.456 0.75,-0.75c2.815,-4.131 4.754,-8.594 5.819,-13.392c4.687,1.477 9.523,2.029 14.507,1.657c0.356,-0.027 0.703,-0.12 1.025,-0.275c4.502,-2.17 8.414,-5.066 11.735,-8.688l-0,0Zm-0,39.891c-8.082,-0 -14.643,6.561 -14.643,14.643c-0,8.081 6.561,14.642 14.643,14.642c8.081,0 14.643,-6.561 14.643,-14.642c-0,-8.082 -6.562,-14.643 -14.643,-14.643Zm-0,5.699c4.936,0 8.943,4.008 8.943,8.944c-0,4.935 -4.007,8.943 -8.943,8.943c-4.936,-0 -8.944,-4.008 -8.944,-8.943c0,-4.936 4.008,-8.944 8.944,-8.944Z"/><circle cx="979.503" cy="1469.21" r="40.775" style="fill:#ef0707;"/><path d="M952.032,1475.21l14.311,14.311c2.226,2.226 5.835,2.226 8.061,0l32.569,-32.569c2.224,-2.224 2.224,-5.836 -0,-8.06c-2.225,-2.225 -5.836,-2.225 -8.061,-0l-28.538,28.538c-0,0 -10.281,-10.28 -10.281,-10.28c-2.224,-2.225 -5.836,-2.225 -8.061,-0c-2.224,2.224 -2.224,5.836 0,8.06Z" style="fill:#fff;"/></g></g><path d="M1176.65,1106.42l0,539.762" style="fill:none;stroke:#000;stroke-width:7.48px;"/></g><g><g><rect x="1873.11" y="2582.55" width="51.822" height="146.3" style="stroke:#000;stroke-width:10.9px;"/><path d="M2228.84,2251.4c-0,-10.24 -8.313,-18.553 -18.553,-18.553l-622.542,0c-10.24,0 -18.553,8.313 -18.553,18.553l0,333.946c0,10.24 8.313,18.553 18.553,18.553l622.542,0c10.24,0 18.553,-8.313 18.553,-18.553l-0,-333.946Z" style="fill:#fff;"/><path d="M2232.36,2251.4c0,-12.179 -9.888,-22.067 -22.067,-22.067c0,-0 -622.542,-0 -622.542,-0c-12.18,-0 -22.067,9.888 -22.067,22.067l-0,333.946c-0,12.18 9.887,22.068 22.067,22.068l622.542,-0c12.179,-0 22.067,-9.888 22.067,-22.068c0,0 0,-333.946 0,-333.946Zm-7.029,-0l0,333.946c0,8.3 -6.738,15.039 -15.038,15.039c0,-0 -622.542,-0 -622.542,-0c-8.3,-0 -15.038,-6.739 -15.038,-15.039c-0,0 -0,-333.946 -0,-333.946c-0,-8.3 6.738,-15.038 15.038,-15.038l622.542,-0c8.3,-0 15.038,6.738 15.038,15.038Z"/><g><path d="M2039.39,2319.48c0.076,-0.076 -57.518,-53.361 -57.625,-53.361l-132.067,-0c-4.362,-0 -7.904,3.542 -7.904,7.904l0,265.204c0,4.363 3.542,7.904 7.904,7.904l181.788,0c4.362,0 7.904,-3.541 7.904,-7.904l-0,-219.747Z" style="fill:#fff;stroke:#000;stroke-width:4.63px;"/><path d="M1957.76,2486.93c-0,-5.569 0.847,-10.32 2.542,-14.254c1.695,-3.935 3.692,-7.082 5.992,-9.442c2.3,-2.361 5.326,-4.933 9.079,-7.718c3.874,-2.784 6.749,-5.326 8.625,-7.626c1.877,-2.3 2.815,-5.145 2.815,-8.534c-0,-9.079 -5.871,-13.619 -17.614,-13.619c-6.9,0 -11.621,1.725 -14.163,5.175c-2.542,3.45 -3.813,7.233 -3.813,11.349l0.181,4.903l-25.239,-0c-0.484,-2.058 -0.727,-4.177 -0.727,-6.356c0,-6.9 1.725,-13.164 5.176,-18.793c3.45,-5.629 8.594,-10.078 15.434,-13.346c6.839,-3.269 15.162,-4.903 24.967,-4.903c13.437,-0 23.939,2.754 31.504,8.262c7.566,5.508 11.349,13.528 11.349,24.059c0,5.448 -0.877,10.138 -2.633,14.073c-1.755,3.934 -3.873,7.142 -6.355,9.623c-2.482,2.482 -5.78,5.297 -9.896,8.444c-4.963,3.995 -8.625,7.445 -10.986,10.35c-2.36,2.905 -3.541,6.598 -3.541,11.076l0,5.085l-22.697,-0l-0,-7.808Zm-1.09,18.703l25.058,-0l0,24.876l-25.058,0l0,-24.876Z" style="fill-rule:nonzero;"/><path d="M1981.37,2266.12c0,-0 0,4.972 0,11.886c0,23.007 18.651,41.657 41.658,41.657c8.637,0 15.172,0 15.172,0" style="fill:none;stroke:#000;stroke-width:4.63px;"/><path d="M1867.49,2398.44c-2.524,-1.01 -4.56,-2.962 -5.675,-5.442c-2.527,-5.027 -1.684,-10.055 1.037,-14.279c2.565,-3.978 6.815,-7.36 11.622,-10.198c6.09,-3.453 12.526,-6.254 19.203,-8.357c5.186,-9.322 9.782,-18.959 13.761,-28.856c-2.379,-5.407 -4.244,-11.025 -5.571,-16.78c-1.115,-5.183 -1.542,-10.314 -0.597,-14.72c0.972,-4.587 3.551,-8.707 8.423,-10.664c2.488,-0.998 5.183,-1.555 7.8,-0.998c2.665,0.568 4.937,2.306 6.181,4.73c1.14,2.125 1.555,4.613 1.645,6.971c0.091,2.436 -0.155,5.131 -0.609,7.956c-1.088,6.608 -3.498,14.694 -6.737,23.246c3.574,7.645 7.824,14.956 12.698,21.846c5.767,-0.456 11.568,-0.238 17.285,0.648c4.717,0.855 9.511,2.526 12.439,6.025c1.555,1.866 2.501,4.146 2.592,6.712c0.09,2.488 -0.609,4.95 -1.788,7.295c-1.022,2.173 -2.605,4.034 -4.587,5.39c-1.959,1.278 -4.273,1.904 -6.609,1.788c-4.288,-0.181 -8.474,-2.539 -12.089,-5.403c-4.396,-3.635 -8.357,-7.765 -11.804,-12.31c-8.763,0.995 -17.421,2.755 -25.876,5.261c-3.872,6.867 -8.292,13.41 -13.217,19.566c-3.783,4.535 -7.891,8.5 -12.011,10.197c-2.367,1.071 -5.054,1.205 -7.516,0.376Zm17.869,-24.632c-2.151,0.985 -4.147,2.021 -5.948,3.084c-4.25,2.514 -7.01,4.963 -8.383,7.088c-1.218,1.879 -1.244,3.239 -0.518,4.677c0.129,0.285 0.259,0.467 0.336,0.57c0.155,-0.041 0.307,-0.093 0.454,-0.155c1.775,-0.726 4.6,-3.045 8.228,-7.412c2.063,-2.526 4.009,-5.146 5.831,-7.852Zm21.25,-17.233c4.327,-1.01 8.693,-1.844 13.087,-2.501c-2.359,-3.611 -4.564,-7.32 -6.608,-11.118c-2.033,4.595 -4.193,9.132 -6.479,13.606l-0,0.013Zm31.694,5.831c1.943,2.112 3.835,3.887 5.636,5.312c3.11,2.462 5.274,3.278 6.453,3.317c0.316,0.041 0.636,-0.027 0.907,-0.194c0.539,-0.426 0.959,-0.984 1.218,-1.62c0.461,-0.789 0.723,-1.678 0.765,-2.591c-0.008,-0.305 -0.128,-0.596 -0.337,-0.817c-0.674,-0.803 -2.592,-1.969 -6.712,-2.708c-2.621,-0.438 -5.273,-0.668 -7.93,-0.686l-0,-0.013Zm-25.785,-45.429c1.09,-3.518 1.956,-7.101 2.591,-10.729c0.402,-2.436 0.557,-4.444 0.492,-6.025c0.004,-0.872 -0.136,-1.739 -0.414,-2.566c-0.648,0.08 -1.281,0.255 -1.879,0.518c-1.127,0.454 -2.047,1.374 -2.54,3.667c-0.518,2.488 -0.388,6.077 0.596,10.651c0.311,1.439 0.7,2.942 1.166,4.484l-0.012,-0Z" style="fill-rule:nonzero;"/></g><path d="M2014.95,2728.85l-231.852,0" style="fill:none;stroke:#000;stroke-width:7.03px;"/></g><g><path d="M1795.28,2465.32c-0,-6.979 -5.666,-12.645 -12.645,-12.645l-424.317,0c-6.979,0 -12.645,5.666 -12.645,12.645l0,227.613c0,6.98 5.666,12.646 12.645,12.646l424.317,-0c6.979,-0 12.645,-5.666 12.645,-12.646l-0,-227.613Z" style="fill:#fff;"/><path d="M1798.79,2465.32c0,-8.919 -7.241,-16.159 -16.159,-16.159l-424.317,-0c-8.918,-0 -16.159,7.24 -16.159,16.159l-0,227.613c-0,8.919 7.241,16.16 16.159,16.16l424.317,0c8.918,0 16.159,-7.241 16.159,-16.16l0,-227.613Zm-7.029,0l0,227.613c0,5.04 -4.091,9.131 -9.13,9.131c-0,0 -424.317,0 -424.317,0c-5.039,0 -9.13,-4.091 -9.13,-9.131c-0,0 -0,-227.613 -0,-227.613c-0,-5.039 4.091,-9.13 9.13,-9.13c0,-0 424.317,-0 424.317,-0c5.039,-0 9.13,4.091 9.13,9.13Z"/><g><path d="M1632.68,2516.86c0.048,-0.047 -36.215,-33.598 -36.283,-33.598l-83.153,0c-2.747,0 -4.977,2.23 -4.977,4.977l0,166.982c0,2.746 2.23,4.976 4.977,4.976l114.459,0c2.747,0 4.977,-2.23 4.977,-4.976l-0,-138.361Z" style="fill:#fff;stroke:#000;stroke-width:2.92px;"/><path d="M1596.15,2483.26c-0,0 -0,0.002 -0,0.005c-0,18.616 15.091,33.708 33.708,33.708c1.308,0 2.074,0 2.074,0" style="fill:none;stroke:#000;stroke-width:2.92px;"/><path d="M1524.44,2566.57c-1.59,-0.635 -2.872,-1.865 -3.574,-3.426c-1.591,-3.166 -1.06,-6.331 0.653,-8.991c1.615,-2.504 4.291,-4.634 7.318,-6.421c3.834,-2.174 7.887,-3.938 12.091,-5.262c3.265,-5.869 6.159,-11.937 8.664,-18.169c-1.498,-3.403 -2.672,-6.941 -3.508,-10.565c-0.701,-3.263 -0.971,-6.494 -0.375,-9.268c0.612,-2.888 2.235,-5.482 5.303,-6.714c1.566,-0.628 3.263,-0.979 4.911,-0.628c1.678,0.357 3.109,1.451 3.892,2.977c0.718,1.338 0.979,2.905 1.036,4.39c0.057,1.534 -0.098,3.23 -0.384,5.009c-0.685,4.161 -2.202,9.252 -4.242,14.636c2.251,4.814 4.927,9.417 7.995,13.755c3.632,-0.286 7.284,-0.15 10.884,0.408c2.969,0.539 5.988,1.591 7.832,3.794c0.979,1.175 1.574,2.611 1.632,4.226c0.057,1.567 -0.384,3.117 -1.126,4.593c-0.643,1.369 -1.641,2.541 -2.888,3.394c-1.234,0.805 -2.691,1.199 -4.161,1.126c-2.701,-0.114 -5.336,-1.599 -7.612,-3.402c-2.768,-2.288 -5.262,-4.889 -7.432,-7.751c-5.518,0.627 -10.969,1.735 -16.293,3.313c-2.438,4.323 -5.221,8.443 -8.321,12.319c-2.383,2.856 -4.969,5.352 -7.563,6.421c-1.49,0.674 -3.182,0.758 -4.732,0.236Zm11.25,-15.509c-1.354,0.62 -2.61,1.273 -3.744,1.942c-2.676,1.583 -4.414,3.125 -5.279,4.463c-0.767,1.182 -0.783,2.039 -0.326,2.945c0.081,0.179 0.163,0.293 0.212,0.359c0.097,-0.026 0.193,-0.059 0.285,-0.098c1.118,-0.457 2.897,-1.917 5.181,-4.667c1.299,-1.59 2.524,-3.24 3.671,-4.944Zm13.38,-10.851c2.724,-0.635 5.473,-1.161 8.24,-1.574c-1.485,-2.273 -2.874,-4.609 -4.161,-7c-1.279,2.893 -2.64,5.749 -4.079,8.566l0,0.008Zm19.956,3.672c1.223,1.33 2.415,2.447 3.549,3.345c1.958,1.55 3.32,2.064 4.063,2.088c0.198,0.026 0.4,-0.017 0.571,-0.122c0.339,-0.268 0.603,-0.62 0.767,-1.02c0.29,-0.497 0.455,-1.057 0.481,-1.632c-0.005,-0.191 -0.08,-0.374 -0.212,-0.514c-0.425,-0.505 -1.632,-1.24 -4.226,-1.705c-1.651,-0.276 -3.32,-0.42 -4.993,-0.432l-0,-0.008Zm-16.236,-28.604c0.687,-2.215 1.232,-4.471 1.632,-6.755c0.253,-1.534 0.351,-2.798 0.31,-3.794c0.002,-0.549 -0.086,-1.095 -0.261,-1.615c-0.408,0.05 -0.807,0.16 -1.183,0.326c-0.71,0.286 -1.289,0.865 -1.599,2.309c-0.326,1.567 -0.245,3.826 0.375,6.706c0.196,0.906 0.441,1.852 0.735,2.823l-0.009,0Z" style="fill-rule:nonzero;"/><path d="M1583.42,2618.65c-0,-3.526 0.536,-6.534 1.609,-9.025c1.073,-2.49 2.338,-4.483 3.794,-5.977c1.456,-1.495 3.372,-3.123 5.748,-4.886c2.452,-1.763 4.272,-3.372 5.46,-4.828c1.188,-1.456 1.782,-3.257 1.782,-5.403c-0,-5.748 -3.717,-8.622 -11.151,-8.622c-4.368,0 -7.357,1.092 -8.967,3.276c-1.609,2.185 -2.414,4.579 -2.414,7.185l0.115,3.104l-15.979,0c-0.306,-1.303 -0.46,-2.644 -0.46,-4.023c0,-4.369 1.092,-8.335 3.277,-11.899c2.184,-3.563 5.441,-6.38 9.771,-8.449c4.33,-2.069 9.599,-3.104 15.807,-3.104c8.506,0 15.155,1.744 19.945,5.231c4.789,3.487 7.184,8.564 7.184,15.232c0,3.448 -0.555,6.418 -1.666,8.909c-1.112,2.491 -2.453,4.521 -4.024,6.093c-1.571,1.571 -3.659,3.352 -6.265,5.345c-3.142,2.529 -5.461,4.713 -6.955,6.553c-1.494,1.839 -2.242,4.176 -2.242,7.012l0,3.219l-14.369,-0l-0,-4.943Zm-0.69,11.84l15.864,0l0,15.749l-15.864,0l-0,-15.749Z" style="fill-rule:nonzero;"/></g><path d="M1829.36,2713.19c-0,-4.2 -3.44,-7.61 -7.677,-7.61l-502.417,-0c-4.237,-0 -7.677,3.41 -7.677,7.61l0,5.387c0,14.525 29.845,16.271 34.082,16.271l449.607,0c4.237,0 34.082,0.412 34.082,-16.271l-0,-5.387Z" style="fill:#fff;"/><path d="M1832.88,2713.19c-0,-6.137 -5.011,-11.134 -11.201,-11.134c0,-0 -502.417,-0 -502.417,-0c-6.19,-0 -11.201,4.997 -11.201,11.134l3.524,3.523c0,0 -3.524,-3.518 -3.524,-3.518c0,-0 0,0.533 0,5.382c0,7.218 5.524,12.254 12.98,15.269c9.513,3.847 21.94,4.526 24.626,4.526l449.607,0c2.681,0 15.081,0.102 24.577,-3.574c7.417,-2.871 13.029,-7.974 13.029,-16.221c-0,0 -0,-5.387 -0,-5.387Zm-7.048,-0l0,5.387c0,5.103 -3.935,7.872 -8.525,9.648c-8.508,3.294 -19.631,3.1 -22.033,3.1c-0,-0 -449.607,-0 -449.607,-0c-2.397,-0 -13.493,-0.579 -21.984,-4.013c-4.554,-1.841 -8.574,-4.326 -8.574,-8.735l-0,-5.44c-0,-2.211 1.869,-4.034 4.153,-4.034l502.417,0c2.284,0 4.153,1.823 4.153,4.087Z"/><path d="M1537.35,2720.31l66.235,-0" style="fill:none;stroke:#000;stroke-width:4.69px;"/></g><g><path d="M2263.31,2720.18c4.285,-0 7.764,-3.479 7.764,-7.764l0,-292.837c0,-4.285 -3.479,-7.764 -7.764,-7.764l-139.747,-0c-4.285,-0 -7.764,3.479 -7.764,7.764l0,292.837c0,4.285 3.479,7.764 7.764,7.764l139.747,-0Z" style="fill:#fff;"/><path d="M2263.31,2723.7c6.225,0 11.279,-5.053 11.279,-11.278c-0,0 -0,-292.837 -0,-292.837c-0,-6.225 -5.054,-11.279 -11.279,-11.279c0,0 -139.747,0 -139.747,0c-6.225,0 -11.278,5.054 -11.278,11.279c-0,-0 -0,292.837 -0,292.837c-0,6.225 5.053,11.278 11.278,11.278c-0,0 139.747,0 139.747,0Zm0,-7.029l-139.747,0c-2.345,0 -4.249,-1.904 -4.249,-4.249l-0,-292.837c-0,-2.346 1.904,-4.25 4.249,-4.25l139.747,0c2.346,0 4.25,1.904 4.25,4.25l-0,292.837c-0,2.345 -1.904,4.249 -4.25,4.249Z"/><g><path d="M2244.92,2514.47c0.039,-0.04 -29.969,-27.804 -30.025,-27.804l-68.811,0c-2.273,0 -4.119,1.846 -4.119,4.119l0,138.181c0,2.272 1.846,4.118 4.119,4.118l94.717,-0c2.273,-0 4.119,-1.846 4.119,-4.118l-0,-114.496Z" style="fill:#fff;stroke:#000;stroke-width:2.41px;"/><path d="M2214.69,2486.67l0,0.007c0,7.397 2.939,14.492 8.17,19.722c5.23,5.231 12.325,8.17 19.722,8.17c1.084,-0 1.719,-0 1.719,-0" style="fill:none;stroke:#000;stroke-width:2.41px;"/><path d="M2155.35,2555.61c-1.316,-0.527 -2.377,-1.544 -2.958,-2.836c-1.316,-2.62 -0.877,-5.239 0.541,-7.44c1.336,-2.073 3.551,-3.835 6.055,-5.313c3.173,-1.8 6.527,-3.259 10.006,-4.355c2.702,-4.857 5.096,-9.878 7.17,-15.035c-1.24,-2.817 -2.212,-5.744 -2.903,-8.743c-0.581,-2.7 -0.804,-5.374 -0.311,-7.669c0.506,-2.39 1.85,-4.537 4.388,-5.557c1.297,-0.519 2.701,-0.81 4.065,-0.519c1.388,0.295 2.572,1.201 3.22,2.464c0.594,1.107 0.81,2.403 0.858,3.632c0.047,1.269 -0.081,2.674 -0.318,4.145c-0.567,3.443 -1.823,7.656 -3.51,12.112c1.862,3.983 4.076,7.793 6.616,11.383c3.005,-0.238 6.027,-0.124 9.006,0.337c2.457,0.446 4.955,1.317 6.481,3.14c0.81,0.972 1.303,2.16 1.351,3.497c0.047,1.296 -0.318,2.579 -0.932,3.801c-0.532,1.132 -1.358,2.102 -2.39,2.808c-1.021,0.666 -2.226,0.992 -3.443,0.932c-2.235,-0.095 -4.416,-1.323 -6.299,-2.815c-2.291,-1.894 -4.355,-4.046 -6.151,-6.414c-4.565,0.518 -9.077,1.435 -13.482,2.741c-2.017,3.578 -4.32,6.987 -6.886,10.194c-1.972,2.363 -4.112,4.429 -6.259,5.314c-1.233,0.558 -2.633,0.628 -3.915,0.196Zm9.31,-12.835c-1.121,0.513 -2.161,1.054 -3.099,1.607c-2.215,1.31 -3.653,2.586 -4.368,3.693c-0.635,0.979 -0.648,1.688 -0.27,2.437c0.067,0.149 0.135,0.243 0.175,0.297c0.081,-0.021 0.16,-0.048 0.236,-0.081c0.925,-0.378 2.397,-1.586 4.287,-3.861c1.076,-1.317 2.089,-2.682 3.039,-4.092Zm11.072,-8.979c2.254,-0.526 4.529,-0.961 6.818,-1.303c-1.229,-1.881 -2.378,-3.814 -3.443,-5.792c-1.059,2.393 -2.184,4.757 -3.375,7.088l-0,0.007Zm16.513,3.038c1.013,1.101 1.999,2.026 2.937,2.768c1.62,1.283 2.748,1.708 3.362,1.729c0.165,0.021 0.332,-0.015 0.473,-0.102c0.281,-0.221 0.499,-0.512 0.634,-0.844c0.24,-0.411 0.377,-0.874 0.399,-1.35c-0.004,-0.158 -0.067,-0.31 -0.176,-0.425c-0.351,-0.419 -1.35,-1.026 -3.497,-1.411c-1.366,-0.229 -2.747,-0.348 -4.132,-0.358l0,-0.007Zm-13.435,-23.67c0.568,-1.833 1.019,-3.7 1.351,-5.59c0.209,-1.269 0.29,-2.316 0.256,-3.139c0.002,-0.455 -0.071,-0.906 -0.216,-1.337c-0.338,0.042 -0.668,0.133 -0.979,0.27c-0.587,0.236 -1.067,0.716 -1.323,1.911c-0.27,1.296 -0.203,3.166 0.31,5.549c0.162,0.75 0.365,1.533 0.608,2.336l-0.007,0Z" style="fill-rule:nonzero;"/><path d="M2236.73,2578.28c0,2.945 -0.66,5.586 -1.981,7.924c-1.321,2.338 -3.787,4.797 -7.4,7.378l-3.461,2.504c-4.008,2.854 -6.103,6.027 -6.285,9.518l-12.16,0c0.122,-2.064 0.547,-3.977 1.276,-5.738c0.728,-1.761 1.783,-3.415 3.165,-4.964c1.381,-1.548 3.074,-3.021 5.078,-4.417c2.186,-1.518 3.924,-2.892 5.214,-4.122c1.29,-1.229 2.224,-2.444 2.801,-3.643c0.577,-1.199 0.865,-2.497 0.865,-3.894c0,-2.671 -0.873,-4.782 -2.619,-6.33c-1.745,-1.548 -4.227,-2.323 -7.446,-2.323c-3.066,0 -5.639,0.896 -7.719,2.687c-2.079,1.792 -3.301,4.16 -3.666,7.105l-12.979,-0.547c0.82,-6.163 3.355,-10.96 7.605,-14.391c4.251,-3.43 9.776,-5.146 16.577,-5.146c7.196,0 12.85,1.632 16.964,4.896c4.114,3.264 6.171,7.765 6.171,13.503Zm-18.49,34.429l0,12.296l-13.161,-0l0,-12.296l13.161,-0Z" style="fill-rule:nonzero;"/></g><path d="M2204.61,2432.43c-0,-1.563 -1.27,-2.832 -2.833,-2.832l-16.667,-0c-1.563,-0 -2.833,1.269 -2.833,2.832c0,1.564 1.27,2.833 2.833,2.833l16.667,0c1.563,0 2.833,-1.269 2.833,-2.833Z" style="stroke:#000;stroke-width:1.72px;"/></g><path d="M2349.91,2734.35l-1094.28,0" style="fill:none;stroke:#000;stroke-width:6.78px;"/></g><g><g><path d="M361.341,2830.82l-0,71.231l-243.941,0l-0,101.103" style="fill:none;stroke:#ef0707;stroke-width:6.73px;stroke-dasharray:20.2,20.2,0,0;"/><path d="M156.654,2969.28l-39.254,39.254l-39.255,-39.254" style="fill:none;stroke:#ef0707;stroke-width:6.73px;"/></g><g><path d="M613.634,2830.82l0,71.231l243.941,0l0,101.103" style="fill:none;stroke:#ef0707;stroke-width:6.73px;stroke-dasharray:20.2,20.2,0,0;"/><path d="M896.829,2969.28l-39.254,39.254l-39.254,-39.254" style="fill:none;stroke:#ef0707;stroke-width:6.73px;"/></g><g><path d="M494.556,2830.82l-0,172.334" style="fill:none;stroke:#ef0707;stroke-width:6.73px;stroke-dasharray:20.2,20.2,0,0;"/><path d="M533.81,2969.28l-39.254,39.254l-39.254,-39.254" style="fill:none;stroke:#ef0707;stroke-width:6.73px;"/></g></g><g><g><path d="M1708.6,2830.82l0,71.231l-243.941,0l0,101.103" style="fill:none;stroke:#9c9c9c;stroke-width:6.73px;stroke-dasharray:20.2,20.2,0,0;"/><path d="M1503.91,2969.28l-39.255,39.254l-39.254,-39.254" style="fill:none;stroke:#9c9c9c;stroke-width:6.73px;"/></g><g><path d="M1960.89,2830.82l-0,71.231l243.941,0l-0,101.103" style="fill:none;stroke:#9c9c9c;stroke-width:6.73px;stroke-dasharray:20.2,20.2,0,0;"/><path d="M2244.09,2969.28l-39.254,39.254l-39.255,-39.254" style="fill:none;stroke:#9c9c9c;stroke-width:6.73px;"/></g><g><path d="M1841.81,2830.82l0,172.334" style="fill:none;stroke:#9c9c9c;stroke-width:6.73px;stroke-dasharray:20.2,20.2,0,0;"/><path d="M1881.07,2969.28l-39.255,39.254l-39.254,-39.254" style="fill:none;stroke:#9c9c9c;stroke-width:6.73px;"/></g></g><g><path d="M208.244,787.934c-0,-5.125 -4.161,-9.286 -9.285,-9.286l-74.282,0c-5.124,0 -9.285,4.161 -9.285,9.286l0,74.281c0,5.125 4.161,9.285 9.285,9.285l74.282,0c5.124,0 9.285,-4.16 9.285,-9.285l-0,-74.281Z" style="fill:#fff;"/><path d="M211.61,787.934c0,-6.983 -5.669,-12.652 -12.651,-12.652l-74.282,-0c-6.982,-0 -12.651,5.669 -12.651,12.652l-0,74.281c-0,6.983 5.669,12.652 12.651,12.652c0,-0 74.282,-0 74.282,-0c6.982,-0 12.651,-5.669 12.651,-12.652c0,-0 0,-74.281 0,-74.281Zm-6.733,-0l0,74.281c0,3.267 -2.652,5.919 -5.918,5.919l-74.282,-0c-3.266,-0 -5.918,-2.652 -5.918,-5.919c-0,-0 -0,-74.281 -0,-74.281c-0,-3.267 2.652,-5.919 5.918,-5.919c0,-0 74.282,-0 74.282,-0c3.266,-0 5.918,2.652 5.918,5.919Z"/><path d="M197.18,778.648c0,-7.192 0.939,-17.272 -0.374,-26.781c-1.068,-7.735 -3.619,-15.08 -8.948,-20.532c-5.331,-5.455 -13.478,-9.141 -26.04,-9.141c-12.561,-0 -20.708,3.686 -26.04,9.141c-5.328,5.452 -7.88,12.797 -8.948,20.532c-1.312,9.509 -0.374,19.589 -0.374,26.781c-0,1.858 1.508,3.367 3.366,3.367c1.858,-0 3.367,-1.509 3.367,-3.367c-0,-6.944 -0.957,-16.679 0.311,-25.86c0.867,-6.282 2.766,-12.32 7.093,-16.747c4.325,-4.425 11.036,-7.114 21.225,-7.114c10.189,-0 16.9,2.689 21.225,7.114c4.327,4.427 6.226,10.465 7.093,16.747c1.268,9.181 0.311,18.916 0.311,25.86c0,1.858 1.509,3.367 3.367,3.367c1.858,-0 3.366,-1.509 3.366,-3.367Z"/><path d="M156.637,822.833c-4.549,-1.998 -7.73,-6.544 -7.73,-11.828c-0,-7.126 5.785,-12.911 12.911,-12.911c7.126,-0 12.911,5.785 12.911,12.911c0,5.284 -3.181,9.83 -7.73,11.828l3.926,29.222l-18.214,-0l3.926,-29.222Z"/></g><g><path d="M2253.87,787.934c0,-5.125 -4.16,-9.286 -9.285,-9.286l-74.281,0c-5.125,0 -9.285,4.161 -9.285,9.286l-0,74.281c-0,5.125 4.16,9.285 9.285,9.285l74.281,0c5.125,0 9.285,-4.16 9.285,-9.285l0,-74.281Z" style="fill:#fff;"/><path d="M2257.24,787.934c-0,-6.983 -5.669,-12.652 -12.652,-12.652l-74.281,-0c-6.983,-0 -12.652,5.669 -12.652,12.652l0,74.281c0,6.983 5.669,12.652 12.652,12.652c-0,-0 74.281,-0 74.281,-0c6.983,-0 12.652,-5.669 12.652,-12.652c-0,-0 -0,-74.281 -0,-74.281Zm-6.733,-0l-0,74.281c-0,3.267 -2.652,5.919 -5.919,5.919l-74.281,-0c-3.267,-0 -5.919,-2.652 -5.919,-5.919c0,-0 0,-74.281 0,-74.281c0,-3.267 2.652,-5.919 5.919,-5.919c-0,-0 74.281,-0 74.281,-0c3.267,-0 5.919,2.652 5.919,5.919Z"/><path d="M2242.81,778.648c-0,-7.192 0.938,-17.272 -0.374,-26.781c-1.068,-7.735 -3.62,-15.08 -8.949,-20.532c-5.331,-5.455 -13.478,-9.141 -26.039,-9.141c-12.562,-0 -20.709,3.686 -26.04,9.141c-5.329,5.452 -7.881,12.797 -8.949,20.532c-1.312,9.509 -0.374,19.589 -0.374,26.781c0,1.858 1.509,3.367 3.367,3.367c1.858,-0 3.366,-1.509 3.366,-3.367c0,-6.944 -0.956,-16.679 0.311,-25.86c0.867,-6.282 2.767,-12.32 7.094,-16.747c4.324,-4.425 11.036,-7.114 21.225,-7.114c10.188,-0 16.9,2.689 21.224,7.114c4.327,4.427 6.227,10.465 7.094,16.747c1.267,9.181 0.311,18.916 0.311,25.86c-0,1.858 1.508,3.367 3.366,3.367c1.858,-0 3.367,-1.509 3.367,-3.367Z"/><path d="M2202.27,822.833c-4.55,-1.998 -7.731,-6.544 -7.731,-11.828c0,-7.126 5.786,-12.911 12.912,-12.911c7.125,-0 12.911,5.785 12.911,12.911c-0,5.284 -3.181,9.83 -7.731,11.828l3.927,29.222l-18.215,-0l3.927,-29.222Z"/></g><path d="M806.202,1790.68l740.892,0" style="fill:none;stroke:#000;stroke-width:6.73px;"/><g><path d="M446.106,1501.03l-171.999,0l-0,635.941" style="fill:none;stroke:#ef0707;stroke-width:6.73px;stroke-dasharray:20.2,20.2,0,0;"/><path d="M313.361,2097.72l-39.254,39.254l-39.255,-39.254" style="fill:none;stroke:#ef0707;stroke-width:6.73px;"/></g><g><path d="M1929.51,1501.03l171.999,0l-0,635.941" style="fill:none;stroke:#9c9c9c;stroke-width:6.73px;stroke-dasharray:20.2,20.2,0,0;"/><path d="M2062.25,2097.72l39.255,39.254l39.254,-39.254" style="fill:none;stroke:#9c9c9c;stroke-width:6.73px;"/></g></svg>