<?xml version="1.0" encoding="UTF-8"?>
<!-- Generator: Adobe Illustrator 23.0.2, SVG Export Plug-In . SVG Version: 6.00 Build 0)  -->
<svg width="200px" height="50px" enable-background="new 0 0 200 50" version="1.1" viewBox="0 0 200 50" xml:space="preserve" xmlns="http://www.w3.org/2000/svg" xmlns:cc="http://creativecommons.org/ns#" xmlns:dc="http://purl.org/dc/elements/1.1/" xmlns:rdf="http://www.w3.org/1999/02/22-rdf-syntax-ns#">
<style type="text/css">
	.st0{fill:url(#SVGID_1_);}
	.st1{fill:url(#SVGID_2_);}
	.st2{opacity:0.6;fill:url(#SVGID_3_);}
	.st3{fill:url(#SVGID_4_);}
	.st4{fill:url(#SVGID_5_);}
	.st5{fill:url(#SVGID_6_);}
	.st6{fill:url(#SVGID_7_);}
	.st7{fill:url(#SVGID_8_);}
	.st8{fill:url(#SVGID_9_);}
	.st9{fill:url(#SVGID_10_);}
	.st10{fill:#244876;}
	.st11{fill:#253777;}
	.st12{fill:url(#SVGID_11_);}
	.st13{fill:url(#SVGID_12_);}
	.st14{fill:url(#SVGID_13_);}
	.st15{fill:#3C3C3B;}
	.st16{fill:#323234;}
</style>
<title>netidee-Logo-4c-Standard Copy</title>
<desc>Created with Sketch.</desc>

	<linearGradient id="SVGID_1_" x1="40.107" x2="33.228" y1="49.083" y2="8.432" gradientUnits="userSpaceOnUse">
		<stop stop-color="#8AC279" offset="0"/>
		<stop stop-color="#88C27C" offset=".2763"/>
		<stop stop-color="#83C185" offset=".4681"/>
		<stop stop-color="#7AC094" offset=".6342"/>
		<stop stop-color="#6EBEAA" offset=".7858"/>
		<stop stop-color="#5DBCC6" offset=".9261"/>
		<stop stop-color="#53BAD8" offset="1"/>
	</linearGradient>
	<path class="st0" d="m44.3 36.9c-1.4 0-2.5 1-2.6 2.4v1.6c0 1.4-1.2 2.6-2.6 2.6s-2.6-1.2-2.6-2.6v-17.4c0-3.5-1.4-6.8-3.8-9.2-1.7-1.7-3.9-2.9-6.3-3.5-0.2 0.7-0.3 1.5-0.3 2.3v3.1c3 1.1 5.2 4 5.2 7.4v17.4c0 4.3 3.5 7.8 7.8 7.8s7.8-3.5 7.8-7.8v-1.4c-0.1-1.6-1.2-2.7-2.6-2.7z"/>
	
		<linearGradient id="SVGID_2_" x1="455.34" x2="455.34" y1="98.854" y2="53.788" gradientTransform="matrix(-1 0 0 -1 493.52 97.833)" gradientUnits="userSpaceOnUse">
		<stop stop-color="#693388" offset="0"/>
		<stop stop-color="#3FB8EA" offset="1"/>
	</linearGradient>
	<path class="st1" d="m43.1 3.8c-2.4-2.4-5.8-3.8-9.2-3.8-1.5 0-3 0.3-4.4 0.8 4 1 7.6 3.1 10.6 6.1 4.1 4.1 6.5 9.5 6.8 15.3v-0.4-8.8c0-3.4-1.4-6.7-3.8-9.2z"/>
	
		<linearGradient id="SVGID_3_" x1="-3.8362" x2="-3.8362" y1="2403.4" y2="2427.3" gradientTransform="matrix(1 0 0 -1 35.296 2437.4)" gradientUnits="userSpaceOnUse">
		<stop stop-color="#8BC270" stop-opacity="0" offset="0"/>
		<stop stop-color="#4F5C96" offset="1"/>
	</linearGradient>
	<path class="st2" d="m26.4 10.8c2.4 0.6 4.5 1.7 6.3 3.5 2.4 2.4 3.8 5.8 3.8 9.2v7.8c0 0.9-0.5 1.8-1.3 2.2h-2.7c-0.8-0.5-1.3-1.3-1.3-2.2v-13c0.1-3.4-1.8-6.4-4.8-7.5z"/>
	
		<linearGradient id="SVGID_4_" x1="153.68" x2="138.87" y1="-6.7503" y2="66.105" gradientTransform="translate(-133.27)" gradientUnits="userSpaceOnUse">
		<stop stop-color="#53BAD8" offset=".054395"/>
		<stop stop-color="#D0D037" offset=".7384"/>
	</linearGradient>
	<path class="st3" d="m23.5 26.2c-1.4 0-2.6-1.2-2.6-2.6v13.1c0 4.3-3.5 7.8-7.8 7.8s-7.8-3.5-7.8-7.8v-13.2c0-4.8 1.9-9.5 5.3-12.9s8.1-5.3 12.9-5.3c0.4-0.5 0.8-1 1.2-1.4 1.4-1.4 3-2.4 4.8-3-1.9-0.5-3.9-0.8-6-0.8-6.3-0.1-12.2 2.4-16.6 6.8s-6.9 10.3-6.9 16.6v13.2c0 3.5 1.4 6.8 3.8 9.2s5.8 3.8 9.2 3.8c3.5 0 6.8-1.4 9.2-3.8s3.8-5.8 3.8-9.2v-13.1c0.1 1.4-1.1 2.6-2.5 2.6z"/>
	
		<linearGradient id="SVGID_5_" x1="154.15" x2="139.33" y1="-6.6555" y2="66.199" gradientTransform="translate(-133.27)" gradientUnits="userSpaceOnUse">
		<stop stop-color="#3FB8EA" offset="0"/>
		<stop stop-color="#C2D117" offset="1"/>
	</linearGradient>
	<path class="st4" d="m10.4 23.5v13.1c0 1.4 1.2 2.6 2.6 2.6s2.6-1.2 2.6-2.6v-13.1c0-3.4 2.2-6.3 5.2-7.4v-3.1c0-0.8 0.1-1.6 0.2-2.4-2.6 0.5-5 1.7-6.8 3.6-2.4 2.5-3.8 5.8-3.8 9.3z"/>
	<linearGradient id="SVGID_6_" x1="33.827" x2="41.734" y1="4.5361" y2="22.293" gradientUnits="userSpaceOnUse">
		<stop stop-color="#BFE2E8" offset="0"/>
		<stop stop-color="#C5E3DC" offset="1"/>
	</linearGradient>
	<path class="st5" d="m41.7 13c0-4.3-3.5-7.8-7.8-7.8-1.5 0-2.9 0.4-4.1 1.1 2.4 0.9 4.7 2.3 6.5 4.2 3.1 3.1 5 7.4 5.3 11.8"/>
	<linearGradient id="SVGID_7_" x1="23.456" x2="23.456" y1="15.672" y2="30.432" gradientUnits="userSpaceOnUse">
		<stop stop-color="#5B6AAF" offset="0"/>
		<stop stop-color="#7BC08C" offset=".7472"/>
		<stop stop-color="#7BC08C" stop-opacity="0" offset="1"/>
	</linearGradient>
	<path class="st6" d="m23.5 15.6c-0.9 0-1.8 0.2-2.6 0.4v14.4h5.2v-14.4c-0.9-0.2-1.7-0.4-2.6-0.4z"/>
	<linearGradient id="SVGID_8_" x1="10.652" x2="10.652" y1="4.912" y2="36.743" gradientUnits="userSpaceOnUse">
		<stop stop-color="#5B6AAF" offset="0"/>
		<stop stop-color="#8BC270" stop-opacity="0" offset="1"/>
	</linearGradient>
	<path class="st7" d="m6.9 12.1c-4.4 4.4-6.9 10.3-6.9 16.6v6.9h5.2v-12.2c0-4.8 1.9-9.5 5.3-12.9 2.9-2.9 6.7-4.7 10.7-5.2-5.3 0.6-10.4 2.9-14.3 6.8z"/>
	<linearGradient id="SVGID_9_" x1="10.425" x2="26.062" y1="38.165" y2="38.165" gradientUnits="userSpaceOnUse">
		<stop stop-color="#8AC279" offset="0"/>
		<stop stop-color="#7BBF8A" offset="1"/>
	</linearGradient>
	<path class="st8" d="m20.8 26.6v10.1 0.3c-0.1 3.3-1.4 6.5-3.8 8.9-1.8 1.8-4.1 3-6.6 3.6 0.9 0.2 1.7 0.3 2.6 0.3 3.5 0 6.8-1.4 9.2-3.8s3.8-5.8 3.8-9.2v-10.2h-5.2z"/>
	
		<linearGradient id="SVGID_10_" x1="468.08" x2="468.08" y1="98.854" y2="53.788" gradientTransform="matrix(-1 0 0 -1 493.52 97.833)" gradientUnits="userSpaceOnUse">
		<stop stop-color="#693388" offset="0"/>
		<stop stop-color="#3FB8EA" offset="1"/>
	</linearGradient>
	<path class="st9" d="m23.5 10.4c1 0 2 0.1 2.9 0.3 0.6-1.9 1.8-3.4 3.4-4.4-2-0.7-4.2-1.1-6.3-1.1-1.2 1.6-2 3.5-2.4 5.4 0.8-0.1 1.6-0.2 2.4-0.2z"/>
	<path class="st10" d="m26.4 10.8c-1-0.2-1.9-0.3-2.9-0.3-0.8 0-1.6 0.1-2.4 0.2-0.1 0.8-0.2 1.6-0.2 2.4v3.1c0.8-0.3 1.7-0.4 2.6-0.4s1.8 0.2 2.6 0.4v-3.2c0-0.8 0.1-1.5 0.3-2.2z"/>
	<path class="st11" d="m44.3 24.4c1.3 0 2.4-1 2.6-2.2-0.3-5.8-2.8-11.2-6.9-15.3-3-3-6.6-5-10.6-6.1-1.8 0.6-3.4 1.7-4.8 3-0.4 0.4-0.8 0.9-1.2 1.4 2.2 0 4.3 0.4 6.3 1.1 1.2-0.7 2.6-1.1 4.1-1.1 4.3 0 7.8 3.5 7.8 7.8v9.3c0.4 1.2 1.4 2.1 2.7 2.1z"/>
	<linearGradient id="SVGID_11_" x1="44.306" x2="44.306" y1="8.1029" y2="24.989" gradientUnits="userSpaceOnUse">
		<stop stop-color="#233573" offset=".1042"/>
		<stop stop-color="#1E768D" offset="1"/>
	</linearGradient>
	<path class="st12" d="m46.8 21.6c-0.4-4.7-2.2-9.2-5.1-12.9v4.3 9.3c0.3 1.2 1.3 2.1 2.6 2.1s2.4-1 2.6-2.2c0-0.2 0-0.4-0.1-0.6z"/>
	<linearGradient id="SVGID_12_" x1="43.969" x2="44.398" y1="20.872" y2="33.331" gradientUnits="userSpaceOnUse">
		<stop stop-color="#8AC279" offset=".3892"/>
		<stop stop-color="#FFD600" offset=".8952"/>
	</linearGradient>
	<circle class="st13" cx="44.3" cy="30.6" r="2.6"/>
	<linearGradient id="SVGID_13_" x1="41.727" x2="41.727" y1="22.481" y2="-.2353" gradientUnits="userSpaceOnUse">
		<stop stop-color="#4E64A7" offset="0"/>
		<stop stop-color="#2E2254" offset="1"/>
	</linearGradient>
	<path class="st14" d="m46.9 13c0-3.5-1.4-6.8-3.8-9.2-1.8-1.8-4.1-3-6.6-3.5 3 1.1 5.2 4.1 5.2 7.5v0.9c3 3.7 4.8 8.7 5.2 13.4 0.1-0.2 0-1 0-1.3v-7.8z"/>
	<path class="st15" d="m75 33.1c-1.7 0-2.5-0.8-2.5-2.6v-11c0-5-1.8-6.9-6.1-6.9-3.6 0-5.6 2-5.6 6.9v13.6h-1.5c-1.5 0-2.5-0.9-2.5-2.8v-11c0-6.7 4-10.6 10.1-10.6 6 0 9.6 3.4 9.6 10.6v13.8h-1.5z"/>
	<path class="st15" d="m90.3 23h-5.9c0.4 4 3.2 6.8 7.6 6.8 3.7 0 5.9-1.2 7.2-2.5h0.2v1.8c0 2.5-2.7 4.4-8 4.4-6.6 0-11.2-5.1-11.2-11.9 0-7.7 4.8-12.9 11.2-12.9 4.6 0 9 3.5 9 8.3 0 4.2-1.9 6-10.1 6zm0.7-10.6c-3.9 0-6.4 3.3-6.6 6.4v1l5.4-0.1c5.8-0.1 6.8-0.6 6.8-2.4-0.1-2.6-1.9-4.9-5.6-4.9z"/>
	<path class="st15" d="m108.7 9.2h8.2v1.3c0 1.5-1 2.5-3.1 2.5h-5.1v11.8c0 3.4 1.3 4.8 3.9 4.8 1.5 0 2.9-0.1 3.8-0.7h0.2v1.4c0 2-1.6 3.1-4.3 3.1-5.3 0-7.6-2.8-7.6-8.3v-15.4c0-1.4 0.4-2.7 1-3.7 0.6-0.8 1.9-1.7 2.5-1.7h0.5v4.9z"/>
	<path class="st15" d="m122.2 5.9c-1.5 0-2.8-1.3-2.8-2.8s1.3-2.8 2.8-2.8 2.7 1.3 2.7 2.8-1.2 2.8-2.7 2.8zm5 27.4c-4.7 0-7.2-2.3-7.2-7.1v-17h1.3c1.4 0 2.8 1.1 2.8 3.2v13.3c0 3 1.5 3.9 3.7 3.9h1.7v1.3c0 1.5-0.9 2.4-2.3 2.4z"/>
	<path class="st15" d="m141.8 33.5c-5.9 0-11-5.4-11-12.1 0-8.2 3.8-12.7 10.5-12.7 2.9 0 5.5 1.3 7.2 4.6v-12.4h1.1c2 0 3 1.1 3 3.3v16.2c0.1 9.2-3.3 13.1-10.8 13.1zm-0.3-21c-4.2 0-6.5 3.2-6.5 8.6 0 4.8 3 8.6 7.2 8.6 4.3 0 6.3-2.3 6.3-8.2 0-4.3-1.3-9-7-9z"/>
	<path class="st15" d="m166.5 23h-5.9c0.4 4 3.2 6.8 7.6 6.8 3.7 0 5.9-1.2 7.2-2.5h0.2v1.8c0 2.5-2.7 4.4-8 4.4-6.6 0-11.2-5.1-11.2-11.9 0-7.7 4.8-12.9 11.2-12.9 4.6 0 9 3.5 9 8.3 0.1 4.2-1.9 6-10.1 6zm0.7-10.6c-3.9 0-6.4 3.3-6.6 6.4v1l5.4-0.1c5.8-0.1 6.8-0.6 6.8-2.4-0.1-2.6-1.9-4.9-5.6-4.9z"/>
	<path class="st15" d="m189.9 23h-5.9c0.4 4 3.2 6.8 7.6 6.8 3.7 0 5.9-1.2 7.2-2.5h0.2v1.8c0 2.5-2.7 4.4-8 4.4-6.6 0-11.2-5.1-11.2-11.9 0-7.7 4.8-12.9 11.2-12.9 4.6 0 9 3.5 9 8.3 0 4.2-2 6-10.1 6zm0.6-10.6c-3.9 0-6.4 3.3-6.6 6.4v1l5.4-0.1c5.8-0.1 6.8-0.6 6.8-2.4 0-2.6-1.8-4.9-5.6-4.9z"/>
	

<metadata><rdf:RDF><cc:Work rdf:about=""><dc:title>netidee-Logo-4c-Standard Copy</dc:title></cc:Work></rdf:RDF></metadata></svg>
