<?xml version="1.0" encoding="UTF-8"?>
<!-- Created with Inkscape (http://www.inkscape.org/) -->
<svg width="74.956mm" height="21.272mm" version="1.1" viewBox="0 0 74.956 21.272" xmlns="http://www.w3.org/2000/svg">
 <g transform="translate(-106.09 37.853)">
  <g id="XMLID_3714_" transform="matrix(.26458 0 0 .26458 90.637 -80.107)">
   <path id="XMLID_3745_" d="m120.4 204.6c0-3.4 0.9-6.3 2.8-8.5s4.5-3.3 7.7-3.3c3.3 0 5.9 1.1 7.8 3.3s2.8 5 2.8 8.5v0.4c0 3.5-0.9 6.3-2.8 8.5s-4.5 3.3-7.8 3.3-5.9-1.1-7.8-3.3-2.8-5-2.8-8.5v-0.4zm5.1 0.4c0 2.3 0.4 4.1 1.3 5.5s2.2 2.1 4.1 2.1c1.8 0 3.2-0.7 4.1-2.1s1.4-3.3 1.4-5.5v-0.4c0-2.2-0.5-4-1.4-5.5-0.9-1.4-2.3-2.1-4.1-2.1s-3.2 0.7-4 2.1c-0.9 1.4-1.3 3.3-1.3 5.5v0.4z"/>
   <path id="XMLID_3742_" d="m164.4 205.6c0 3.4-0.8 6.1-2.4 8.1-1.6 2.1-3.8 3.1-6.6 3.1-1.3 0-2.5-0.2-3.5-0.7s-1.9-1.2-2.6-2.1v11.2h-5.2v-32h4.4l0.5 2.9c0.7-1.1 1.6-1.9 2.7-2.5 1-0.6 2.3-0.9 3.6-0.9 2.8 0 5.1 1.1 6.7 3.4s2.4 5.2 2.4 8.9zm-5.1-0.5c0-2.4-0.4-4.3-1.3-5.8s-2.2-2.3-4-2.3c-1.1 0-2 0.2-2.8 0.7s-1.4 1.1-1.8 1.9v10.4c0.5 0.8 1.1 1.4 1.8 1.9 0.8 0.4 1.7 0.7 2.8 0.7 1.8 0 3.1-0.7 4-2s1.3-3 1.3-5.1z"/>
   <path id="XMLID_3739_" d="m176.9 216.8c-3.4 0-6-1.1-7.9-3.2s-2.9-4.9-2.9-8.3v-0.9c0-3.4 1-6.2 2.9-8.4s4.4-3.3 7.4-3.3c3.1 0 5.5 1 7 2.9 1.6 1.9 2.4 4.5 2.4 7.7v2.8h-14.3v0.1c0.1 1.9 0.6 3.4 1.5 4.6s2.4 1.8 4.3 1.8c1.4 0 2.6-0.2 3.7-0.5 1-0.3 2-0.8 2.9-1.5l1.7 3.4c-0.9 0.8-2.1 1.4-3.5 1.9-1.7 0.6-3.3 0.9-5.2 0.9zm-0.6-19.8c-1.4 0-2.4 0.5-3.2 1.5s-1.3 2.2-1.5 3.8v0.1h9v-0.4c0-1.5-0.3-2.7-1-3.6-0.7-1-1.8-1.4-3.3-1.4z"/>
   <path id="XMLID_3737_" d="m193 193.2 0.3 3.3c0.8-1.2 1.7-2.1 2.9-2.8 1.1-0.7 2.4-1 3.9-1 2.4 0 4.3 0.7 5.6 2.2s2 3.8 2 6.9v14.4h-5.2v-14.2c0-1.8-0.3-3.1-1-3.8-0.7-0.8-1.8-1.1-3.2-1.1-1.1 0-2.1 0.2-2.9 0.6s-1.5 1-1.9 1.7v16.9h-5.2v-23.1z"/>
   <path id="XMLID_3734_" class="st0" d="m231.4 205.6c0 3.4-0.8 6.1-2.4 8.1-1.6 2.1-3.8 3.1-6.6 3.1-1.3 0-2.5-0.2-3.5-0.7s-1.9-1.2-2.6-2.1v11.2h-5.2v-32h4.4l0.5 2.9c0.7-1.1 1.6-1.9 2.7-2.5 1-0.6 2.3-0.9 3.6-0.9 2.8 0 5.1 1.1 6.7 3.4s2.4 5.2 2.4 8.9zm-5.1-0.5c0-2.4-0.4-4.3-1.3-5.8s-2.2-2.3-4-2.3c-1.1 0-2 0.2-2.8 0.7s-1.4 1.1-1.8 1.9v10.4c0.5 0.8 1.1 1.4 1.8 1.9 0.8 0.4 1.7 0.7 2.8 0.7 1.8 0 3.1-0.7 4-2s1.3-3 1.3-5.1z"/>
   <path id="XMLID_3731_" class="st0" d="m233.2 205.1c0-3.7 0.8-6.7 2.4-8.9 1.6-2.3 3.8-3.4 6.7-3.4 1.3 0 2.4 0.3 3.4 0.8s1.8 1.2 2.6 2.2v-12.8h5.2v33.3h-4.2l-0.6-2.9c-0.7 1.1-1.6 1.9-2.7 2.5s-2.3 0.9-3.7 0.9c-2.8 0-5-1-6.6-3.1s-2.4-4.8-2.4-8.1v-0.5zm5.2 0.5c0 2.1 0.4 3.8 1.2 5.1s2.1 1.9 3.9 1.9c1.1 0 2-0.2 2.8-0.7s1.4-1.1 1.9-2v-10.1c-0.5-0.9-1.1-1.5-1.9-2s-1.7-0.7-2.7-0.7c-1.8 0-3.1 0.7-3.9 2.2s-1.3 3.4-1.3 5.8z"/>
   <path id="XMLID_3729_" class="st0" d="m258.5 216.4v-19.3h-3.5v-3.8h3.5v-2.7c0-2.5 0.7-4.5 2.1-5.9s3.3-2.1 5.8-2.1c0.5 0 1 0 1.5 0.1s1.1 0.2 1.7 0.3l-0.5 4c-0.3-0.1-0.6-0.1-1-0.1-0.3 0-0.7-0.1-1.1-0.1-1.1 0-2 0.3-2.5 1-0.6 0.6-0.8 1.6-0.8 2.8v2.7h4.3v3.8h-4.3v19.3z"/>
   <path id="XMLID_3727_" d="m282.5 210c0-0.8-0.3-1.5-1-2s-2-1-3.8-1.4c-2.7-0.6-4.8-1.4-6.2-2.5s-2.2-2.5-2.2-4.4 0.8-3.6 2.5-5c1.6-1.4 3.8-2.1 6.5-2.1 2.8 0 5 0.7 6.7 2.1s2.5 3.1 2.4 5.1v0.1h-5c0-0.9-0.4-1.8-1.1-2.4-0.7-0.7-1.7-1-3-1s-2.2 0.3-2.9 0.9-1 1.3-1 2.1 0.3 1.4 0.9 1.9 1.9 0.9 3.8 1.3c2.8 0.6 5 1.4 6.4 2.5s2.2 2.6 2.2 4.4c0 2.1-0.9 3.8-2.6 5.1s-4 2-6.8 2c-3 0-5.4-0.8-7.1-2.3s-2.6-3.3-2.5-5.3v-0.1h4.8c0.1 1.3 0.5 2.3 1.5 2.9 0.9 0.6 2 0.9 3.3 0.9s2.4-0.3 3.1-0.8c0.7-0.4 1.1-1.1 1.1-2z"/>
   <path id="XMLID_3725_" d="m295.6 216.4h-5.2v-23.1h5.2z"/>
   <path id="XMLID_3722_" d="m298.6 205.1c0-3.7 0.8-6.7 2.4-8.9 1.6-2.3 3.8-3.4 6.7-3.4 1.4 0 2.6 0.3 3.6 0.9s1.9 1.4 2.7 2.6l0.5-3h4.3v23.1c0 3-0.9 5.3-2.8 6.9-1.8 1.6-4.4 2.4-7.8 2.4-1.1 0-2.3-0.2-3.6-0.5s-2.5-0.7-3.5-1.3l0.8-4.1c0.9 0.4 1.9 0.8 3 1s2.2 0.4 3.3 0.4c1.9 0 3.3-0.4 4.1-1.2 0.9-0.8 1.3-2 1.3-3.7v-2.3c-0.7 0.9-1.6 1.6-2.6 2.1s-2.1 0.7-3.4 0.7c-2.8 0-5-1-6.6-3.1s-2.4-4.8-2.4-8.1zm5.1 0.5c0 2.1 0.4 3.8 1.2 5.1s2.1 1.9 3.9 1.9c1.1 0 2-0.2 2.8-0.7s1.4-1.1 1.8-2v-10.1c-0.5-0.8-1.1-1.5-1.9-2s-1.7-0.7-2.7-0.7c-1.8 0-3.1 0.7-3.9 2.2s-1.3 3.4-1.3 5.8v0.5z"/>
   <path id="XMLID_3720_" d="m327 193.2 0.3 3.3c0.8-1.2 1.7-2.1 2.9-2.8 1.1-0.7 2.4-1 3.9-1 2.4 0 4.3 0.7 5.6 2.2s2 3.8 2 6.9v14.4h-5.2v-14.2c0-1.8-0.3-3.1-1-3.8-0.7-0.8-1.8-1.1-3.2-1.1-1.1 0-2.1 0.2-2.9 0.6s-1.5 1-1.9 1.7v16.9h-5.2v-23.1z"/>
  </g>
  <g id="XMLID_2770_" transform="matrix(.26458 0 0 .26458 90.637 -80.107)">
   <path id="XMLID_2776_" class="st0" d="m100.1 182.3h-1.9v-6.4c0-8.9-7.3-16.2-16.2-16.2s-16.2 7.3-16.2 16.2v6.4h-1.8c-3.1 0-5.6 2.5-5.6 5.6v36.1c0 3.1 2.5 5.6 5.6 5.6h13.3c0.8 1.5 1.5 3.1 2.3 4.7-0.6 0.6-0.9 1.4-0.9 2.3 0 1.9 1.6 3.5 3.5 3.5s3.5-1.6 3.5-3.5c0-0.8-0.3-1.6-0.8-2.2 0.7-1.7 1.5-3.3 2.3-4.9h13.1c3.1 0 5.6-2.5 5.6-5.6v-36.1c-0.1-3-2.7-5.5-5.8-5.5zm-36.1 42.9c-0.6 0-1.1-0.5-1.1-1.1v-36.1c0-0.6 0.5-1.1 1.1-1.1h10.5c0 0.5-0.1 1-0.1 1.5-0.8 8.2-3.1 16.4-7.3 26-0.3 0.6-0.2 0.7 0 0.9 2.8 3 5.3 6.3 7.6 10h-10.7zm19.8-17.1 1.5 10.7h-2.7v16.6c0.6 0.2 1 0.8 1 1.4 0 0.9-0.7 1.5-1.5 1.5-0.9 0-1.5-0.7-1.5-1.5 0-0.7 0.4-1.2 1-1.4v-16.6h-2.7l1.5-10.7c-1.9-0.7-3.2-2.5-3.2-4.6 0-2.7 2.2-4.9 4.9-4.9s4.9 2.2 4.9 4.9c0 2.1-1.3 3.8-3.2 4.6zm-13.2-25.8v-6.4c0-6.3 5.1-11.4 11.4-11.4s11.4 5.1 11.4 11.4v6.4zm30.6 41.8c0 0.6-0.5 1.1-1.1 1.1h-10.5c2.1-3.4 4.4-6.4 6.9-9.2 0.8-0.9 0.9-1.4 0.4-2.6-3.7-8.4-6-16.1-6.9-23.4l-0.3-3.3h10.5c0.6 0 1.1 0.5 1.1 1.1v36.3z"/>
  </g>
  <circle id="XMLID_35_" class="st0" cx="168.16" cy="-30.55" r=".68792" stroke-width=".26458"/>
 </g>
 <style type="text/css">.st0{fill:#EF0707;}
	.st1{display:none;}
	.st2{display:inline;fill:#EF0707;}
	.st3{display:inline;}
	.st4{fill:#FFFFFF;}</style>
</svg>
