<?xml version="1.0" encoding="UTF-8"?>
<!-- Created with Inkscape (http://www.inkscape.org/) -->
<svg width="197.81mm" height="156.72mm" version="1.1" viewBox="0 0 197.81 156.72" xmlns="http://www.w3.org/2000/svg">
 <g transform="translate(-5.5491 -70.14)">
  <g transform="matrix(.26458 0 0 .26458 5.5488 -324.27)" clip-rule="evenodd" fill-rule="evenodd" stroke-linecap="round" stroke-linejoin="round" stroke-miterlimit="1.5">
   <path d="m3.366 2079.6h740.89" fill="none" stroke="#000" stroke-width="6.73px"/>
   <path d="m25.005 2079.6h697.62" fill="none" stroke="#000" stroke-width="6.34px"/>
   <g stroke="#000">
    <path d="m653 1509.9c0-8.871-7.202-16.073-16.072-16.073h-526.22c-8.871 0-16.073 7.202-16.073 16.073v128.58c0 8.871 7.202 16.073 16.073 16.073h526.22c8.87 0 16.072-7.202 16.072-16.073z" fill="#fff" stroke-width="6.28px"/>
    <g stroke-width="14.98px">
     <circle cx="173.32" cy="1574.2" r="10.242"/>
     <circle cx="236.83" cy="1574.2" r="10.242"/>
     <circle cx="299.94" cy="1574.2" r="10.242"/>
    </g>
   </g>
   <g stroke="#000">
    <path d="m653 1675.8c0-8.871-7.202-16.073-16.072-16.073h-526.22c-8.871 0-16.073 7.202-16.073 16.073v128.58c0 8.87 7.202 16.072 16.073 16.072h526.22c8.87 0 16.072-7.202 16.072-16.072z" fill="#fff" stroke-width="6.28px"/>
    <g stroke-width="14.98px">
     <circle cx="173.32" cy="1740.1" r="10.242"/>
     <circle cx="236.83" cy="1740.1" r="10.242"/>
     <circle cx="299.94" cy="1740.1" r="10.242"/>
    </g>
   </g>
   <path d="m653 1850.7c0-14.041-11.399-25.44-25.44-25.44h-507.49c-14.041 0-25.44 11.399-25.44 25.44v203.52c0 14.041 11.399 25.441 25.44 25.441h507.49c14.041 0 25.44-11.4 25.44-25.441z" fill="#fff" stroke="#000" stroke-width="6.28px"/>
   <path d="m542.63 1904.7h-5.227v-17.609c0-24.488-20.086-44.574-44.574-44.574s-44.574 20.086-44.574 44.574v17.609h-4.952c-8.53 0-15.409 6.879-15.409 15.408v99.328c0 8.53 6.879 15.408 15.409 15.408h36.594c2.201 4.128 4.127 8.53 6.328 12.932-1.65 1.651-2.476 3.852-2.476 6.329 0 5.227 4.402 9.63 9.63 9.63s9.63-4.403 9.63-9.63c0-2.202-0.825-4.403-2.201-6.054 1.926-4.677 4.127-9.079 6.329-13.482h36.044c8.529 0 15.408-6.878 15.408-15.408v-99.328c-0.275-8.254-7.429-15.133-15.959-15.133zm-99.327 118.04c-1.651 0-3.027-1.376-3.027-3.027v-99.327c0-1.651 1.376-3.027 3.027-3.027h28.89c0 1.376-0.275 2.751-0.275 4.127-2.201 22.562-8.53 45.124-20.086 71.538-0.825 1.651-0.55 1.926 0 2.476 7.704 8.255 14.583 17.335 20.911 27.515h-29.44zm54.479-47.05 4.127 29.441h-7.429v45.674c1.651 0.55 2.751 2.201 2.751 3.852 0 2.476-1.926 4.127-4.127 4.127-2.476 0-4.127-1.926-4.127-4.127 0-1.926 1.1-3.302 2.751-3.852v-45.674h-7.429l4.128-29.441c-5.228-1.926-8.805-6.879-8.805-12.657 0-7.429 6.053-13.482 13.482-13.482s13.482 6.053 13.482 13.482c0 5.778-3.577 10.456-8.804 12.657zm-36.32-70.988v-17.609c0-17.334 14.033-31.367 31.367-31.367s31.367 14.033 31.367 31.367v17.609zm84.195 115.01c0 1.651-1.376 3.027-3.027 3.027h-28.89c5.778-9.355 12.106-17.609 18.985-25.314 2.201-2.476 2.476-3.852 1.101-7.153-10.181-23.113-16.509-44.299-18.985-64.385l-0.826-9.079h28.891c1.65 0 3.026 1.375 3.026 3.026v99.878z" fill="#ef0707" fill-rule="nonzero"/>
   <g stroke="#000" stroke-width="14.98px">
    <circle cx="173.32" cy="1952.4" r="10.242"/>
    <circle cx="236.83" cy="1952.4" r="10.242"/>
    <circle cx="299.94" cy="1952.4" r="10.242"/>
   </g>
  </g>
 </g>
</svg>
